<svg width="270" height="60" viewBox="0 0 270 60" fill="none" xmlns="http://www.w3.org/2000/svg">
<g clip-path="url(#clip0_49_3153)">
<mask id="mask0_49_3153" style="mask-type:luminance" maskUnits="userSpaceOnUse" x="0" y="6" width="269" height="55">
<path d="M268.605 6.00024H0.319336V60.0002H268.605V6.00024Z" fill="white"/>
</mask>
<g mask="url(#mask0_49_3153)">
<path d="M38.6126 54.2214H10.226C4.76465 54.2214 0.319336 49.776 0.319336 44.2934V15.9069C0.319336 10.4456 4.76465 6.00024 10.226 6.00024H38.6126C44.0951 6.00024 48.5192 10.4456 48.5192 15.9069V44.2934C48.5404 49.776 44.0951 54.2214 38.6126 54.2214Z" fill="#FDDB32"/>
<path d="M15.0495 44.8448V40.1666C15.0495 39.7856 14.7531 39.4893 14.3722 39.4893H9.69399C9.31295 39.4893 9.0166 39.7856 9.0166 40.1666V44.8448C9.0166 45.2259 9.31295 45.5222 9.69399 45.5222H14.3722C14.7531 45.5222 15.0495 45.2259 15.0495 44.8448Z" fill="#191E3B"/>
<path d="M39.8419 40.8217V17.7696C39.8419 16.0549 38.466 14.679 36.7513 14.679H13.6992C13.2335 14.679 12.9583 14.8484 12.662 15.1447L8.06847 19.7805C7.72978 20.1192 7.96263 20.6273 8.47068 20.6273H29.3214L16.3876 33.561C16.1547 33.7938 16.0489 34.0267 16.0489 34.4077V37.8159C16.0489 38.218 16.3241 38.4932 16.7262 38.4932H20.1344C20.5365 38.4932 20.7693 38.3874 20.981 38.1545L33.9148 25.2207V46.0713C33.9148 46.5794 34.4228 46.8123 34.7616 46.4736L39.3974 41.859C39.6725 41.5625 39.8419 41.2874 39.8419 40.8217Z" fill="#191E3B"/>
<path d="M109.823 34.8736L119.264 21.8341C119.539 21.4318 119.327 21.0295 118.862 21.0295H113.718C113.442 21.0295 113.083 21.1355 112.913 21.4318L106.69 30.513L100.318 21.4318C100.149 21.1566 99.8101 21.0295 99.5138 21.0295H94.0312C93.7561 21.0295 93.5655 21.2624 93.5655 21.4952C93.5655 21.6012 93.5655 21.7281 93.6713 21.8341L103.134 34.916L92.6977 49.268C92.4224 49.6701 92.6341 50.0723 93.0364 50.0723H98.2225C98.4978 50.0723 98.8576 49.9665 99.0269 49.6701L106.245 39.2766L113.57 49.6701C113.739 49.9665 114.077 50.0723 114.374 50.0723H119.899C120.174 50.0723 120.364 49.8395 120.364 49.6066C120.364 49.5008 120.301 49.3738 120.259 49.268L109.823 34.8736Z" fill="#191E3B"/>
<path d="M88.7389 10.1279C89.1411 10.1279 89.4162 10.4031 89.4162 10.8053V14.6791C89.4162 15.0813 89.1411 15.3565 88.7389 15.3565H70.3014V26.8719H86.855C87.2571 26.8719 87.5323 27.1471 87.5323 27.5494V31.4019C87.5323 31.8042 87.2571 32.0793 86.855 32.0793H70.3014V44.6956H88.7389C89.1411 44.6956 89.4162 44.9707 89.4162 45.373V49.3737C89.4162 49.7759 89.1411 50.051 88.7389 50.051H67.1685C65.5174 50.051 64.2686 48.8022 64.2686 47.151V13.028C64.2686 11.3769 65.5174 10.1279 67.1685 10.1279H88.7389Z" fill="#191E3B"/>
<path d="M139.795 20.1194C134.207 20.1194 131.243 22.5748 129.528 24.861V21.707C129.528 21.3047 129.254 21.0296 128.852 21.0296H124.342C123.94 21.0296 123.665 21.3259 123.665 21.707V59.3016C123.665 59.7038 123.94 59.979 124.342 59.979H128.914C129.316 59.979 129.592 59.7038 129.592 59.3016V46.3467C131.243 48.6328 134.207 50.919 139.795 50.919C148.876 50.919 154.168 44.0817 154.168 35.5086C154.168 26.9355 148.876 20.1194 139.795 20.1194ZM138.779 46.008C133.191 46.008 129.36 42.2401 129.36 35.5721C129.36 28.9042 133.191 25.0091 138.779 25.0091C144.367 25.0091 148.136 28.883 148.136 35.5721C148.136 42.2401 144.367 46.008 138.779 46.008Z" fill="#191E3B"/>
<path d="M172.162 20.1194C164.224 20.1194 157.895 25.8347 157.895 35.297C157.895 44.9919 163.482 50.9402 172.902 50.9402C178.321 50.9402 182.83 48.5482 185.625 45.2248C185.793 45.0554 185.857 44.8861 185.857 44.7167C185.857 44.5474 185.793 44.378 185.625 44.2087L183 41.6262C182.83 41.4568 182.66 41.3933 182.492 41.3933C182.322 41.3933 182.152 41.4992 181.984 41.6686C179.824 44.0182 177.009 46.008 172.966 46.008C167.059 46.008 164.224 42.3671 163.778 37.1174H185.687C186.089 37.1174 186.365 36.821 186.365 36.44V35.297C186.365 26.6179 181.116 20.1194 172.162 20.1194ZM163.99 32.672C164.668 27.9092 167.165 24.7975 172.12 24.7975C177.199 24.7975 179.888 27.6975 180.268 32.672H163.99Z" fill="#191E3B"/>
<path d="M267.947 21.029H263.438C263.036 21.029 262.761 21.3042 262.761 21.7063V24.9028C261.046 22.6165 258.083 20.1611 252.368 20.1611C243.414 20.1611 238.101 26.9985 238.101 35.5716C238.101 44.1447 243.414 50.982 252.368 50.982C258.083 50.982 261.046 48.5265 262.761 46.2403V49.3732C262.761 49.7753 263.036 50.0506 263.438 50.0506H267.947C268.35 50.0506 268.625 49.7753 268.625 49.3732V21.7063C268.646 21.3042 268.35 21.029 267.947 21.029ZM253.51 46.0709C247.923 46.0709 244.154 42.1972 244.154 35.508C244.154 28.8401 247.923 25.0721 253.51 25.0721C259.099 25.0721 262.93 28.8401 262.93 35.508C262.93 42.1972 259.099 46.0709 253.51 46.0709Z" fill="#191E3B"/>
<path d="M219.92 10.1279H215.347C214.945 10.1279 214.671 10.4031 214.671 10.8053V24.9033C212.955 22.6171 210.056 20.1616 204.34 20.1616C195.386 20.1616 190.073 26.9989 190.073 35.572C190.073 44.1451 195.386 50.9825 204.34 50.9825C210.056 50.9825 213.019 48.5271 214.733 46.2408V49.3737C214.733 49.7759 215.009 50.0511 215.411 50.0511H219.92C220.322 50.0511 220.597 49.7759 220.597 49.3737V10.8053C220.597 10.4031 220.322 10.1279 219.92 10.1279ZM205.483 46.0715C199.895 46.0715 196.127 42.1977 196.127 35.5086C196.127 28.8405 199.895 25.0727 205.483 25.0727C211.072 25.0727 214.903 28.8405 214.903 35.5086C214.903 42.1977 211.072 46.0715 205.483 46.0715Z" fill="#191E3B"/>
<path d="M232.347 10.1279C232.749 10.1279 233.023 10.4031 233.023 10.8053V15.4835C233.023 15.8856 232.749 16.1609 232.347 16.1609H227.668C227.266 16.1609 226.991 15.8856 226.991 15.4835V10.8053C226.991 10.4031 227.266 10.1279 227.668 10.1279H232.347Z" fill="#191E3B"/>
<path d="M232.299 21.0295C232.702 21.0295 232.976 21.3048 232.976 21.707V49.3738C232.976 49.7759 232.702 50.0512 232.299 50.0512H227.727C227.325 50.0512 227.049 49.7759 227.049 49.3738V21.707C227.049 21.3048 227.325 21.0295 227.727 21.0295H232.299Z" fill="#191E3B"/>
</g>
</g>
<defs>
<clipPath id="clip0_49_3153">
<rect width="270" height="60" fill="white"/>
</clipPath>
</defs>
</svg>
