<svg width="40" height="40" viewBox="0 0 40 40" fill="none" xmlns="http://www.w3.org/2000/svg">
<path d="M16.6663 24.9997L25.3163 19.9997L16.6663 14.9997V24.9997ZM35.933 11.9497C36.1497 12.733 36.2997 13.783 36.3997 15.1163C36.5163 16.4497 36.5663 17.5997 36.5663 18.5997L36.6663 19.9997C36.6663 23.6497 36.3997 26.333 35.933 28.0497C35.5163 29.5497 34.5497 30.5163 33.0497 30.933C32.2663 31.1497 30.833 31.2997 28.633 31.3997C26.4663 31.5163 24.483 31.5663 22.6497 31.5663L19.9997 31.6663C13.0163 31.6663 8.66634 31.3997 6.94967 30.933C5.44967 30.5163 4.48301 29.5497 4.06634 28.0497C3.84967 27.2663 3.69967 26.2163 3.59967 24.883C3.48301 23.5497 3.43301 22.3997 3.43301 21.3997L3.33301 19.9997C3.33301 16.3497 3.59967 13.6663 4.06634 11.9497C4.48301 10.4497 5.44967 9.48301 6.94967 9.06634C7.73301 8.84967 9.16634 8.69967 11.3663 8.59967C13.533 8.48301 15.5163 8.43301 17.3497 8.43301L19.9997 8.33301C26.983 8.33301 31.333 8.59967 33.0497 9.06634C34.5497 9.48301 35.5163 10.4497 35.933 11.9497Z" fill="black"/>
</svg>
