<svg width="207" height="44" viewBox="0 0 207 44" fill="none" xmlns="http://www.w3.org/2000/svg">
<g clip-path="url(#clip0_49_3492)">
<path d="M54.7029 16.3997C55.3904 13.8244 55.1064 11.854 53.8504 10.4885C52.5948 9.12293 50.3994 8.43558 47.2648 8.42642H35.2527L28.0113 35.5952H33.8271L36.7557 24.5975H40.5963C41.2989 24.5623 41.9991 24.7058 42.6311 25.0145C42.8877 25.175 43.1016 25.395 43.2548 25.656C43.4081 25.9168 43.496 26.2108 43.5112 26.5131L44.5606 35.5952H50.7936L49.7762 27.159C49.5746 25.2757 48.7084 24.1668 47.2052 23.8323C49.0239 23.3306 50.6836 22.3714 52.0265 21.0462C53.324 19.7691 54.2493 18.1628 54.7029 16.3997ZM49.1346 16.496C48.8839 17.6098 48.2016 18.5788 47.2372 19.1904C46.3205 19.7677 44.9824 20.0519 43.2819 20.0519H37.8833L39.7805 12.9538H45.1841C46.8796 12.9538 48.0439 13.2425 48.6855 13.8153C49.327 14.3881 49.4646 15.2954 49.1346 16.496Z" fill="#0C2651"/>
<path d="M71.4954 16.1746L70.7573 18.924C70.4499 17.9414 69.7993 17.1021 68.9242 16.5595C67.9036 15.947 66.7268 15.6445 65.5374 15.6889C63.8687 15.6893 62.2288 16.1252 60.7803 16.9536C59.2035 17.8577 57.8417 19.0927 56.7884 20.5736C55.6275 22.1748 54.7773 23.9793 54.2814 25.8937C53.7613 27.5976 53.6514 29.4 53.9605 31.1542C54.1966 32.5399 54.9381 33.7888 56.0413 34.6598C57.2405 35.5171 58.6934 35.9465 60.1661 35.8788C61.4812 35.8818 62.7814 35.6002 63.9774 35.0538C65.1735 34.507 66.2371 33.7084 67.0956 32.7122L66.3348 35.5809H72.004L77.1736 16.1746H71.4954ZM68.9198 25.7976C68.5691 27.3776 67.7887 28.8303 66.6648 29.9951C66.1809 30.4687 65.6073 30.8414 64.978 31.0917C64.3484 31.3417 63.6756 31.4644 62.9984 31.4521C61.5548 31.4521 60.5831 30.9939 60.0605 30.0178C59.5383 29.042 59.5243 27.6809 60.0012 25.8937C60.3636 24.2995 61.1562 22.8351 62.2926 21.6597C62.7782 21.1717 63.3562 20.7854 63.9928 20.5234C64.6295 20.2614 65.3118 20.1289 66.0002 20.1337C67.4119 20.1337 68.3743 20.6241 68.8692 21.6001C69.3643 22.5761 69.4147 23.9554 68.9288 25.793L68.9198 25.7976Z" fill="#0C2651"/>
<path d="M97.3977 16.1889H81.0684L79.8631 20.7163H89.3682L76.8703 31.6177L75.8025 35.6181H92.668L93.8733 31.0908H83.6761L96.3803 20.0335L97.3977 16.1889Z" fill="#0C2651"/>
<path d="M115.258 16.8992C113.742 16.0328 112.012 15.6104 110.267 15.6803C108.299 15.6633 106.351 16.0794 104.561 16.8992C102.821 17.7107 101.292 18.9136 100.093 20.4139C98.841 21.9876 97.9368 23.8086 97.4394 25.7569C96.9044 27.4897 96.8382 29.3331 97.2468 31.0998C97.622 32.5664 98.5541 33.829 99.8455 34.6191C101.159 35.4287 102.84 35.8335 104.887 35.8335C106.834 35.8506 108.761 35.4358 110.529 34.6191C112.264 33.8075 113.786 32.6026 114.974 31.0998C116.229 29.5272 117.134 27.706 117.632 25.7569C118.168 24.0242 118.233 22.18 117.82 20.4139C117.459 18.9522 116.539 17.6903 115.258 16.8992ZM111.949 25.7476C111.441 27.6539 110.694 29.0836 109.685 30.0277C108.712 30.9544 107.413 31.4601 106.069 31.4344C103.106 31.4344 102.129 29.5389 103.141 25.7476C103.639 23.8659 104.403 22.4469 105.432 21.4907C106.418 20.5483 107.735 20.0328 109.099 20.0565C110.51 20.0565 111.473 20.5147 111.968 21.4907C112.463 22.4668 112.449 23.8644 111.949 25.7476Z" fill="#0C2651"/>
<path d="M176.991 16.1759L176.254 18.9253C175.946 17.9427 175.296 17.1035 174.42 16.5609C173.402 15.9428 172.225 15.6354 171.034 15.6765C169.362 15.6801 167.72 16.1208 166.272 16.9549C164.694 17.8588 163.33 19.0939 162.275 20.575C161.116 22.1772 160.266 23.9814 159.768 25.895C159.253 27.5997 159.143 29.4011 159.448 31.1556C159.684 32.5413 160.425 33.7901 161.529 34.6611C162.743 35.5256 164.214 35.955 165.703 35.8802C166.989 35.8753 168.259 35.5972 169.429 35.0644C170.637 34.5226 171.709 33.7197 172.569 32.7136L171.808 35.5823H177.477L182.652 16.1759H176.991ZM174.402 25.799C174.053 27.3785 173.275 28.8312 172.152 29.9964C171.667 30.4686 171.093 30.8403 170.464 31.0906C169.835 31.3406 169.162 31.464 168.485 31.4535C167.037 31.4535 166.066 30.9953 165.543 30.0192C165.021 29.0433 165.012 27.6823 165.484 25.895C165.848 24.3016 166.64 22.8377 167.775 21.661C168.262 21.1733 168.841 20.7873 169.478 20.5253C170.115 20.2633 170.798 20.1307 171.487 20.1351C172.899 20.1351 173.855 20.6239 174.356 21.6014C174.888 22.55 174.902 23.9568 174.402 25.7944V25.799Z" fill="#0C2651"/>
<path d="M135.438 21.3997L136.886 16.1163C136.275 15.8398 135.608 15.7096 134.938 15.7359C133.628 15.7374 132.341 16.075 131.199 16.7165C130.157 17.2871 129.253 18.0785 128.55 19.0352L129.296 16.1896H123.632L118.416 35.5957H124.163L126.863 25.4642C127.179 24.1123 127.92 22.8969 128.976 21.9954C130.062 21.1472 131.411 20.7076 132.789 20.7536C133.711 20.7497 134.621 20.9715 135.438 21.3997Z" fill="#0C2651"/>
<path d="M155.466 16.9958C154.293 16.0998 152.843 15.644 151.369 15.7082C149.934 15.7098 148.52 16.0522 147.244 16.7071C145.965 17.3359 144.863 18.2728 144.036 19.4336L144.059 19.3007L145.026 16.1893H139.389L137.949 21.5827C137.949 21.6423 137.917 21.7065 137.904 21.766L131.992 43.9904H137.766L140.75 32.7912C141.035 33.7793 141.692 34.6185 142.583 35.1327C143.617 35.7266 144.797 36.0189 145.988 35.9759C147.662 35.9805 149.311 35.5645 150.782 34.7661C152.348 33.9032 153.7 32.6988 154.737 31.2422C155.878 29.6493 156.713 27.8574 157.198 25.959C157.722 24.2296 157.841 22.4031 157.547 20.6205C157.305 19.2036 156.568 17.9187 155.466 16.9958ZM151.382 25.8673C151.03 27.4224 150.255 28.8496 149.141 29.9914C148.156 30.9336 146.838 31.4475 145.475 31.4211C144.054 31.4211 143.092 30.9306 142.583 29.9638C142.074 28.997 142.047 27.604 142.546 25.7664C142.903 24.1741 143.697 22.7127 144.838 21.5461C145.323 21.0728 145.896 20.6996 146.525 20.448C147.154 20.1964 147.827 20.0713 148.504 20.0797C149.879 20.0797 150.837 20.593 151.337 21.6056C151.836 22.6184 151.868 24.0526 151.382 25.8673Z" fill="#0C2651"/>
<path d="M206.759 15.5436H200.801L199.884 17.459C199.811 17.5552 199.742 17.6515 199.66 17.7706L199.564 17.9264L192.231 28.1816L190.709 16.1897H184.696L187.753 34.5832L180.993 43.9908H186.781L188.454 41.6034C188.505 41.5301 188.555 41.4704 188.601 41.3927L190.558 38.602L190.622 38.5287L199.362 26.06L206.759 15.5436Z" fill="#0C2651"/>
<path d="M13.2908 11.5292L11.5492 17.8712L21.3753 11.4971L14.959 35.5957H21.4715L30.9538 0L13.2908 11.5292Z" fill="#3395FF"/>
<path d="M2.70398 25.4591L0 35.5953H13.3595L18.8271 14.9746L2.70398 25.4591Z" fill="#0C2651"/>
</g>
<defs>
<clipPath id="clip0_49_3492">
<rect width="206.433" height="43.87" fill="white" transform="scale(1.00275)"/>
</clipPath>
</defs>
</svg>
