<svg width="30" height="30" viewBox="0 0 30 30" fill="none" xmlns="http://www.w3.org/2000/svg">
<mask id="mask0_0_189" style="mask-type:luminance" maskUnits="userSpaceOnUse" x="0" y="0" width="30" height="30">
<path d="M0 0.000123794H29.9999V30H0V0.000123794Z" fill="white"/>
</mask>
<g mask="url(#mask0_0_189)">
<path d="M24.8807 0.439126H21.2744V3.16331C21.2744 3.45669 21.5122 3.69452 21.8056 3.69452H21.8625C22.0062 3.69452 22.1417 3.63429 22.2437 3.53292C22.5112 3.26697 22.8798 3.10267 23.2868 3.10267C24.1595 3.10267 24.8558 3.85817 24.7572 4.75079C24.6829 5.42373 24.1454 5.96848 23.4734 6.05063C22.9941 6.10928 22.553 5.93842 22.2452 5.63326C22.1426 5.53155 22.0068 5.4702 21.8622 5.4702H21.8056C21.5122 5.4702 21.2744 5.70803 21.2744 6.00141V8.7256H23.9985C24.2919 8.7256 24.5298 8.96343 24.5298 9.2568V9.31341C24.5298 9.45796 24.4684 9.59378 24.3667 9.69643C24.0615 10.0042 23.8907 10.4453 23.9493 10.9247C24.0315 11.5966 24.5762 12.1341 25.2492 12.2084C26.1418 12.3069 26.8973 11.6107 26.8973 10.738C26.8973 10.331 26.733 9.96239 26.467 9.69491C26.3657 9.59296 26.3054 9.45743 26.3054 9.31364V9.2568C26.3054 8.96343 26.5433 8.7256 26.8366 8.7256H29.5608V1.03104C29.5608 0.704086 29.2959 0.439126 28.9689 0.439126H26.9336" stroke="black" stroke-width="0.853125" stroke-miterlimit="10" stroke-linecap="round" stroke-linejoin="round"/>
<path d="M23.9494 23.473C23.8908 22.9936 24.0616 22.5526 24.3667 22.2448C24.4685 22.1421 24.5298 22.0063 24.5298 21.8617V21.8051C24.5298 21.5117 24.292 21.2739 23.9986 21.2739H21.2744V23.9981C21.2744 24.2914 21.0366 24.5293 20.7432 24.5293H20.6866C20.542 24.5293 20.4062 24.4679 20.3036 24.3662C19.9958 24.0611 19.5547 23.8903 19.0753 23.9488C18.4034 24.031 17.8659 24.5757 17.7916 25.2487C17.6931 26.1414 18.3893 26.8969 19.262 26.8969C19.669 26.8969 20.0376 26.7325 20.3051 26.4666C20.407 26.3652 20.5426 26.305 20.6864 26.305H21.2744V29.5603H28.969C29.2959 29.5603 29.5609 29.2954 29.5609 28.9685V21.2739H26.8367C26.5433 21.2739 26.3055 21.5117 26.3055 21.8051V21.862C26.3055 22.0057 26.3657 22.1412 26.4671 22.2432C26.733 22.5107 26.8974 22.8793 26.8974 23.2863C26.8974 24.159 26.1418 24.8553 25.2492 24.7567C24.5763 24.6824 24.0315 24.145 23.9494 23.473Z" stroke="black" stroke-width="0.853125" stroke-miterlimit="10" stroke-linecap="round" stroke-linejoin="round"/>
<path d="M4.05991 29.5603H8.72612V26.8364C8.72612 26.5429 8.48817 26.305 8.19468 26.305H8.13808C7.99429 26.305 7.85876 26.3652 7.75681 26.4666C7.48933 26.7325 7.12072 26.8968 6.71373 26.8968C5.84098 26.8968 5.14471 26.1413 5.24332 25.2487C5.31762 24.5757 5.85504 24.0311 6.52705 23.9488C7.0064 23.8902 7.44744 24.0611 7.75529 24.3662C7.85794 24.4679 7.99376 24.5293 8.13825 24.5293H8.19468C8.48817 24.5293 8.72612 24.2913 8.72612 23.9978V21.2739H6.00199C5.70856 21.2739 5.47073 21.036 5.47073 20.7427V20.6861C5.47073 20.5415 5.53207 20.4057 5.63385 20.303C5.93895 19.9952 6.1098 19.5542 6.05115 19.0748C5.969 18.4029 5.42426 17.8654 4.75131 17.7911C3.8587 17.6925 3.1032 18.3887 3.1032 19.2615C3.1032 19.6685 3.26755 20.0371 3.53351 20.3046C3.63481 20.4065 3.69505 20.542 3.69505 20.6858V20.7427C3.69505 21.036 3.45722 21.2739 3.16384 21.2739H0.439653V28.9684C0.439653 29.2954 0.704671 29.5603 1.03156 29.5603H2.00791" stroke="black" stroke-width="0.853125" stroke-miterlimit="10" stroke-linecap="round" stroke-linejoin="round"/>
<path d="M6.05115 6.52657C6.10975 7.00593 5.93895 7.44696 5.63379 7.75475C5.53207 7.85741 5.47073 7.99323 5.47073 8.13778V8.19438C5.47073 8.48781 5.70856 8.72564 6.00193 8.72564H8.72612V6.00146C8.72612 5.70808 8.96395 5.47025 9.25733 5.47025H9.31393C9.45848 5.47025 9.5943 5.5316 9.69696 5.63331C10.0048 5.93847 10.4458 6.10927 10.9252 6.05068C11.5971 5.96853 12.1346 5.42378 12.2089 4.75084C12.3075 3.85817 11.6113 3.10266 10.7385 3.10266C10.3315 3.10266 9.96291 3.26702 9.69544 3.53297C9.59348 3.63434 9.45796 3.69457 9.31417 3.69457H9.25733C8.96395 3.69457 8.72612 3.45674 8.72612 3.16336V0.439175H1.03156C0.704612 0.439175 0.439653 0.704136 0.439653 1.03103V8.72564H3.16384C3.45722 8.72564 3.69505 8.48781 3.69505 8.19438V8.13754C3.69505 7.99381 3.63482 7.85829 3.53345 7.75633C3.26749 7.48879 3.10314 7.12018 3.10314 6.71319C3.10314 5.8405 3.8587 5.14423 4.75131 5.24279C5.42426 5.31708 5.969 5.85456 6.05115 6.52657Z" stroke="black" stroke-width="0.853125" stroke-miterlimit="10" stroke-linecap="round" stroke-linejoin="round"/>
<path d="M13.9914 4.64201H14.343" stroke="black" stroke-width="0.853125" stroke-linecap="round" stroke-linejoin="round"/>
<path d="M16.3094 4.64201H18.1663" stroke="black" stroke-width="0.853125" stroke-linecap="round" stroke-linejoin="round" stroke-dasharray="0.85 1.91"/>
<path d="M19.1495 4.64201H19.5011" stroke="black" stroke-width="0.853125" stroke-linecap="round" stroke-linejoin="round"/>
<path d="M25.358 13.992V14.3435" stroke="black" stroke-width="0.853125" stroke-linecap="round" stroke-linejoin="round"/>
<path d="M25.358 16.3097V18.1666" stroke="black" stroke-width="0.853125" stroke-linecap="round" stroke-linejoin="round" stroke-dasharray="0.85 1.91"/>
<path d="M25.358 19.1491V19.5007" stroke="black" stroke-width="0.853125" stroke-linecap="round" stroke-linejoin="round"/>
<path d="M16.009 25.358H15.6575" stroke="black" stroke-width="0.853125" stroke-linecap="round" stroke-linejoin="round"/>
<path d="M13.6913 25.358H11.8344" stroke="black" stroke-width="0.853125" stroke-linecap="round" stroke-linejoin="round" stroke-dasharray="0.85 1.91"/>
<path d="M10.8509 25.358H10.4993" stroke="black" stroke-width="0.853125" stroke-linecap="round" stroke-linejoin="round"/>
<path d="M4.64201 16.0086V15.657" stroke="black" stroke-width="0.853125" stroke-linecap="round" stroke-linejoin="round"/>
<path d="M4.64201 13.6906V11.8337" stroke="black" stroke-width="0.853125" stroke-linecap="round" stroke-linejoin="round" stroke-dasharray="0.85 1.91"/>
<path d="M4.64201 10.8505V10.4989" stroke="black" stroke-width="0.853125" stroke-linecap="round" stroke-linejoin="round"/>
<path d="M14.9997 16.1434C14.368 16.1434 13.8559 15.6313 13.8559 14.9997C13.8559 14.368 14.368 13.8559 14.9997 13.8559C15.6314 13.8559 16.1434 14.368 16.1434 14.9997C16.1434 15.6313 15.6314 16.1434 14.9997 16.1434ZM19.7582 14.9997C19.7582 14.8124 19.7473 14.6277 19.7263 14.4461C19.6975 14.1978 19.8139 13.9553 20.0304 13.8303L20.9565 13.2956C21.2559 13.1227 21.3586 12.7398 21.1857 12.4403L20.3091 10.9221C20.1362 10.6226 19.7532 10.52 19.4538 10.6929L18.5272 11.2279C18.3101 11.3532 18.0411 11.3326 17.8401 11.1828C17.5468 10.9643 17.2276 10.7789 16.8878 10.6319C16.6558 10.5315 16.5024 10.3068 16.5024 10.054V8.9889C16.5024 8.64308 16.222 8.36277 15.8762 8.36277H14.1231C13.7773 8.36277 13.497 8.64308 13.497 8.9889V10.054C13.497 10.3068 13.3435 10.5315 13.1115 10.6319C12.7717 10.7789 12.4525 10.9643 12.1592 11.1828C11.9583 11.3326 11.6892 11.3532 11.4721 11.2279L10.5455 10.6929C10.2461 10.52 9.86312 10.6226 9.69021 10.9221L8.81365 12.4403C8.64075 12.7398 8.7434 13.1227 9.04281 13.2956L9.96894 13.8303C10.1854 13.9553 10.3018 14.1978 10.273 14.4461C10.252 14.6277 10.2412 14.8124 10.2412 14.9997C10.2412 15.1869 10.252 15.3716 10.273 15.5532C10.3018 15.8015 10.1854 16.044 9.96894 16.169L9.04281 16.7037C8.7434 16.8766 8.64075 17.2595 8.81365 17.559L9.69021 19.0772C9.86312 19.3767 10.2461 19.4793 10.5455 19.3064L11.4721 18.7714C11.6892 18.6461 11.9583 18.6667 12.1592 18.8166C12.4525 19.035 12.7717 19.2204 13.1115 19.3674C13.3435 19.4678 13.497 19.6925 13.497 19.9454V21.0104C13.497 21.3562 13.7773 21.6365 14.1231 21.6365H15.8762C16.222 21.6365 16.5024 21.3562 16.5024 21.0104V19.9454C16.5024 19.6925 16.6558 19.4678 16.8878 19.3674C17.2276 19.2204 17.5468 19.035 17.8401 18.8166C18.0411 18.6667 18.3101 18.6461 18.5272 18.7714L19.4538 19.3064C19.7532 19.4793 20.1362 19.3767 20.3091 19.0772L21.1857 17.559C21.3586 17.2595 21.2559 16.8766 20.9565 16.7037L20.0304 16.169C19.8139 16.044 19.6975 15.8015 19.7263 15.5532C19.7473 15.3716 19.7582 15.1869 19.7582 14.9997Z" stroke="black" stroke-width="0.853125" stroke-miterlimit="10" stroke-linecap="round" stroke-linejoin="round"/>
<path d="M15.0001 17.9594C13.3656 17.9594 12.0406 16.6344 12.0406 14.9999C12.0406 13.3654 13.3656 12.0404 15.0001 12.0404C16.6346 12.0404 17.9595 13.3654 17.9595 14.9999C17.9595 16.6344 16.6346 17.9594 15.0001 17.9594Z" stroke="black" stroke-width="0.853125" stroke-miterlimit="10" stroke-linecap="round" stroke-linejoin="round"/>
</g>
</svg>
