<svg width="30" height="30" viewBox="0 0 30 30" fill="none" xmlns="http://www.w3.org/2000/svg">
<path d="M14.9999 9.84377C13.9801 9.84377 12.9832 10.1462 12.1352 10.7128C11.2873 11.2793 10.6264 12.0846 10.2361 13.0268C9.84587 13.969 9.74376 15.0057 9.94272 16.006C10.1417 17.0062 10.6328 17.9249 11.3539 18.646C12.075 19.3672 12.9937 19.8582 13.994 20.0572C14.9942 20.2562 16.0309 20.154 16.9731 19.7638C17.9153 19.3735 18.7206 18.7126 19.2872 17.8647C19.8537 17.0167 20.1561 16.0198 20.1561 15C20.1546 13.633 19.6108 12.3224 18.6442 11.3557C17.6776 10.3891 16.3669 9.84532 14.9999 9.84377ZM14.9999 17.3438C14.5363 17.3438 14.0832 17.2063 13.6978 16.9488C13.3123 16.6912 13.0119 16.3252 12.8345 15.8969C12.6572 15.4687 12.6107 14.9974 12.7012 14.5428C12.7916 14.0881 13.0148 13.6705 13.3426 13.3427C13.6704 13.015 14.088 12.7917 14.5426 12.7013C14.9973 12.6109 15.4685 12.6573 15.8968 12.8347C16.3251 13.0121 16.6911 13.3125 16.9487 13.6979C17.2062 14.0833 17.3436 14.5365 17.3436 15C17.3436 15.6216 17.0967 16.2178 16.6572 16.6573C16.2176 17.0968 15.6215 17.3438 14.9999 17.3438ZM24.069 18.8321C23.6463 19.8315 23.061 20.7541 22.337 21.5625C22.0884 21.8405 21.7395 22.0084 21.3671 22.0292C20.9947 22.0499 20.6293 21.9219 20.3513 21.6733C20.0732 21.4246 19.9054 21.0757 19.8846 20.7033C19.8639 20.3309 19.9919 19.9655 20.2405 19.6875C21.3955 18.3994 22.0342 16.7301 22.0342 15C22.0342 13.2699 21.3955 11.6007 20.2405 10.3125C19.9919 10.0345 19.8639 9.66912 19.8846 9.29672C19.9054 8.92432 20.0732 8.57542 20.3513 8.32678C20.6293 8.07814 20.9947 7.95012 21.3671 7.97089C21.7395 7.99166 22.0884 8.15951 22.337 8.43752C23.5802 9.82839 24.403 11.5436 24.7096 13.3838C25.0162 15.2239 24.7941 17.1132 24.069 18.8321ZM9.75927 19.6875C10.0079 19.9655 10.1359 20.3309 10.1152 20.7033C10.0944 21.0757 9.92654 21.4246 9.64853 21.6733C9.37051 21.9219 9.00512 22.0499 8.63272 22.0292C8.26032 22.0084 7.91142 21.8405 7.66278 21.5625C6.04711 19.7585 5.15373 17.4218 5.15373 15C5.15373 12.5782 6.04711 10.2416 7.66278 8.43752C7.91142 8.15951 8.26032 7.99166 8.63272 7.97089C9.00512 7.95012 9.37051 8.07814 9.64853 8.32678C9.92654 8.57542 10.0944 8.92432 10.1152 9.29672C10.1359 9.66912 10.0079 10.0345 9.75927 10.3125C8.60432 11.6007 7.96559 13.2699 7.96559 15C7.96559 16.7301 8.60432 18.3994 9.75927 19.6875ZM29.5311 15C29.5357 18.8034 28.0444 22.4561 25.3792 25.1696C25.2518 25.3087 25.0978 25.4208 24.9262 25.4992C24.7546 25.5776 24.569 25.6207 24.3804 25.6259C24.1918 25.6311 24.0041 25.5982 23.8285 25.5294C23.6528 25.4605 23.4928 25.357 23.358 25.225C23.2232 25.0931 23.1164 24.9353 23.0438 24.7612C22.9712 24.587 22.9344 24.4001 22.9356 24.2114C22.9367 24.0228 22.9759 23.8363 23.0506 23.6631C23.1253 23.4899 23.2342 23.3334 23.3706 23.2031C25.5211 21.0143 26.7261 18.0685 26.7261 15C26.7261 11.9315 25.5211 8.98572 23.3706 6.7969C23.1095 6.53054 22.965 6.17139 22.9687 5.79844C22.9724 5.42549 23.1242 5.0693 23.3905 4.80823C23.6569 4.54715 24.016 4.40258 24.389 4.40632C24.7619 4.41006 25.1181 4.56179 25.3792 4.82815C28.045 7.54216 29.5363 11.1958 29.5311 15ZM6.62919 23.2031C6.89026 23.4695 7.03483 23.8287 7.0311 24.2016C7.02736 24.5746 6.87562 24.9307 6.60927 25.1918C6.34291 25.4529 5.98375 25.5975 5.61081 25.5937C5.23786 25.59 4.88167 25.4383 4.6206 25.1719C1.95642 22.4574 0.463867 18.8058 0.463867 15.0024C0.463867 11.1989 1.95642 7.54733 4.6206 4.83284C4.88528 4.58692 5.23446 4.45231 5.59572 4.45692C5.95699 4.46153 6.30262 4.60501 6.56094 4.8576C6.81926 5.11019 6.97045 5.45252 6.98316 5.81359C6.99586 6.17466 6.86911 6.52677 6.62919 6.7969C4.47865 8.98572 3.27366 11.9315 3.27366 15C3.27366 18.0685 4.47865 21.0143 6.62919 23.2031Z" fill="black"/>
</svg>
