<svg width="150" height="44" viewBox="0 0 150 44" fill="none" xmlns="http://www.w3.org/2000/svg">
<g clip-path="url(#clip0_49_3451)">
<path d="M16.2453 7.03906V19.032H5.22736V7.03906H0V35.6678H5.22877V24.0641H16.2439V35.6678H21.4741V7.03906H16.2453ZM38.2104 26.4145C38.2104 27.562 37.7545 28.6625 36.9431 29.4739C36.1317 30.2853 35.0312 30.7412 33.8837 30.7412C32.7362 30.7412 31.6357 30.2853 30.8243 29.4739C30.0129 28.6625 29.5571 27.562 29.5571 26.4145V14.1513H24.5972V26.4145C24.5972 28.875 25.5746 31.2348 27.3144 32.9746C29.0543 34.7145 31.414 35.6919 33.8745 35.6919C36.335 35.6919 38.6948 34.7145 40.4346 32.9746C42.1745 31.2348 43.1519 28.875 43.1519 26.4145V14.1513H38.2104V26.4145ZM74.9618 15.415C74.9618 12.9004 76.6245 12.1037 78.4458 12.1037C79.9146 12.1037 81.8533 13.2216 83.1226 14.5773L86.3703 10.748C84.7486 8.55463 81.4599 7.03906 78.767 7.03906C73.3854 7.03906 69.4939 10.1905 69.4939 15.415C69.4939 25.1084 81.341 22.032 81.341 27.4575C81.341 29.1301 79.7165 30.6075 77.8571 30.6075C74.9236 30.6075 73.9726 29.174 72.6255 27.657L69.0198 31.4056C71.3264 34.2358 74.1708 35.6735 77.5769 35.6735C82.6896 35.6735 86.8019 32.4839 86.8019 27.4971C86.8019 16.7367 74.9533 20.0806 74.9533 15.415M148.255 31.0943C145.325 31.0943 144.491 29.8263 144.491 27.8848V19.2881H149.048V14.9325H144.491V9.18576L139.462 11.4428V28.9532C139.462 33.432 142.552 35.6891 146.789 35.6891C147.454 35.7004 148.119 35.6466 148.773 35.5306L150 31.0136C149.447 31.0518 148.811 31.09 148.255 31.09M57.0906 14.2943C54.634 14.2943 52.9189 15.0075 51.2604 16.6334V7.21029H46.2934V24.6768C46.2934 31.2145 51.0198 35.6947 56.3321 35.6947C62.2245 35.6947 67.408 31.1353 67.408 24.9966C67.408 18.9343 62.6377 14.2985 57.0906 14.2985M57.0594 30.6952C56.3192 30.6952 55.5862 30.5494 54.9022 30.2661C54.2183 29.9828 53.5969 29.5676 53.0735 29.0441C52.55 28.5207 52.1348 27.8993 51.8515 27.2154C51.5682 26.5315 51.4224 25.7984 51.4224 25.0582C51.4224 24.3179 51.5682 23.5849 51.8515 22.901C52.1348 22.2171 52.55 21.5956 53.0735 21.0722C53.5969 20.5487 54.2183 20.1335 54.9022 19.8502C55.5862 19.5669 56.3192 19.4211 57.0594 19.4211C58.5545 19.4211 59.9883 20.015 61.0454 21.0722C62.1026 22.1293 62.6965 23.5631 62.6965 25.0582C62.6965 26.5532 62.1026 27.987 61.0454 29.0441C59.9883 30.1013 58.5545 30.6952 57.0594 30.6952ZM111.034 24.7362C111.034 18.5862 105.862 14.0381 99.958 14.0381C94.6472 14.0381 89.9193 18.5169 89.9193 25.056V42.5325H94.8863V33.0966C96.542 34.7197 98.2599 35.4358 100.714 35.4358C106.261 35.4358 111.034 30.7999 111.034 24.7362ZM106.33 24.674C106.33 26.169 105.736 27.6028 104.679 28.66C103.622 29.7171 102.188 30.311 100.693 30.311C99.1981 30.311 97.7643 29.7171 96.7072 28.66C95.65 27.6028 95.0561 26.169 95.0561 24.674C95.0561 23.1789 95.65 21.7451 96.7072 20.688C97.7643 19.6308 99.1981 19.0369 100.693 19.0369C102.188 19.0369 103.622 19.6308 104.679 20.688C105.736 21.7451 106.33 23.1789 106.33 24.674Z" fill="#33475B"/>
<path d="M127.084 13.7971V8.80603C127.744 8.49778 128.302 8.00854 128.695 7.39527C129.087 6.78199 129.297 6.0699 129.3 5.34188V5.22726C129.3 3.10462 127.58 1.38386 125.457 1.38386H125.342C124.323 1.38386 123.345 1.78879 122.625 2.50957C121.904 3.23034 121.499 4.20793 121.499 5.22726V5.34188C121.502 6.0699 121.712 6.78199 122.105 7.39527C122.497 8.00854 123.055 8.49778 123.715 8.80603V13.7971C121.819 14.0873 120.034 14.8733 118.54 16.0754L104.852 5.41405C104.949 5.06169 105 4.69943 105.006 4.33575C105.008 3.4792 104.755 2.64139 104.281 1.9283C103.806 1.21522 103.131 0.658882 102.34 0.329673C101.549 0.000463581 100.679 -0.0868306 99.8384 0.0788324C98.998 0.244495 98.2257 0.655673 97.619 1.26035C97.0123 1.86504 96.5986 2.63606 96.4302 3.47589C96.2618 4.31572 96.3463 5.18663 96.6729 5.97846C96.9995 6.77029 97.5536 7.44747 98.2652 7.92433C98.9767 8.4012 99.8137 8.65632 100.67 8.65745C101.42 8.65392 102.155 8.45386 102.803 8.07726L116.282 18.5659C115.071 20.3952 114.439 22.5468 114.469 24.7403C114.499 26.9338 115.188 29.0674 116.449 30.8631L112.349 34.964C112.018 34.8581 111.672 34.8018 111.324 34.7971C110.621 34.7976 109.934 35.0066 109.35 35.3976C108.765 35.7885 108.31 36.344 108.041 36.9936C107.773 37.6433 107.702 38.3581 107.84 39.0477C107.977 39.7372 108.316 40.3706 108.813 40.8678C109.31 41.3649 109.943 41.7036 110.633 41.8409C111.322 41.9782 112.037 41.908 112.687 41.6392C113.337 41.3704 113.892 40.915 114.283 40.3306C114.674 39.7463 114.883 39.0591 114.883 38.356C114.879 38.0081 114.823 37.6628 114.716 37.3315L118.772 33.2744C120.095 34.2926 121.633 34.9945 123.268 35.3265C124.904 35.6584 126.594 35.6115 128.209 35.1895C129.824 34.7674 131.32 33.9813 132.584 32.8914C133.849 31.8015 134.846 30.4367 135.501 28.9016C136.157 27.3665 136.452 25.7018 136.364 24.035C136.276 22.3683 135.808 20.7437 134.996 19.2857C134.184 17.8278 133.048 16.5751 131.677 15.6238C130.305 14.6724 128.735 14.0475 127.084 13.7971ZM125.403 30.2122C124.654 30.2328 123.908 30.103 123.209 29.8304C122.511 29.5578 121.874 29.148 121.336 28.6251C120.799 28.1022 120.372 27.477 120.08 26.7862C119.788 26.0955 119.638 25.3533 119.638 24.6034C119.638 23.8536 119.788 23.1114 120.08 22.4207C120.372 21.7299 120.799 21.1046 121.336 20.5818C121.874 20.0589 122.511 19.6491 123.209 19.3765C123.908 19.1039 124.654 18.9741 125.403 18.9947C126.856 19.0456 128.232 19.6583 129.242 20.7037C130.252 21.7491 130.817 23.1457 130.818 24.5993C130.818 26.0529 130.255 27.45 129.246 28.4965C128.237 29.5429 126.862 30.157 125.409 30.2093" fill="#FF7A59"/>
</g>
<defs>
<clipPath id="clip0_49_3451">
<rect width="150" height="43.8679" fill="white"/>
</clipPath>
</defs>
</svg>
