<svg width="126" height="60" viewBox="0 0 126 60" fill="none" xmlns="http://www.w3.org/2000/svg">
<path fill-rule="evenodd" clip-rule="evenodd" d="M111.35 30.5798C111.35 23.6764 108.015 18.2292 101.641 18.2292C95.2393 18.2292 91.3662 23.6764 91.3662 30.5259C91.3662 38.6427 95.9386 42.7416 102.501 42.7416C105.702 42.7416 108.123 42.0135 109.951 40.9888V35.5955C108.123 36.5124 106.025 37.0787 103.362 37.0787C100.753 37.0787 98.4399 36.1618 98.144 32.9798H111.296C111.296 32.6292 111.35 31.227 111.35 30.5798ZM98.0634 28.018C98.0634 24.9708 99.9192 23.7034 101.614 23.7034C103.254 23.7034 105.003 24.9708 105.003 28.018H98.0634Z" fill="#0A2540"/>
<path fill-rule="evenodd" clip-rule="evenodd" d="M80.9847 18.2292C78.3489 18.2292 76.6545 19.4697 75.7131 20.3326L75.3634 18.6607H69.4463V50.1034L76.1703 48.6742L76.1972 41.0427C77.1655 41.7439 78.591 42.7416 80.9579 42.7416C85.7723 42.7416 90.1563 38.8585 90.1563 30.3101C90.1295 22.4899 85.6916 18.2292 80.9847 18.2292ZM79.371 36.809C77.7841 36.809 76.8427 36.2427 76.1972 35.5416L76.1703 25.5371C76.8696 24.7551 77.8379 24.2158 79.371 24.2158C81.8185 24.2158 83.513 26.9663 83.513 30.4989C83.513 34.1124 81.8454 36.809 79.371 36.809Z" fill="#0A2540"/>
<path fill-rule="evenodd" clip-rule="evenodd" d="M60.1934 16.6383L66.9443 15.1822V9.70801L60.1934 11.1372V16.6383Z" fill="#0A2540"/>
<path d="M66.9443 18.6877H60.1934V42.2832H66.9443V18.6877Z" fill="#0A2540"/>
<path fill-rule="evenodd" clip-rule="evenodd" d="M52.9587 20.6832L52.5283 18.6877H46.7188V42.2832H53.4428V26.2922C55.0297 24.2158 57.7193 24.5933 58.5531 24.8899V18.6877C57.6924 18.3641 54.5455 17.7708 52.9587 20.6832Z" fill="#0A2540"/>
<path fill-rule="evenodd" clip-rule="evenodd" d="M39.5105 12.8359L32.9478 14.2382L32.9209 35.8382C32.9209 39.8292 35.9064 42.7685 39.887 42.7685C42.0925 42.7685 43.7063 42.364 44.5938 41.8786V36.4045C43.7332 36.755 39.4836 37.9955 39.4836 34.0045V24.4314H44.5938V18.6876H39.4836L39.5105 12.8359Z" fill="#0A2540"/>
<path fill-rule="evenodd" clip-rule="evenodd" d="M21.3291 25.5371C21.3291 24.4854 22.1898 24.0809 23.6153 24.0809C25.6594 24.0809 28.2415 24.7012 30.2856 25.8068V19.4697C28.0532 18.5798 25.8477 18.2292 23.6153 18.2292C18.1554 18.2292 14.5244 21.0877 14.5244 25.8607C14.5244 33.3034 24.745 32.1169 24.745 35.3259C24.745 36.5663 23.6691 36.9708 22.1629 36.9708C19.9305 36.9708 17.0796 36.054 14.8203 34.8135V41.2315C17.3216 42.3101 19.8499 42.7686 22.1629 42.7686C27.7573 42.7686 31.6035 39.991 31.6035 35.1641C31.5766 27.1281 21.3291 28.5573 21.3291 25.5371Z" fill="#0A2540"/>
</svg>
