<svg width="80" height="80" viewBox="0 0 80 80" fill="none" xmlns="http://www.w3.org/2000/svg">
<g filter="url(#filter0_dddd_0_226)">
<circle cx="40" cy="40" r="40" fill="#B9BBBB"/>
</g>
<path d="M40 0C49.5241 1.13574e-07 58.7357 3.39834 65.9779 9.58376C73.2201 15.7692 78.0176 24.3358 79.5075 33.7426C80.9974 43.1495 79.0819 52.7793 74.1056 60.8999C69.1293 69.0206 61.4187 75.0992 52.3607 78.0423C43.3027 80.9854 33.4918 80.5999 24.6927 76.9552C15.8935 73.3104 8.68359 66.6457 4.35973 58.1596C0.0358735 49.6735 -1.11816 39.9231 1.10521 30.6622C3.32857 21.4012 8.78342 13.2374 16.4886 7.63931L40 40V0Z" fill="#609C8F"/>
<circle cx="40" cy="40" r="34" fill="white"/>
<defs>
<filter id="filter0_dddd_0_226" x="-10" y="-1" width="100" height="116" filterUnits="userSpaceOnUse" color-interpolation-filters="sRGB">
<feFlood flood-opacity="0" result="BackgroundImageFix"/>
<feColorMatrix in="SourceAlpha" type="matrix" values="0 0 0 0 0 0 0 0 0 0 0 0 0 0 0 0 0 0 127 0" result="hardAlpha"/>
<feOffset dy="2"/>
<feGaussianBlur stdDeviation="1.5"/>
<feColorMatrix type="matrix" values="0 0 0 0 0 0 0 0 0 0 0 0 0 0 0 0 0 0 0.1 0"/>
<feBlend mode="normal" in2="BackgroundImageFix" result="effect1_dropShadow_0_226"/>
<feColorMatrix in="SourceAlpha" type="matrix" values="0 0 0 0 0 0 0 0 0 0 0 0 0 0 0 0 0 0 127 0" result="hardAlpha"/>
<feOffset dy="6"/>
<feGaussianBlur stdDeviation="3"/>
<feColorMatrix type="matrix" values="0 0 0 0 0 0 0 0 0 0 0 0 0 0 0 0 0 0 0.09 0"/>
<feBlend mode="normal" in2="effect1_dropShadow_0_226" result="effect2_dropShadow_0_226"/>
<feColorMatrix in="SourceAlpha" type="matrix" values="0 0 0 0 0 0 0 0 0 0 0 0 0 0 0 0 0 0 127 0" result="hardAlpha"/>
<feOffset dy="14"/>
<feGaussianBlur stdDeviation="4"/>
<feColorMatrix type="matrix" values="0 0 0 0 0 0 0 0 0 0 0 0 0 0 0 0 0 0 0.05 0"/>
<feBlend mode="normal" in2="effect2_dropShadow_0_226" result="effect3_dropShadow_0_226"/>
<feColorMatrix in="SourceAlpha" type="matrix" values="0 0 0 0 0 0 0 0 0 0 0 0 0 0 0 0 0 0 127 0" result="hardAlpha"/>
<feOffset dy="25"/>
<feGaussianBlur stdDeviation="5"/>
<feColorMatrix type="matrix" values="0 0 0 0 0 0 0 0 0 0 0 0 0 0 0 0 0 0 0.01 0"/>
<feBlend mode="normal" in2="effect3_dropShadow_0_226" result="effect4_dropShadow_0_226"/>
<feBlend mode="normal" in="SourceGraphic" in2="effect4_dropShadow_0_226" result="shape"/>
</filter>
</defs>
</svg>
