<svg width="32" height="32" viewBox="0 0 32 32" fill="none" xmlns="http://www.w3.org/2000/svg">
<path d="M19.2313 24.864H12.7686V29.6628H19.2313V24.864Z" stroke="black" stroke-width="2.5" stroke-miterlimit="10" stroke-linecap="round" stroke-linejoin="round"/>
<path d="M7.98145 29.6628H24.0187" stroke="black" stroke-width="2.5" stroke-miterlimit="10" stroke-linecap="round" stroke-linejoin="round"/>
<path d="M30.75 14.7992V6.08716C30.75 4.0161 29.0711 2.33716 27 2.33716H5C2.92894 2.33716 1.25 4.0161 1.25 6.08716V21.1142C1.25 23.1852 2.92894 24.8642 5 24.8642H27C29.0711 24.8642 30.75 23.1852 30.75 21.1142V21.0493" stroke="black" stroke-width="2.5" stroke-miterlimit="10" stroke-linecap="round" stroke-linejoin="round"/>
<path d="M6.32617 12.0258L8.55698 6.16864C8.60255 6.0572 8.76036 6.05702 8.80617 6.16839L11.0167 12.0259" stroke="black" stroke-width="2.5" stroke-miterlimit="10" stroke-linecap="round" stroke-linejoin="round"/>
<path d="M6.85156 11.3892H10.6159" stroke="black" stroke-width="2.5" stroke-miterlimit="10" stroke-linecap="round" stroke-linejoin="round"/>
<path d="M14.5977 6.26685V11.9324" stroke="black" stroke-width="2.5" stroke-miterlimit="10" stroke-linecap="round" stroke-linejoin="round"/>
<path d="M18.5586 9.14337C18.5586 10.7319 17.677 11.9888 16.2782 12.0132C15.8126 12.0214 14.6093 12.0259 14.6093 12.0259C14.6093 12.0259 14.6018 9.93768 14.6018 9.13699C14.6018 8.47937 14.5977 6.26074 14.5977 6.26074C14.5977 6.26074 15.6802 6.26074 16.2305 6.26074C17.7646 6.26074 18.5586 7.55487 18.5586 9.14337Z" stroke="black" stroke-width="2.5" stroke-miterlimit="10" stroke-linecap="round" stroke-linejoin="round"/>
<path d="M25.478 6.69566C25.478 6.69566 24.4119 5.7996 23.1548 6.17829C22.0006 6.52598 21.8391 7.85698 22.6742 8.40141C22.6742 8.40141 23.4937 8.76698 24.4025 9.10223C26.5903 9.90923 25.6479 12.0259 23.8867 12.0259C23.0047 12.0259 22.2644 11.6396 21.8164 11.1452" stroke="black" stroke-width="2.5" stroke-miterlimit="10" stroke-linecap="round" stroke-linejoin="round"/>
<path d="M6.32617 15.9807H25.6739" stroke="black" stroke-width="2.5" stroke-miterlimit="10" stroke-linecap="round" stroke-linejoin="round"/>
<path d="M25.6739 24.8642H6.32617V22.2346C6.32617 20.9958 7.33048 19.9915 8.56936 19.9915H23.4307C24.6696 19.9915 25.6739 20.9958 25.6739 22.2346V24.8642Z" stroke="black" stroke-width="2.5" stroke-miterlimit="10" stroke-linecap="round" stroke-linejoin="round"/>
</svg>
