<svg width="24" height="24" viewBox="0 0 24 24" fill="none" xmlns="http://www.w3.org/2000/svg">
<path d="M20.0839 3.10645H18.019V2.73145C18.019 2.43308 17.8885 2.14693 17.6561 1.93595C17.4238 1.72497 17.1086 1.60645 16.7801 1.60645C16.4515 1.60645 16.1364 1.72497 15.904 1.93595C15.6717 2.14693 15.5411 2.43308 15.5411 2.73145V3.10645H8.10759V2.73145C8.10759 2.43308 7.97707 2.14693 7.74472 1.93595C7.51238 1.72497 7.19725 1.60645 6.86867 1.60645C6.54009 1.60645 6.22496 1.72497 5.99262 1.93595C5.76028 2.14693 5.62975 2.43308 5.62975 2.73145V3.10645H3.56487C3.01723 3.10645 2.49203 3.30399 2.10479 3.65562C1.71755 4.00725 1.5 4.48416 1.5 4.98145V19.9814C1.5 20.4787 1.71755 20.9556 2.10479 21.3073C2.49203 21.6589 3.01723 21.8564 3.56487 21.8564H20.0839C20.6315 21.8564 21.1567 21.6589 21.5439 21.3073C21.9312 20.9556 22.1487 20.4787 22.1487 19.9814V4.98145C22.1487 4.48416 21.9312 4.00725 21.5439 3.65562C21.1567 3.30399 20.6315 3.10645 20.0839 3.10645ZM5.62975 5.35645C5.62975 5.65481 5.76028 5.94096 5.99262 6.15194C6.22496 6.36292 6.54009 6.48145 6.86867 6.48145C7.19725 6.48145 7.51238 6.36292 7.74472 6.15194C7.97707 5.94096 8.10759 5.65481 8.10759 5.35645H15.5411C15.5411 5.65481 15.6717 5.94096 15.904 6.15194C16.1364 6.36292 16.4515 6.48145 16.7801 6.48145C17.1086 6.48145 17.4238 6.36292 17.6561 6.15194C17.8885 5.94096 18.019 5.65481 18.019 5.35645H19.6709V7.60645H3.97785V5.35645H5.62975ZM3.97785 19.6064V9.85645H19.6709V19.6064H3.97785Z" fill="black"/>
</svg>
