<svg width="192" height="60" viewBox="0 0 192 60" fill="none" xmlns="http://www.w3.org/2000/svg">
<path d="M100.924 15.0751C100.924 17.2372 99.1894 18.979 97.0358 18.979C94.8822 18.979 93.1474 17.2372 93.1474 15.0751C93.1474 12.9129 94.8224 11.1712 97.0358 11.1712C99.2492 11.2312 100.924 12.973 100.924 15.0751ZM84.892 22.9429C84.892 23.3033 84.892 23.9039 84.892 23.9039C84.892 23.9039 83.0375 21.5015 79.0893 21.5015C72.5687 21.5015 67.4839 26.4865 67.4839 33.3934C67.4839 40.2402 72.5089 45.2853 79.0893 45.2853C83.0974 45.2853 84.892 42.8228 84.892 42.8228V43.8438C84.892 44.3243 85.251 44.6847 85.7295 44.6847H90.5751V22.1021C90.5751 22.1021 86.1483 22.1021 85.7295 22.1021C85.251 22.1021 84.892 22.5225 84.892 22.9429ZM84.892 37.4174C83.9947 38.7387 82.2 39.8799 80.0465 39.8799C76.2179 39.8799 73.2866 37.4775 73.2866 33.3934C73.2866 29.3093 76.2179 26.9069 80.0465 26.9069C82.1402 26.9069 84.0545 28.1081 84.892 29.3694V37.4174ZM94.1644 22.1021H99.9073V44.6847H94.1644V22.1021ZM179.949 21.5015C176.001 21.5015 174.146 23.9039 174.146 23.9039V11.2312H168.403V44.6847C168.403 44.6847 172.83 44.6847 173.249 44.6847C173.727 44.6847 174.086 44.2643 174.086 43.8438V42.8228C174.086 42.8228 175.941 45.2853 179.889 45.2853C186.41 45.2853 191.494 40.2402 191.494 33.3934C191.494 26.5465 186.409 21.5015 179.949 21.5015ZM178.992 39.8198C176.778 39.8198 175.043 38.6787 174.146 37.3574V29.3093C175.043 28.1081 176.958 26.8468 178.992 26.8468C182.82 26.8468 185.751 29.2492 185.751 33.3333C185.751 37.4174 182.82 39.8198 178.992 39.8198ZM165.412 31.2913V44.7447H159.669V31.952C159.669 28.2282 158.473 26.7267 155.242 26.7267C153.508 26.7267 151.713 27.6276 150.576 28.9489V44.6847H144.833V22.1021H149.38C149.858 22.1021 150.217 22.5225 150.217 22.9429V23.9039C151.892 22.1622 154.106 21.5015 156.319 21.5015C158.832 21.5015 160.925 22.2222 162.6 23.6637C164.634 25.3453 165.412 27.5075 165.412 31.2913ZM130.895 21.5015C126.947 21.5015 125.092 23.9039 125.092 23.9039V11.2312H119.349V44.6847C119.349 44.6847 123.776 44.6847 124.195 44.6847C124.673 44.6847 125.032 44.2643 125.032 43.8438V42.8228C125.032 42.8228 126.887 45.2853 130.835 45.2853C137.356 45.2853 142.441 40.2402 142.441 33.3934C142.5 26.5465 137.415 21.5015 130.895 21.5015ZM129.938 39.8198C127.724 39.8198 125.99 38.6787 125.092 37.3574V29.3093C125.99 28.1081 127.904 26.8468 129.938 26.8468C133.766 26.8468 136.698 29.2492 136.698 33.3333C136.698 37.4174 133.766 39.8198 129.938 39.8198ZM114.384 21.5015C116.119 21.5015 117.016 21.8018 117.016 21.8018V27.1471C117.016 27.1471 112.231 25.5255 109.239 28.9489V44.7447H103.497V22.1021C103.497 22.1021 107.923 22.1021 108.342 22.1021C108.821 22.1021 109.18 22.5225 109.18 22.9429V23.9039C110.256 22.6426 112.589 21.5015 114.384 21.5015ZM54.7419 42.6426C54.4428 41.9219 54.1437 41.1411 53.8445 40.4805C53.366 39.3994 52.8874 38.3784 52.4686 37.4174L52.4088 37.3574C48.2811 28.3483 43.8543 19.2192 39.1882 10.2102L39.0088 9.84985C38.5302 8.94895 38.0516 7.98799 37.573 7.02703C36.9748 5.94595 36.3766 4.8048 35.4195 3.72372C33.5052 1.32132 30.7534 0 27.8221 0C24.831 0 22.139 1.32132 20.1649 3.6036C19.2676 4.68468 18.6095 5.82583 18.0113 6.90691C17.5328 7.86787 17.0542 8.82883 16.5756 9.72973L16.3961 10.0901C11.7899 19.0991 7.30324 28.2282 3.17554 37.2372L3.11572 37.3574C2.69696 38.3183 2.21839 39.3393 1.73982 40.4204C1.44071 41.0811 1.1416 41.8018 0.842489 42.5826C0.0648069 44.8048 -0.17448 46.9069 0.124629 49.0691C0.782668 53.5736 3.77375 57.3574 7.90145 59.039C9.45682 59.6997 11.072 60 12.747 60C13.2256 60 13.8238 59.9399 14.3024 59.8799C16.2765 59.6396 18.3104 58.979 20.2846 57.8378C22.7372 56.4565 25.0703 54.4745 27.7024 51.5916C30.3346 54.4745 32.7275 56.4565 35.1203 57.8378C37.0945 58.979 39.1284 59.6396 41.1025 59.8799C41.5811 59.9399 42.1793 60 42.6579 60C44.3329 60 46.0079 59.6997 47.5034 59.039C51.691 57.3574 54.6222 53.5135 55.2803 49.0691C55.7588 46.967 55.5196 44.8649 54.7419 42.6426ZM27.7623 45.7658C24.5319 41.6817 22.4381 37.8378 21.7203 34.5946C21.4212 33.2132 21.3613 32.012 21.5408 30.9309C21.6605 29.97 22.0194 29.1291 22.498 28.4084C23.6346 26.7868 25.5489 25.7658 27.7623 25.7658C29.9757 25.7658 31.9498 26.7267 33.0266 28.4084C33.5052 29.1291 33.8641 29.97 33.9837 30.9309C34.1632 32.012 34.1034 33.2733 33.8043 34.5946C33.0864 37.7778 30.9926 41.6216 27.7623 45.7658ZM51.6311 48.5886C51.2124 51.7117 49.1186 54.4144 46.1874 55.6156C44.7516 56.2162 43.1963 56.3964 41.6409 56.2162C40.1454 56.036 38.6498 55.5556 37.0945 54.6547C34.9409 53.4535 32.7873 51.5916 30.2748 48.8288C34.223 43.964 36.6159 39.5195 37.5132 35.5556C37.932 33.6937 37.9918 32.012 37.8123 30.4505C37.573 28.9489 37.0346 27.5676 36.1971 26.3664C34.3427 23.6637 31.2319 22.1021 27.7623 22.1021C24.2926 22.1021 21.1819 23.7237 19.3274 26.3664C18.4899 27.5676 17.9515 28.9489 17.7122 30.4505C17.4729 32.012 17.5328 33.7538 18.0113 35.5556C18.9087 39.5195 21.3613 44.024 25.2498 48.8889C22.7971 51.6517 20.5837 53.5135 18.4301 54.7147C16.8747 55.6156 15.3792 56.0961 13.8836 56.2763C12.2684 56.4565 10.7131 56.2162 9.33718 55.6757C6.40591 54.4745 4.31215 51.7718 3.8934 48.6486C3.71393 47.1471 3.83358 45.6456 4.43179 43.964C4.61126 43.3634 4.91037 42.7628 5.20948 42.042C5.62823 41.0811 6.1068 40.0601 6.58538 39.039L6.6452 38.9189C10.7729 29.97 15.1997 20.8408 19.806 11.952L19.9854 11.5916C20.464 10.6907 20.9426 9.72973 21.4212 8.82883C21.8997 7.86787 22.4381 6.96697 23.0962 6.18619C24.3524 4.74474 26.0274 3.96396 27.8819 3.96396C29.7364 3.96396 31.4114 4.74474 32.6677 6.18619C33.3257 6.96697 33.8641 7.86787 34.3427 8.82883C34.8212 9.72973 35.2998 10.6907 35.7784 11.5916L35.9578 11.952C40.5043 20.9009 44.9311 30.03 49.0588 38.979V39.039C49.5374 40 49.9561 41.0811 50.4347 42.042C50.7338 42.7628 51.0329 43.3634 51.2124 43.964C51.691 45.5255 51.8704 47.027 51.6311 48.5886Z" fill="#FF385C"/>
</svg>
