<svg width="40" height="40" viewBox="0 0 40 40" fill="none" xmlns="http://www.w3.org/2000/svg">
<path d="M37.4331 10.0003C36.1497 10.5837 34.7664 10.967 33.3331 11.1503C34.7997 10.267 35.9331 8.86699 36.4664 7.18366C35.0831 8.01699 33.5497 8.60033 31.9331 8.93366C30.6164 7.50033 28.7664 6.66699 26.6664 6.66699C22.7497 6.66699 19.5497 9.86699 19.5497 13.817C19.5497 14.3837 19.6164 14.9337 19.7331 15.4503C13.7997 15.1503 8.51641 12.3003 4.99974 7.98366C4.38307 9.03366 4.03307 10.267 4.03307 11.567C4.03307 14.0503 5.28307 16.2503 7.21641 17.5003C6.03307 17.5003 4.93307 17.167 3.96641 16.667V16.717C3.96641 20.1837 6.43307 23.0837 9.69974 23.7337C8.65095 24.0207 7.5499 24.0606 6.48307 23.8503C6.93575 25.2711 7.8223 26.5143 9.0181 27.4052C10.2139 28.2961 11.6588 28.7898 13.1497 28.817C10.6225 30.8177 7.48973 31.8992 4.26641 31.8837C3.69974 31.8837 3.13307 31.8503 2.56641 31.7837C5.73307 33.817 9.49974 35.0003 13.5331 35.0003C26.6664 35.0003 33.8831 24.1003 33.8831 14.6503C33.8831 14.3337 33.8831 14.0337 33.8664 13.717C35.2664 12.717 36.4664 11.4503 37.4331 10.0003Z" fill="black"/>
</svg>
