<svg width="11" height="11" viewBox="0 0 11 11" fill="none" xmlns="http://www.w3.org/2000/svg">
<path d="M9.96745 11C9.78874 11 9.64369 10.861 9.64369 10.6897V5.36486C9.64369 3.45254 8.02058 1.89652 6.0258 1.89652H0.323759C0.145044 1.89652 0 1.75748 0 1.58615C0 1.41482 0.145044 1.27577 0.323759 1.27577H6.02537C8.37715 1.27577 10.2908 3.10988 10.2908 5.36486V10.6897C10.2912 10.861 10.1462 11 9.96745 11Z" fill="#379769"/>
<path d="M1.61826 3.19097C1.53495 3.19097 1.45163 3.16034 1.38861 3.0991L0.12077 1.87498C-0.0389511 1.72062 -0.0389511 1.46984 0.12077 1.31589L1.38861 0.0917699C1.51466 -0.0298971 1.71971 -0.0307248 1.84662 0.0901146C1.97353 0.210954 1.9744 0.407525 1.84835 0.529192L0.744113 1.59564L1.84835 2.66209C1.9744 2.78376 1.97353 2.98033 1.84662 3.10117C1.78316 3.16076 1.70071 3.19097 1.61826 3.19097Z" fill="#379769"/>
</svg>
