<svg width="30" height="30" viewBox="0 0 30 30" fill="none" xmlns="http://www.w3.org/2000/svg">
<path d="M25.3125 8.90625H22.0312V5.625C22.0312 5.0034 21.7843 4.40726 21.3448 3.96772C20.9052 3.52818 20.3091 3.28125 19.6875 3.28125H4.6875C4.0659 3.28125 3.46976 3.52818 3.03022 3.96772C2.59068 4.40726 2.34375 5.0034 2.34375 5.625V20.625C2.34387 20.8904 2.41908 21.1503 2.56071 21.3748C2.70233 21.5992 2.90458 21.779 3.14407 21.8934C3.38356 22.0077 3.65053 22.052 3.91411 22.021C4.17769 21.99 4.42713 21.8851 4.63359 21.7184L7.96875 19.023V21.5625C7.96875 22.1841 8.21568 22.7802 8.65522 23.2198C9.09476 23.6593 9.6909 23.9062 10.3125 23.9062H21.1137L25.3664 27.3434C25.5729 27.5101 25.8223 27.615 26.0859 27.646C26.3495 27.677 26.6164 27.6327 26.8559 27.5184C27.0954 27.404 27.2977 27.2242 27.4393 26.9998C27.5809 26.7753 27.6561 26.5154 27.6562 26.25V11.25C27.6562 10.6284 27.4093 10.0323 26.9698 9.59272C26.5302 9.15318 25.9341 8.90625 25.3125 8.90625ZM5.15625 17.6801V6.09375H19.2188V15.4688H8.38828C8.06503 15.4679 7.75133 15.5783 7.5 15.7816L5.15625 17.6801ZM24.8438 23.3051L22.5 21.4066C22.2499 21.2044 21.9381 21.0939 21.6164 21.0938H10.7812V18.2812H19.6875C20.3091 18.2812 20.9052 18.0343 21.3448 17.5948C21.7843 17.1552 22.0312 16.5591 22.0312 15.9375V11.7188H24.8438V23.3051Z" fill="black"/>
</svg>
