<svg width="1146" height="699" viewBox="0 0 1146 699" fill="none" xmlns="http://www.w3.org/2000/svg">
<path d="M1146 0H0V698.548H1146V0Z" fill="#282828"/>
<path opacity="0.1" d="M50.1415 351.626V46.3004H877.652L50.1415 351.626Z" fill="url(#paint0_linear_49_3218)"/>
<path d="M572.999 257.786C606.263 257.786 633.229 284.752 633.229 318.015C633.229 351.279 606.263 378.245 572.999 378.245C539.735 378.245 512.77 351.279 512.77 318.015C512.77 284.752 539.735 257.786 572.999 257.786ZM572.999 250.91C535.997 250.91 505.894 281.013 505.894 318.015C505.894 355.017 535.997 385.121 572.999 385.121C610.001 385.121 640.105 355.017 640.105 318.015C640.105 281.013 610.001 250.91 572.999 250.91Z" fill="#FFAF0A"/>
<path d="M602.499 322.481C604.095 321.56 605.077 319.858 605.077 318.015C605.077 316.173 604.095 314.471 602.499 313.55L560.536 289.322C558.94 288.401 556.975 288.401 555.379 289.322C553.783 290.243 552.8 291.946 552.8 293.788V342.243C552.8 344.085 553.783 345.788 555.379 346.709C556.975 347.63 558.94 347.63 560.536 346.709L602.499 322.481Z" fill="white"/>
<path d="M1047.72 660.81C1048.38 661.471 1048.38 662.543 1047.72 663.204L1044.33 666.59H1045.94C1046.88 666.59 1047.64 667.348 1047.64 668.284C1047.64 669.219 1046.88 669.976 1045.94 669.976H1040.24C1039.31 669.976 1038.55 669.218 1038.55 668.284V662.586C1038.55 661.651 1039.31 660.894 1040.24 660.894C1041.18 660.894 1041.94 661.652 1041.94 662.586V664.196L1045.33 660.809C1045.99 660.149 1047.06 660.149 1047.72 660.81ZM1058.99 647.842H1053.3C1052.36 647.842 1051.6 648.6 1051.6 649.536C1051.6 650.471 1052.36 651.229 1053.3 651.229H1054.91L1051.52 654.615C1050.86 655.276 1050.86 656.348 1051.52 657.009C1051.85 657.34 1052.28 657.505 1052.72 657.505C1053.15 657.505 1053.58 657.34 1053.91 657.009L1057.3 653.623V655.233C1057.3 656.168 1058.06 656.926 1058.99 656.926C1059.93 656.926 1060.69 656.167 1060.69 655.233V649.536C1060.69 648.6 1059.93 647.842 1058.99 647.842Z" fill="white"/>
<path d="M1002.13 659.384C1002.14 659.231 1002.15 659.075 1002.15 658.918C1002.15 658.762 1002.14 658.607 1002.13 658.453C1002.1 657.901 1002.33 657.365 1002.77 657.022L1004.08 655.982C1004.74 655.467 1004.91 654.55 1004.5 653.829L1003.98 652.931C1003.56 652.21 1002.68 651.904 1001.91 652.212L1000.35 652.833C999.836 653.035 999.257 652.976 998.799 652.673C998.537 652.499 998.264 652.342 997.98 652.202C997.486 651.958 997.144 651.485 997.064 650.94L996.821 649.276C996.701 648.453 995.995 647.842 995.163 647.842H994.126C993.294 647.842 992.588 648.453 992.468 649.276L992.225 650.94C992.145 651.485 991.802 651.958 991.308 652.202C991.025 652.342 990.752 652.499 990.489 652.673C990.031 652.976 989.453 653.035 988.943 652.833L987.382 652.212C986.609 651.904 985.727 652.211 985.311 652.931L984.793 653.829C984.377 654.55 984.552 655.466 985.205 655.982L986.521 657.022C986.955 657.364 987.193 657.901 987.155 658.453C987.144 658.607 987.139 658.761 987.139 658.918C987.139 659.075 987.145 659.23 987.155 659.384C987.193 659.937 986.956 660.472 986.521 660.815L985.205 661.855C984.553 662.37 984.377 663.287 984.793 664.008L985.311 664.906C985.727 665.627 986.609 665.933 987.382 665.625L988.943 665.004C989.453 664.801 990.032 664.861 990.489 665.164C990.751 665.338 991.025 665.495 991.308 665.635C991.803 665.879 992.145 666.351 992.225 666.897L992.468 668.561C992.588 669.384 993.294 669.995 994.126 669.995H995.163C995.995 669.995 996.701 669.384 996.821 668.561L997.064 666.896C997.144 666.351 997.487 665.879 997.98 665.635C998.264 665.494 998.538 665.337 998.8 665.164C999.258 664.86 999.836 664.801 1000.35 665.004L1001.91 665.624C1002.68 665.932 1003.56 665.625 1003.98 664.905L1004.5 664.007C1004.91 663.286 1004.74 662.37 1004.08 661.854L1002.77 660.814C1002.33 660.473 1002.1 659.936 1002.13 659.384ZM999.057 658.919C999.057 661.357 997.081 663.333 994.643 663.333C992.206 663.333 990.229 661.357 990.229 658.919C990.229 656.481 992.205 654.505 994.643 654.505C997.081 654.505 999.057 656.481 999.057 658.919Z" fill="white"/>
<path d="M947.985 662.252H886.909C885.39 662.252 884.158 661.02 884.158 659.501C884.158 657.982 885.39 656.751 886.909 656.751H947.985C949.504 656.751 950.736 657.982 950.736 659.501C950.736 661.02 949.504 662.252 947.985 662.252Z" fill="white"/>
<path d="M925.652 662.252H886.908C885.389 662.252 884.157 661.02 884.157 659.501C884.157 657.982 885.389 656.751 886.908 656.751H925.652V662.252Z" fill="#FFAF0A"/>
<path d="M864.424 650.383C864.424 649.529 863.968 648.739 863.229 648.313C862.489 647.886 861.577 647.886 860.838 648.313L855.04 652.777C854.679 653.055 854.237 653.205 853.782 653.205H848.53C847.391 653.205 846.467 654.129 846.467 655.268V662.712C846.467 663.851 847.391 664.775 848.53 664.775H853.782C854.237 664.775 854.68 664.926 855.04 665.203L860.838 669.667C861.577 670.094 862.489 670.094 863.229 669.667C863.968 669.24 864.424 668.451 864.424 667.596V650.383Z" fill="white"/>
<path d="M869.263 666C868.561 666 867.903 665.567 867.649 664.869C867.323 663.978 867.782 662.991 868.675 662.665C870.265 662.086 871.334 660.561 871.334 658.873C871.334 657.185 870.265 655.662 868.674 655.081C867.783 654.755 867.323 653.768 867.649 652.876C867.975 651.985 868.963 651.527 869.853 651.851C872.795 652.926 874.772 655.748 874.772 658.873C874.772 662 872.795 664.822 869.853 665.895C869.658 665.967 869.459 666 869.263 666Z" fill="white"/>
<path d="M803.443 647.977H796.628C795.489 647.977 794.565 648.877 794.565 649.987V667.85C794.565 668.961 795.489 669.861 796.628 669.861H803.443C808.511 669.861 812.635 665.842 812.635 660.902V656.937C812.635 651.996 808.512 647.977 803.443 647.977ZM803.443 651.865C806.312 651.865 808.646 654.14 808.646 656.937V660.902C808.646 663.698 806.312 665.973 803.443 665.973H798.553V651.865H803.443Z" fill="#FFAF0A"/>
<path d="M786.263 657.024H777.035V649.977C777.035 648.86 776.13 647.954 775.012 647.954C773.895 647.954 772.989 648.86 772.989 649.977V667.861C772.989 668.978 773.895 669.884 775.012 669.884C776.13 669.884 777.035 668.978 777.035 667.861V660.808H786.263V667.861C786.263 668.978 787.168 669.884 788.286 669.884C789.403 669.884 790.309 668.978 790.309 667.861V649.977C790.309 648.86 789.403 647.954 788.286 647.954C787.168 647.954 786.263 648.86 786.263 649.977V657.024Z" fill="#FFAF0A"/>
<path d="M293.745 665.881C293.745 666.509 293.186 667.005 292.539 666.9C292.031 666.817 291.679 666.341 291.679 665.826V654.242C290.989 654.702 289.986 654.972 288.67 655.053C288.2 655.081 287.799 654.704 287.799 654.232C287.799 653.809 288.126 653.457 288.548 653.42C290.359 653.262 291.506 652.502 291.987 651.14C292.116 650.776 292.453 650.528 292.839 650.528C293.339 650.528 293.745 650.933 293.745 651.433L293.745 665.881Z" fill="white"/>
<path d="M302.012 657.188C302.811 656.543 303.807 656.22 305.001 656.22C306.342 656.22 307.51 656.695 308.507 657.644C309.503 658.593 310.002 659.858 310.002 661.441C310.002 663.097 309.501 664.469 308.502 665.557C307.502 666.645 306.17 667.189 304.507 667.189C303.144 667.189 301.979 666.811 301.012 666.057C300.35 665.54 299.879 664.85 299.597 663.986C299.387 663.342 299.895 662.682 300.573 662.682H300.642C301.109 662.682 301.496 663.007 301.628 663.456C301.802 664.049 302.089 664.515 302.49 664.853C303.05 665.325 303.722 665.561 304.506 665.561C305.503 665.561 306.31 665.184 306.929 664.43C307.548 663.675 307.858 662.741 307.858 661.627C307.858 660.499 307.543 659.609 306.913 658.957C306.282 658.304 305.466 657.978 304.462 657.978C303.44 657.978 302.556 658.328 301.811 659.029C301.63 659.201 301.398 659.308 301.148 659.308H300.916C300.375 659.308 299.949 658.847 299.993 658.307L300.47 652.338C300.54 651.47 301.264 650.802 302.134 650.802H308.225C308.701 650.802 309.143 651.128 309.219 651.597C309.316 652.197 308.857 652.714 308.276 652.714H302.363L302.012 657.188Z" fill="white"/>
<path d="M315.72 656.38C315.72 657.003 315.215 657.507 314.593 657.507C313.971 657.507 313.467 657.003 313.467 656.38C313.467 655.758 313.971 655.254 314.593 655.254C315.215 655.254 315.72 655.758 315.72 656.38ZM315.72 665.788C315.72 666.41 315.215 666.914 314.593 666.914C313.971 666.914 313.467 666.41 313.467 665.788C313.467 665.166 313.971 664.661 314.593 664.661C315.215 664.661 315.72 665.166 315.72 665.788Z" fill="white"/>
<path d="M326.723 665.881C326.723 666.509 326.163 667.006 325.516 666.9C325.008 666.818 324.656 666.341 324.656 665.826V654.243C323.966 654.703 322.963 654.973 321.647 655.053C321.177 655.082 320.777 654.704 320.777 654.233C320.777 653.806 321.108 653.457 321.534 653.419C323.31 653.262 324.446 652.525 324.94 651.208C325.089 650.811 325.463 650.543 325.884 650.529C326.344 650.512 326.722 650.912 326.722 651.373L326.723 665.881Z" fill="white"/>
<path d="M337.617 650.528C341.119 650.528 342.87 653.312 342.87 658.881C342.87 664.42 341.119 667.189 337.617 667.189C334.122 667.189 332.374 664.42 332.374 658.881C332.374 653.312 334.122 650.528 337.617 650.528ZM335.308 664.09C335.836 665.072 336.605 665.563 337.617 665.563C338.635 665.563 339.408 665.072 339.935 664.09C340.463 663.108 340.727 661.372 340.727 658.881C340.727 656.383 340.463 654.637 339.935 653.645C339.408 652.652 338.635 652.155 337.617 652.155C336.605 652.155 335.836 652.652 335.308 653.645C334.781 654.638 334.517 656.383 334.517 658.881C334.517 661.372 334.781 663.108 335.308 664.09Z" fill="white"/>
<path d="M356.22 650.803C356.461 650.803 356.687 650.916 356.832 651.108C356.977 651.301 357.022 651.55 356.955 651.781L352.739 666.362C352.644 666.689 352.344 666.915 352.003 666.915C351.763 666.915 351.536 666.801 351.391 666.609C351.246 666.417 351.201 666.168 351.268 665.937L355.485 651.356C355.579 651.028 355.879 650.803 356.22 650.803Z" fill="white"/>
<path d="M375.816 662.156C375.816 662.66 375.407 663.068 374.904 663.068H373.64V665.876C373.64 666.45 373.174 666.915 372.601 666.915C372.027 666.915 371.562 666.45 371.562 665.876V663.068H366.074C365.305 663.068 364.682 662.445 364.682 661.676C364.682 661.394 364.767 661.119 364.927 660.887L371.695 651.056C371.894 650.767 372.222 650.594 372.573 650.594C373.162 650.594 373.64 651.071 373.64 651.66V661.244H374.904C375.407 661.244 375.816 661.652 375.816 662.156ZM371.563 661.244V653.858L366.617 661.244H371.563Z" fill="white"/>
<path d="M385.643 658.452C387.878 659.485 388.995 660.881 388.995 662.639C388.995 663.995 388.506 665.091 387.528 665.931C386.55 666.77 385.266 667.189 383.676 667.189C382.093 667.189 380.813 666.77 379.835 665.931C378.856 665.092 378.368 663.995 378.368 662.639C378.368 660.88 379.485 659.485 381.72 658.452C379.903 657.405 378.994 656.093 378.994 654.517C378.994 653.352 379.424 652.396 380.285 651.649C381.146 650.902 382.277 650.528 383.676 650.528C385.083 650.528 386.215 650.902 387.072 651.649C387.929 652.396 388.358 653.352 388.358 654.517C388.358 656.093 387.453 657.405 385.643 658.452ZM386.852 662.64C386.852 661.943 386.599 661.345 386.094 660.843C385.589 660.341 384.782 659.844 383.676 659.353C382.577 659.844 381.775 660.341 381.269 660.843C380.764 661.345 380.511 661.943 380.511 662.64C380.511 663.548 380.801 664.262 381.379 664.783C381.958 665.303 382.724 665.563 383.677 665.563C384.629 665.563 385.397 665.303 385.979 664.783C386.561 664.262 386.852 663.548 386.852 662.64ZM383.676 657.595C385.376 656.833 386.226 655.807 386.226 654.518C386.226 653.778 386.001 653.199 385.55 652.782C385.099 652.364 384.475 652.155 383.676 652.155C382.885 652.155 382.263 652.364 381.813 652.782C381.363 653.199 381.138 653.778 381.138 654.518C381.137 655.807 381.983 656.833 383.676 657.595Z" fill="white"/>
<path d="M394.756 656.38C394.756 657.003 394.252 657.507 393.629 657.507C393.007 657.507 392.503 657.003 392.503 656.38C392.503 655.758 393.007 655.254 393.629 655.254C394.252 655.254 394.756 655.758 394.756 656.38ZM394.756 665.788C394.756 666.41 394.252 666.914 393.629 666.914C393.007 666.914 392.503 666.41 392.503 665.788C392.503 665.166 393.007 664.661 393.629 664.661C394.252 664.661 394.756 665.166 394.756 665.788Z" fill="white"/>
<path d="M408.683 665.958C408.683 666.486 408.255 666.914 407.727 666.914H400.173C399.571 666.914 399.016 666.591 398.72 666.067C398.424 665.543 398.432 664.9 398.742 664.385C398.799 664.29 398.86 664.195 398.924 664.101C399.532 663.207 400.648 662.106 402.27 660.798C403.893 659.49 405.005 658.446 405.606 657.666C406.206 656.886 406.507 656.001 406.507 655.012C406.507 654.126 406.25 653.428 405.738 652.918C405.225 652.409 404.503 652.154 403.572 652.154C402.767 652.154 402.078 652.411 401.506 652.923C401.097 653.29 400.816 653.78 400.662 654.394C400.546 654.86 400.127 655.187 399.647 655.187C399.315 655.187 399.003 655.029 398.808 654.76C398.613 654.491 398.558 654.146 398.66 653.83C398.92 653.03 399.354 652.352 399.962 651.796C400.889 650.95 402.107 650.527 403.616 650.527C405.221 650.527 406.459 650.957 407.331 651.819C408.203 652.679 408.639 653.758 408.639 655.056C408.639 656.228 408.316 657.263 407.671 658.16C407.027 659.057 405.746 660.305 403.831 661.902C402.751 662.803 401.968 663.524 401.486 664.066C401.339 664.232 401.302 664.468 401.392 664.67C401.483 664.872 401.684 665.002 401.905 665.002H407.726C408.255 665.002 408.683 665.43 408.683 665.958Z" fill="white"/>
<path d="M416.654 650.528C420.156 650.528 421.907 653.312 421.907 658.881C421.907 664.42 420.156 667.189 416.654 667.189C413.159 667.189 411.411 664.42 411.411 658.881C411.411 653.312 413.159 650.528 416.654 650.528ZM416.654 665.563C417.672 665.563 418.445 665.072 418.973 664.09C419.5 663.108 419.764 661.372 419.764 658.881C419.764 656.383 419.5 654.637 418.973 653.645C418.445 652.652 417.672 652.155 416.654 652.155C415.642 652.155 414.873 652.652 414.346 653.645C413.818 654.638 413.554 656.383 413.554 658.881C413.554 661.372 413.818 663.109 414.346 664.09C414.873 665.072 415.643 665.563 416.654 665.563Z" fill="white"/>
<path d="M214.327 660.782C215.067 660.355 215.523 659.566 215.523 658.711C215.523 657.857 215.067 657.067 214.327 656.641L199.42 648.034C198.68 647.607 197.769 647.607 197.029 648.034C196.289 648.461 195.834 649.251 195.834 650.105V667.318C195.834 668.173 196.289 668.962 197.029 669.389C197.769 669.816 198.68 669.816 199.42 669.389L214.327 660.782Z" fill="white"/>
<path d="M220.082 669.709C221.341 669.709 222.361 668.688 222.361 667.43V649.991C222.361 648.733 221.341 647.712 220.082 647.712C218.824 647.712 217.804 648.732 217.804 649.991V667.43C217.804 668.689 218.823 669.709 220.082 669.709Z" fill="white"/>
<path d="M90.6708 656.775C89.9311 657.202 89.4749 657.992 89.4749 658.846C89.4749 659.701 89.9305 660.49 90.6708 660.917L105.578 669.524C106.318 669.951 107.229 669.951 107.969 669.524C108.709 669.097 109.164 668.308 109.164 667.453V650.24C109.164 649.385 108.709 648.596 107.969 648.169C107.229 647.742 106.318 647.742 105.578 648.169L90.6708 656.775Z" fill="white"/>
<path d="M84.9158 647.848C83.6575 647.848 82.637 648.868 82.637 650.127V667.565C82.637 668.824 83.6569 669.844 84.9158 669.844C86.1741 669.844 87.1946 668.824 87.1946 667.565V650.127C87.194 648.868 86.1741 647.848 84.9158 647.848Z" fill="white"/>
<path d="M163.899 660.782C164.639 660.355 165.094 659.566 165.094 658.711C165.094 657.857 164.639 657.067 163.899 656.641L148.992 648.034C148.252 647.607 147.341 647.607 146.601 648.034C145.861 648.461 145.405 649.251 145.405 650.105V667.318C145.405 668.173 145.861 668.962 146.601 669.389C147.341 669.816 148.252 669.816 148.992 669.389L163.899 660.782Z" fill="white"/>
<path d="M1089.72 622.278H53.5512C51.6528 622.278 50.1132 620.739 50.1132 618.84C50.1132 616.941 51.6528 615.402 53.5512 615.402H1089.72C1091.61 615.402 1093.15 616.941 1093.15 618.84C1093.15 620.739 1091.61 622.278 1089.72 622.278Z" fill="white"/>
<path d="M383.886 622.278H53.5512C51.6528 622.278 50.1132 620.739 50.1132 618.84C50.1132 616.941 51.6528 615.402 53.5512 615.402H383.886V622.278Z" fill="#FFAF0A"/>
<defs>
<linearGradient id="paint0_linear_49_3218" x1="404.525" y1="-54.5218" x2="507.867" y2="386.693" gradientUnits="userSpaceOnUse">
<stop stop-color="#222222"/>
<stop offset="0.166" stop-color="#555555"/>
<stop offset="0.3838" stop-color="#919191"/>
<stop offset="0.5841" stop-color="#C0C0C0"/>
<stop offset="0.76" stop-color="#E3E3E3"/>
<stop offset="0.9045" stop-color="#F7F7F7"/>
<stop offset="1" stop-color="white"/>
</linearGradient>
</defs>
</svg>
