<svg width="30" height="30" viewBox="0 0 30 30" fill="none" xmlns="http://www.w3.org/2000/svg">
<g clip-path="url(#clip0_0_116)">
<path d="M0.937524 1.96761H24.9052C25.423 1.96761 25.8427 2.38737 25.8427 2.90511V5.93598H29.0625C29.5803 5.93598 30 6.35575 30 6.87348V22.9678C30 23.4856 29.5803 23.9053 29.0625 23.9053H24.8348V27.0938C24.8348 27.4287 24.6561 27.7382 24.3661 27.9057C24.221 27.9894 24.0592 28.0313 23.8973 28.0313C23.7355 28.0313 23.5736 27.9894 23.4286 27.9057L16.4997 23.9053H5.09486C4.57707 23.9053 4.15736 23.4856 4.15736 22.9678V19.937H0.937524C0.41973 19.937 2.35766e-05 19.5172 2.35766e-05 18.9995V2.90511C2.35766e-05 2.38737 0.41973 1.96761 0.937524 1.96761ZM6.03236 22.0304H16.7509C16.9155 22.0304 17.0771 22.0737 17.2197 22.156L22.9598 25.4701V22.9679C22.9598 22.4502 23.3796 22.0304 23.8973 22.0304H28.125V7.81098H6.03236V22.0304ZM1.87502 18.062H4.15736V6.87348C4.15736 6.35575 4.57707 5.93598 5.09486 5.93598H23.9677V3.84261H1.87502V18.062ZM22.2701 14.8556C22.2701 14.3379 21.8504 13.9181 21.3326 13.9181H18.0161V10.6017C18.0161 10.0839 17.5964 9.66418 17.0786 9.66418C16.5608 9.66418 16.1411 10.0839 16.1411 10.6017V13.9181H12.8247C12.3069 13.9181 11.8872 14.3379 11.8872 14.8556C11.8872 15.3733 12.3069 15.7931 12.8247 15.7931H16.1411V19.1095C16.1411 19.6272 16.5608 20.047 17.0786 20.047C17.5964 20.047 18.0161 19.6272 18.0161 19.1095V15.7931H21.3326C21.8504 15.7931 22.2701 15.3734 22.2701 14.8556Z" fill="black"/>
</g>
<defs>
<clipPath id="clip0_0_116">
<rect width="29.124" height="29.124" fill="white" transform="matrix(-1.03008 0 0 1.03008 30 0)"/>
</clipPath>
</defs>
</svg>
