<svg width="40" height="40" viewBox="0 0 40 40" fill="none" xmlns="http://www.w3.org/2000/svg">
<path d="M19.9997 3.33301C17.811 3.33301 15.6437 3.7641 13.6216 4.60168C11.5995 5.43926 9.7622 6.66692 8.21456 8.21456C5.08896 11.3402 3.33301 15.5794 3.33301 19.9997C3.33301 27.3663 8.11634 33.6163 14.733 35.833C15.5663 35.9663 15.833 35.4497 15.833 34.9997V32.183C11.2163 33.183 10.233 29.9497 10.233 29.9497C9.46634 28.0163 8.38301 27.4997 8.38301 27.4997C6.86634 26.4663 8.49967 26.4997 8.49967 26.4997C10.1663 26.6163 11.0497 28.2163 11.0497 28.2163C12.4997 30.7497 14.9497 29.9997 15.8997 29.5997C16.0497 28.5163 16.483 27.783 16.9497 27.3663C13.2497 26.9497 9.36634 25.5163 9.36634 19.1663C9.36634 17.3163 9.99967 15.833 11.083 14.6497C10.9163 14.233 10.333 12.4997 11.2497 10.2497C11.2497 10.2497 12.6497 9.79967 15.833 11.9497C17.1497 11.583 18.583 11.3997 19.9997 11.3997C21.4163 11.3997 22.8497 11.583 24.1663 11.9497C27.3497 9.79967 28.7497 10.2497 28.7497 10.2497C29.6663 12.4997 29.083 14.233 28.9163 14.6497C29.9997 15.833 30.633 17.3163 30.633 19.1663C30.633 25.533 26.733 26.933 23.0163 27.3497C23.6163 27.8663 24.1663 28.883 24.1663 30.433V34.9997C24.1663 35.4497 24.433 35.983 25.283 35.833C31.8997 33.5997 36.6663 27.3663 36.6663 19.9997C36.6663 17.811 36.2352 15.6437 35.3977 13.6216C34.5601 11.5995 33.3324 9.7622 31.7848 8.21456C30.2371 6.66692 28.3998 5.43926 26.3777 4.60168C24.3556 3.7641 22.1884 3.33301 19.9997 3.33301Z" fill="black"/>
</svg>
