<svg width="30" height="30" viewBox="0 0 30 30" fill="none" xmlns="http://www.w3.org/2000/svg">
<mask id="mask0_0_234" style="mask-type:luminance" maskUnits="userSpaceOnUse" x="0" y="0" width="30" height="30">
<path d="M0 0.000123794H29.9999V30H0V0.000123794Z" fill="white"/>
</mask>
<g mask="url(#mask0_0_234)">
<path d="M25.8967 22.2321V16.1715C25.8967 15.8479 25.6343 15.5856 25.3108 15.5856H24.1125" stroke="black" stroke-width="0.853125" stroke-miterlimit="10" stroke-linecap="round" stroke-linejoin="round"/>
<path d="M4.10376 22.2321V16.1715C4.10376 15.8479 4.36614 15.5856 4.68969 15.5856H5.88799" stroke="black" stroke-width="0.853125" stroke-miterlimit="10" stroke-linecap="round" stroke-linejoin="round"/>
<path d="M12.635 1.14202C13.3148 0.697759 14.1273 0.439596 15 0.439596C17.3912 0.439596 19.3296 2.37805 19.3296 4.76925C19.3296 7.16045 17.3912 9.0989 15 9.0989C12.6088 9.0989 10.6704 7.16045 10.6704 4.76925C10.6704 3.99241 10.8749 3.26339 11.2331 2.6331" stroke="black" stroke-width="0.853125" stroke-miterlimit="10" stroke-linecap="round" stroke-linejoin="round"/>
<path d="M12.0648 7.95097C12.1363 7.20273 12.4866 6.53594 13.011 6.05664C13.2712 5.81875 13.5742 5.62657 13.9075 5.49356" stroke="black" stroke-width="0.853125" stroke-miterlimit="10" stroke-linecap="round" stroke-linejoin="round"/>
<path d="M16.0931 5.49356C17.0974 5.89434 17.8292 6.83125 17.9358 7.95097" stroke="black" stroke-width="0.853125" stroke-miterlimit="10" stroke-linecap="round" stroke-linejoin="round"/>
<path d="M14.9999 5.92776C14.1184 5.92776 13.4039 5.21316 13.4039 4.33168V3.79314C13.4039 2.91172 14.1184 2.19712 14.9999 2.19712C15.8814 2.19712 16.5959 2.91172 16.5959 3.79314V4.33168C16.5959 5.21316 15.8814 5.92776 14.9999 5.92776Z" stroke="black" stroke-width="0.853125" stroke-miterlimit="10" stroke-linecap="round" stroke-linejoin="round"/>
<path d="M13.2155 15.5851C13.2155 17.6087 11.5751 19.2491 9.55155 19.2491C7.52796 19.2491 5.88752 17.6087 5.88752 15.5851C5.88752 13.5615 7.52796 11.9211 9.55155 11.9211C11.5751 11.9211 13.2155 13.5615 13.2155 15.5851Z" stroke="black" stroke-width="0.853125" stroke-miterlimit="10" stroke-linecap="round" stroke-linejoin="round"/>
<path d="M7.06764 18.2793C7.12741 17.6465 7.42448 17.0816 7.86803 16.6762C8.08834 16.4746 8.34439 16.3123 8.62623 16.1998" stroke="black" stroke-width="0.853125" stroke-miterlimit="10" stroke-linecap="round" stroke-linejoin="round"/>
<path d="M10.4782 16.1998C11.3278 16.5391 11.9466 17.3324 12.0368 18.2793" stroke="black" stroke-width="0.853125" stroke-miterlimit="10" stroke-linecap="round" stroke-linejoin="round"/>
<path d="M9.55218 16.567C8.80623 16.567 8.20148 15.9622 8.20148 15.2163V14.7605C8.20148 14.0146 8.80623 13.4099 9.55218 13.4099C10.2981 13.4099 10.9029 14.0146 10.9029 14.7605V15.2163C10.9029 15.9622 10.2981 16.567 9.55218 16.567Z" stroke="black" stroke-width="0.853125" stroke-miterlimit="10" stroke-linecap="round" stroke-linejoin="round"/>
<path d="M24.1123 15.5851C24.1123 17.6087 22.4718 19.2491 20.4482 19.2491C18.4247 19.2491 16.7843 17.6087 16.7843 15.5851C16.7843 13.5615 18.4247 11.9211 20.4482 11.9211C22.4718 11.9211 24.1123 13.5615 24.1123 15.5851Z" stroke="black" stroke-width="0.853125" stroke-miterlimit="10" stroke-linecap="round" stroke-linejoin="round"/>
<path d="M17.9634 18.2793C18.0237 17.6465 18.3202 17.0816 18.7644 16.6762C18.9841 16.4746 19.2401 16.3123 19.522 16.1998" stroke="black" stroke-width="0.853125" stroke-miterlimit="10" stroke-linecap="round" stroke-linejoin="round"/>
<path d="M21.374 16.1998C22.2236 16.5391 22.8428 17.3324 22.9325 18.2793" stroke="black" stroke-width="0.853125" stroke-miterlimit="10" stroke-linecap="round" stroke-linejoin="round"/>
<path d="M20.4479 16.567C19.702 16.567 19.0972 15.9622 19.0972 15.2163V14.7605C19.0972 14.0146 19.702 13.4099 20.4479 13.4099C21.1939 13.4099 21.7986 14.0146 21.7986 14.7605V15.2163C21.7986 15.9622 21.1939 16.567 20.4479 16.567Z" stroke="black" stroke-width="0.853125" stroke-miterlimit="10" stroke-linecap="round" stroke-linejoin="round"/>
<path d="M7.76765 25.8963C7.76765 27.9199 6.12721 29.5603 4.10362 29.5603C2.0801 29.5603 0.439653 27.9199 0.439653 25.8963C0.439653 23.8727 2.0801 22.2323 4.10362 22.2323C6.12721 22.2323 7.76765 23.8727 7.76765 25.8963Z" stroke="black" stroke-width="0.853125" stroke-miterlimit="10" stroke-linecap="round" stroke-linejoin="round"/>
<path d="M1.61877 28.5895C1.67912 27.9561 1.9756 27.3918 2.41974 26.9858C2.64005 26.7848 2.89611 26.6225 3.17794 26.51" stroke="black" stroke-width="0.853125" stroke-miterlimit="10" stroke-linecap="round" stroke-linejoin="round"/>
<path d="M5.02834 26.51C5.87794 26.8487 6.49786 27.642 6.58745 28.5895" stroke="black" stroke-width="0.853125" stroke-miterlimit="10" stroke-linecap="round" stroke-linejoin="round"/>
<path d="M4.10331 26.8772C3.35741 26.8772 2.75261 26.2724 2.75261 25.5265V25.0707C2.75261 24.3248 3.35735 23.7201 4.10325 23.7201C4.84914 23.7201 5.45394 24.3248 5.45394 25.0707V25.5265C5.45394 26.2724 4.8492 26.8772 4.10331 26.8772Z" stroke="black" stroke-width="0.853125" stroke-miterlimit="10" stroke-linecap="round" stroke-linejoin="round"/>
<path d="M29.5601 25.8963C29.5601 27.9199 27.9197 29.5603 25.8962 29.5603C23.8726 29.5603 22.2321 27.9199 22.2321 25.8963C22.2321 23.8727 23.8726 22.2323 25.8962 22.2323C27.9197 22.2323 29.5601 23.8727 29.5601 25.8963Z" stroke="black" stroke-width="0.853125" stroke-miterlimit="10" stroke-linecap="round" stroke-linejoin="round"/>
<path d="M23.4123 28.5895C23.4725 27.9561 23.7691 27.3918 24.2126 26.9858C24.433 26.7848 24.6896 26.6225 24.9714 26.51" stroke="black" stroke-width="0.853125" stroke-miterlimit="10" stroke-linecap="round" stroke-linejoin="round"/>
<path d="M26.8218 26.51C27.6714 26.8487 28.2908 27.642 28.381 28.5895" stroke="black" stroke-width="0.853125" stroke-miterlimit="10" stroke-linecap="round" stroke-linejoin="round"/>
<path d="M25.8968 26.8772C25.1509 26.8772 24.5461 26.2724 24.5461 25.5265V25.0707C24.5461 24.3248 25.1508 23.7201 25.8967 23.7201C26.6426 23.7201 27.2474 24.3248 27.2474 25.0707V25.5265C27.2474 26.2724 26.6427 26.8772 25.8968 26.8772Z" stroke="black" stroke-width="0.853125" stroke-miterlimit="10" stroke-linecap="round" stroke-linejoin="round"/>
<path d="M18.6643 25.8963C18.6643 27.9199 17.024 29.5603 15.0004 29.5603C12.9768 29.5603 11.3364 27.9199 11.3364 25.8963C11.3364 23.8727 12.9768 22.2323 15.0004 22.2323C17.024 22.2323 18.6643 23.8727 18.6643 25.8963Z" stroke="black" stroke-width="0.853125" stroke-miterlimit="10" stroke-linecap="round" stroke-linejoin="round"/>
<path d="M12.5155 28.5895C12.5759 27.9561 12.8724 27.3918 13.3165 26.9858C13.5369 26.7848 13.7929 26.6219 14.0747 26.5094" stroke="black" stroke-width="0.853125" stroke-miterlimit="10" stroke-linecap="round" stroke-linejoin="round"/>
<path d="M15.9251 26.5094C16.7747 26.8487 17.394 27.642 17.4843 28.5895" stroke="black" stroke-width="0.853125" stroke-miterlimit="10" stroke-linecap="round" stroke-linejoin="round"/>
<path d="M15 26.8772C14.2541 26.8772 13.6494 26.2724 13.6494 25.5265V25.0707C13.6494 24.3248 14.2541 23.7201 15 23.7201C15.746 23.7201 16.3507 24.3248 16.3507 25.0707V25.5265C16.3507 26.2724 15.746 26.8772 15 26.8772Z" stroke="black" stroke-width="0.853125" stroke-miterlimit="10" stroke-linecap="round" stroke-linejoin="round"/>
<path d="M16.7842 15.586H13.2157" stroke="black" stroke-width="0.853125" stroke-miterlimit="10" stroke-linecap="round" stroke-linejoin="round"/>
<path d="M15.0005 15.586V9.09891" stroke="black" stroke-width="0.853125" stroke-miterlimit="10" stroke-linecap="round" stroke-linejoin="round"/>
<path d="M15.0005 20.1818V15.586" stroke="black" stroke-width="0.853125" stroke-miterlimit="10" stroke-linecap="round" stroke-linejoin="round"/>
</g>
</svg>
