<svg width="121" height="60" viewBox="0 0 121 60" fill="none" xmlns="http://www.w3.org/2000/svg">
<g clip-path="url(#clip0_49_3144)">
<path d="M65.0083 0.200543C64.6153 0.256828 64.2224 1.66396 63.4365 2.45195C62.8751 3.0148 62.2015 3.0148 61.8085 3.63394C61.6401 3.85908 61.7524 4.30936 61.584 4.70336C61.2472 5.54764 60.1806 5.66021 60.1806 6.50448C60.1806 7.46133 61.1349 7.68647 61.9208 8.36189C62.5383 8.92475 62.6506 9.31874 63.3242 9.54388C63.9417 9.76902 64.896 9.0936 65.7381 9.31874C66.4678 9.54388 67.1415 9.71274 67.3099 10.3882C67.4783 11.0636 67.3099 12.0767 66.4678 11.9641C66.131 11.9641 64.896 11.5139 63.4365 11.6264C61.5278 11.8516 59.4508 12.4144 59.2824 14.497C59.2262 15.679 60.6297 16.9735 61.9208 16.7484C62.8751 16.5795 62.3699 15.3975 62.9312 14.891C63.661 14.2156 67.4783 17.3112 71.071 17.3112C72.5867 17.3112 73.7094 16.9172 74.8321 15.7353C74.8883 15.679 75.0567 15.3975 75.2251 15.3975C75.3935 15.3975 75.6181 15.5664 75.6742 15.6227C78.5933 17.9304 80.7826 22.5458 91.3362 22.602C92.8519 22.602 94.536 23.2775 95.9394 24.572C97.1744 25.754 97.9042 27.4989 98.5778 29.3C99.7005 32.0017 101.553 34.6471 104.472 37.5176C104.641 37.6865 106.998 39.5439 107.223 39.6002C107.223 39.6002 107.447 40.0504 107.391 40.2756C107.335 42.0767 107.054 47.1424 110.928 47.3675C111.882 47.4238 111.658 46.7484 111.658 46.2981C111.658 45.4538 111.489 44.497 111.994 43.6527C112.612 42.4144 110.647 41.8516 110.647 39.1499C110.703 37.1236 109.019 37.4613 108.121 35.9416C107.672 35.0974 107.167 34.5345 107.167 33.4651C107.335 27.33 105.819 23.2775 105.146 22.3206C104.584 21.5326 104.023 21.3075 104.584 20.9135C107.784 18.8309 108.514 16.861 108.514 16.861C110.254 12.921 111.714 9.26246 113.847 7.68647C114.24 7.34876 115.363 6.50448 116.036 6.22306C118.001 5.26621 119.011 4.75964 119.573 4.19679C120.415 3.35251 121.201 1.4951 120.359 0.369399C119.236 -1.03773 117.44 0.0316875 116.598 0.594539C110.703 4.08422 109.861 10.163 107.84 13.6527C106.212 16.467 103.63 18.5495 101.272 18.7184C99.476 18.8872 97.5674 18.4932 95.7149 17.6489C91.1117 15.6227 88.5856 13.0898 87.9681 12.5833C86.7331 11.6264 77.1337 2.22681 69.3308 1.83281C69.3308 1.83281 68.3765 -0.137168 68.1519 -0.137168C67.5906 -0.193453 66.9731 1.04482 66.5801 1.21368C66.0749 1.60767 65.4012 0.0879727 65.0083 0.200543ZM30.7651 56.148C30.0354 56.148 29.474 55.5289 29.4179 54.7972V30.5945H21.3342V57.2737C21.3342 58.6246 22.457 59.694 23.692 59.694H37.6699C39.0172 59.694 40.0276 58.6246 40.0276 57.2737V30.6508H32.1124V54.8535C32.0563 55.5852 31.4949 56.148 30.7651 56.148ZM57.5983 30.6508H45.4167C44.0133 30.6508 42.8344 31.8328 42.8344 33.2399V59.694H50.8058V35.4914C50.8058 34.7034 51.4233 34.1405 52.1531 34.1405C52.939 34.1405 53.5003 34.7034 53.5003 35.4914V59.7503H61.4717V35.3788C61.4717 34.7034 62.0892 34.0279 62.819 34.0279C63.5487 34.0279 64.1663 34.6471 64.1663 35.3788V59.6377H72.1376V33.1837C72.1376 31.7202 70.9587 30.5945 69.5553 30.5945H57.5983V30.6508ZM16.0013 52.3769H7.91765V59.694H-0.0537109V30.6508H16.1136C17.517 30.6508 18.6958 31.8328 18.6958 33.2962V49.7878C18.6958 51.2512 17.517 52.3769 16.0013 52.3769ZM10.6683 35.4914C10.6683 34.7034 10.0508 34.0842 9.32106 34.0842H7.97378V48.7747H9.32106C10.0508 48.7747 10.6683 48.2118 10.6683 47.3675V35.4914ZM84.9928 59.8065V52.5458H82.2421V59.8065H74.2147V33.4651C74.2147 32.0017 75.3935 30.9322 76.7969 30.9322H90.3258C91.7292 30.9322 92.9081 32.1142 92.9081 33.4651V59.8065H84.9928ZM84.9928 48.9998V35.7165C84.9928 35.0411 84.3753 34.4219 83.6456 34.4219C82.9158 34.4219 82.2983 35.0411 82.2983 35.7165V49.0561L84.9928 48.9998Z" fill="black"/>
<path d="M100.206 59.469C98.0166 59.469 96.2764 57.7242 96.2764 55.5291C96.2764 53.334 98.0166 51.5891 100.206 51.5891C102.395 51.5891 104.135 53.334 104.135 55.5291C104.135 57.7242 102.395 59.469 100.206 59.469ZM100.206 52.2082C98.3534 52.2082 96.8939 53.7279 96.8939 55.5291C96.8939 57.3302 98.4095 58.8499 100.206 58.8499C102.002 58.8499 103.518 57.3302 103.518 55.5291C103.518 53.7279 102.058 52.2082 100.206 52.2082Z" fill="black"/>
<path d="M99.0273 53.8967H100.318C100.599 53.8967 100.824 53.953 100.992 54.1219C101.217 54.2907 101.329 54.5159 101.329 54.8536C101.329 55.3039 101.104 55.6416 100.711 55.8104L101.497 57.3301H100.88L100.206 55.8667H99.5887V57.3301H99.0835V53.8967H99.0273ZM99.5326 55.4164H100.318C100.487 55.4164 100.655 55.3601 100.768 55.2476C100.88 55.135 100.936 55.0224 100.936 54.8536C100.936 54.6847 100.88 54.5159 100.768 54.4596C100.655 54.4033 100.543 54.347 100.375 54.347H99.5887V55.4164H99.5326Z" fill="black"/>
</g>
<defs>
<clipPath id="clip0_49_3144">
<rect width="120.805" height="60" fill="white"/>
</clipPath>
</defs>
</svg>
