<svg width="102" height="21" viewBox="0 0 102 21" fill="none" xmlns="http://www.w3.org/2000/svg">
<path d="M32.7407 5.64947C31.729 5.65184 30.7408 5.95417 29.9009 6.5182C29.0611 7.08223 28.4073 7.88264 28.0224 8.81822C27.6374 9.75379 27.5385 10.7825 27.7382 11.7743C27.9379 12.7661 28.4272 13.6763 29.1443 14.39C29.8613 15.1037 30.7739 15.5887 31.7666 15.7838C32.7593 15.9788 33.7876 15.8751 34.7213 15.4858C35.6551 15.0964 36.4524 14.4389 37.0125 13.5964C37.5726 12.7539 37.8703 11.7643 37.8679 10.7526C37.8777 10.0777 37.7516 9.40774 37.4971 8.7826C37.2426 8.15746 36.8649 7.58992 36.3865 7.11377C35.9081 6.63762 35.3388 6.2626 34.7125 6.01104C34.0861 5.75947 33.4156 5.63651 32.7407 5.64947ZM32.7407 13.8505C32.1206 13.8939 31.5018 13.7497 30.9648 13.4367C30.4277 13.1237 29.9972 12.6564 29.7293 12.0955C29.4613 11.5347 29.3683 10.9061 29.4623 10.2917C29.5563 9.67724 29.833 9.10528 30.2564 8.65015C30.6797 8.19503 31.2302 7.87779 31.8363 7.73968C32.4424 7.60157 33.076 7.64898 33.6547 7.87573C34.2335 8.10249 34.7306 8.49812 35.0816 9.01118C35.4325 9.52424 35.621 10.131 35.6225 10.7526C35.6419 11.1465 35.5821 11.5402 35.4469 11.9106C35.3116 12.281 35.1036 12.6206 34.835 12.9093C34.5664 13.1981 34.2427 13.4301 33.883 13.5917C33.5234 13.7534 33.135 13.8414 32.7407 13.8505ZM21.5498 5.64947C20.5381 5.65184 19.5499 5.95417 18.71 6.5182C17.8701 7.08223 17.2164 7.88264 16.8314 8.81822C16.4465 9.75379 16.3476 10.7825 16.5473 11.7743C16.747 12.7661 17.2363 13.6763 17.9534 14.39C18.6704 15.1037 19.583 15.5887 20.5757 15.7838C21.5684 15.9788 22.5966 15.8751 23.5304 15.4858C24.4642 15.0964 25.2615 14.4389 25.8216 13.5964C26.3817 12.7539 26.6793 11.7643 26.677 10.7526C26.6868 10.0777 26.5607 9.40774 26.3062 8.7826C26.0517 8.15746 25.674 7.58992 25.1956 7.11377C24.7172 6.63762 24.1479 6.2626 23.5215 6.01104C22.8952 5.75947 22.2246 5.63651 21.5498 5.64947ZM21.5498 13.8505C20.9297 13.8939 20.3109 13.7497 19.7739 13.4367C19.2368 13.1237 18.8063 12.6564 18.5384 12.0955C18.2704 11.5347 18.1774 10.9061 18.2714 10.2917C18.3654 9.67724 18.6421 9.10528 19.0654 8.65015C19.4888 8.19503 20.0393 7.87779 20.6454 7.73968C21.2514 7.60157 21.885 7.64898 22.4638 7.87573C23.0426 8.10249 23.5397 8.49812 23.8907 9.01118C24.2416 9.52424 24.4301 10.131 24.4316 10.7526C24.4509 11.1465 24.3912 11.5402 24.256 11.9106C24.1207 12.281 23.9127 12.6206 23.6441 12.9093C23.3755 13.1981 23.0518 13.4301 22.6921 13.5917C22.3324 13.7534 21.944 13.8414 21.5498 13.8505ZM8.24557 7.22243V9.38376H13.4328C13.3514 10.4017 12.9283 11.3623 12.232 12.1094C11.7117 12.6396 11.0859 13.0546 10.395 13.3276C9.70419 13.6006 8.96373 13.7256 8.22155 13.6944C6.69296 13.6944 5.22697 13.0872 4.14609 12.0063C3.06521 10.9254 2.45798 9.45945 2.45798 7.93087C2.45798 6.40228 3.06521 4.9363 4.14609 3.85543C5.22697 2.77456 6.69296 2.16733 8.22155 2.16733C9.687 2.14554 11.102 2.70205 12.16 3.71628L13.6849 2.19135C12.9693 1.48352 12.1195 0.925637 11.1855 0.550385C10.2515 0.175134 9.25202 -0.00994118 8.24557 0.00600396C7.1781 -0.035539 6.11324 0.138838 5.11477 0.518684C4.11631 0.89853 3.20481 1.47603 2.43488 2.21657C1.66495 2.95712 1.05244 3.84547 0.634047 4.8284C0.215659 5.81133 0 6.8686 0 7.93687C0 9.00514 0.215659 10.0624 0.634047 11.0453C1.05244 12.0283 1.66495 12.9166 2.43488 13.6572C3.20481 14.3977 4.11631 14.9752 5.11477 15.3551C6.11324 15.7349 7.1781 15.9093 8.24557 15.8677C9.27271 15.9088 10.2969 15.7321 11.2509 15.3492C12.2049 14.9664 13.0672 14.3861 13.781 13.6464C15.0419 12.2612 15.7138 10.4394 15.6542 8.56726C15.6584 8.11665 15.6223 7.66657 15.5461 7.22243H8.24557ZM62.6512 8.90346C62.3381 7.98218 61.7525 7.17775 60.972 6.59667C60.1915 6.01559 59.2529 5.68527 58.2805 5.64947C57.6237 5.64818 56.9736 5.78163 56.3704 6.04155C55.7672 6.30147 55.2238 6.68235 54.7736 7.16063C54.3235 7.63892 53.9762 8.20445 53.7533 8.82227C53.5303 9.44009 53.4365 10.0971 53.4776 10.7526C53.4673 11.8487 53.8119 12.9187 54.4599 13.8028C55.1079 14.6869 56.0246 15.3376 57.0729 15.6578C58.1212 15.978 59.245 15.9504 60.2764 15.5792C61.3078 15.208 62.1914 14.5131 62.7953 13.5983L61.0543 12.3976C60.7947 12.8302 60.4266 13.1874 59.9864 13.4339C59.5462 13.6803 59.0492 13.8074 58.5447 13.8025C58.0243 13.824 57.5095 13.6875 57.068 13.4111C56.6266 13.1346 56.2791 12.7311 56.0712 12.2535L62.9034 9.43179L62.6512 8.90346ZM55.6869 10.6085C55.6626 10.2355 55.7129 9.86146 55.835 9.50817C55.957 9.15489 56.1483 8.8295 56.3977 8.55107C56.647 8.27265 56.9494 8.04677 57.2872 7.88666C57.6249 7.72656 57.9912 7.63545 58.3646 7.61867C58.7515 7.59506 59.1367 7.68614 59.4721 7.88052C59.8074 8.07489 60.0779 8.3639 60.2498 8.71134L55.6869 10.6085ZM50.1395 15.5555H52.3849V0.546336H50.1395V15.5555ZM46.4652 6.79017H46.3812C46.0457 6.40816 45.6318 6.10311 45.1676 5.89587C44.7033 5.68864 44.1998 5.58411 43.6915 5.58943C42.3793 5.65306 41.1419 6.21912 40.2357 7.1703C39.3296 8.12148 38.8241 9.38484 38.8241 10.6986C38.8241 12.0123 39.3296 13.2757 40.2357 14.2268C41.1419 15.178 42.3793 15.7441 43.6915 15.8077C44.2006 15.8179 44.7056 15.7156 45.1706 15.508C45.6355 15.3004 46.0489 14.9928 46.3812 14.607H46.4652V15.3394C46.4652 17.2966 45.4206 18.3413 43.7395 18.3413C43.178 18.3289 42.6328 18.15 42.1731 17.8272C41.7134 17.5043 41.3601 17.0522 41.1579 16.5281L39.2127 17.3326C39.5724 18.2359 40.1976 19.0087 41.0059 19.549C41.8142 20.0893 42.7674 20.3716 43.7395 20.3585C46.3692 20.3585 48.5425 18.8095 48.5425 15.0392V5.94965H46.4652V6.79017ZM43.8836 13.8505C43.0969 13.8014 42.3585 13.4544 41.8187 12.8799C41.279 12.3054 40.9785 11.5468 40.9785 10.7586C40.9785 9.97036 41.279 9.21176 41.8187 8.63731C42.3585 8.06285 43.0969 7.71575 43.8836 7.6667C44.2681 7.6833 44.6454 7.77707 44.9929 7.94244C45.3405 8.10781 45.6512 8.34139 45.9066 8.6293C46.1621 8.91721 46.357 9.25356 46.4797 9.61833C46.6025 9.9831 46.6507 10.3688 46.6213 10.7526C46.6541 11.1377 46.6084 11.5254 46.487 11.8923C46.3657 12.2592 46.1712 12.5977 45.9152 12.8873C45.6593 13.1768 45.3473 13.4115 44.9981 13.5771C44.6489 13.7426 44.2698 13.8357 43.8836 13.8505ZM73.1697 0.546336H67.7904V15.5555H70.0358V9.86405H73.1697C73.8097 9.91003 74.4522 9.82367 75.0573 9.61037C75.6624 9.39707 76.2171 9.0614 76.6867 8.62428C77.1564 8.18717 77.5309 7.65799 77.7871 7.06974C78.0432 6.48149 78.1753 5.84678 78.1753 5.20519C78.1753 4.56361 78.0432 3.9289 77.7871 3.34065C77.5309 2.7524 77.1564 2.22322 76.6867 1.78611C76.2171 1.34899 75.6624 1.01332 75.0573 0.80002C74.4522 0.586719 73.8097 0.500362 73.1697 0.546336ZM73.1697 7.75076H70.0358V2.63562H73.2178C73.5552 2.63562 73.8894 2.70208 74.2011 2.83121C74.5129 2.96035 74.7961 3.14962 75.0348 3.38823C75.2734 3.62684 75.4626 3.91011 75.5918 4.22186C75.7209 4.53362 75.7874 4.86775 75.7874 5.20519C75.7874 5.54263 75.7209 5.87678 75.5918 6.18853C75.4626 6.50029 75.2734 6.78355 75.0348 7.02216C74.7961 7.26077 74.5129 7.45004 74.2011 7.57917C73.8894 7.70831 73.5552 7.77477 73.2178 7.77477L73.1697 7.75076ZM87.0263 5.60144C86.2086 5.55102 85.3941 5.74138 84.6834 6.14899C83.9728 6.5566 83.3972 7.16357 83.0278 7.89484L85.0091 8.72335C85.2093 8.36242 85.5097 8.06716 85.8741 7.87326C86.2384 7.67936 86.6511 7.59511 87.0624 7.63068C87.3474 7.59739 87.6362 7.6212 87.912 7.70071C88.1877 7.78023 88.4448 7.91386 88.6684 8.09382C88.8919 8.27377 89.0774 8.49644 89.214 8.74884C89.3505 9.00123 89.4355 9.27829 89.4638 9.56387V9.70796C88.7418 9.32843 87.9381 9.1306 87.1224 9.13161C84.9851 9.13161 82.7997 10.3323 82.7997 12.5177C82.8209 12.9822 82.9351 13.4377 83.1357 13.8572C83.3364 14.2766 83.6193 14.6515 83.9676 14.9595C84.3159 15.2675 84.7226 15.5024 85.1635 15.6502C85.6044 15.7979 86.0704 15.8556 86.534 15.8197C87.0975 15.8509 87.6591 15.7316 88.1613 15.4742C88.6635 15.2168 89.0881 14.8305 89.3918 14.3548H89.4638V15.5555H91.6252V9.78C91.6252 7.15039 89.6319 5.62545 87.0744 5.62545L87.0263 5.60144ZM86.7502 13.8265C86.0177 13.8265 84.9971 13.4543 84.9971 12.5537C84.9971 11.353 86.2699 10.9447 87.3986 10.9447C88.1119 10.9271 88.8168 11.1013 89.4398 11.449C89.3644 12.1011 89.0552 12.7038 88.5695 13.1453C88.0838 13.5869 87.4545 13.8374 86.7982 13.8505L86.7502 13.8265ZM99.5021 5.94965L96.9325 12.4576H96.8604L94.1948 5.94965H91.7933L95.7918 15.0512L93.5103 20.1063H95.8518L102 5.94965H99.5021ZM79.3296 15.5555H81.563V0.546336H79.3296V15.5555Z" fill="white"/>
</svg>
