<svg width="52" height="25" viewBox="0 0 52 25" fill="none" xmlns="http://www.w3.org/2000/svg">
<path d="M52 2.91475L46.9515 -3.29805e-05V5.82952L52 2.91475ZM0 24.1186V24.6235H14.6408V24.1186V23.6138H0V24.1186ZM24.7379 14.0215H25.2427V13.0118H24.7379H24.233V14.0215H24.7379ZM34.835 2.91475V3.4196H47.4563V2.91475V2.40989H34.835V2.91475ZM24.7379 13.0118H25.2427C25.2427 7.71419 29.5373 3.4196 34.835 3.4196V2.91475V2.40989C28.9797 2.40989 24.233 7.15654 24.233 13.0118H24.7379ZM14.6408 24.1186V24.6235C20.4961 24.6235 25.2427 19.8768 25.2427 14.0215H24.7379H24.233C24.233 19.3192 19.9384 23.6138 14.6408 23.6138V24.1186Z" fill="black"/>
</svg>
