<svg width="30" height="30" viewBox="0 0 30 30" fill="none" xmlns="http://www.w3.org/2000/svg">
<path d="M14.1604 0.822682C14.6269 0.365547 15.3737 0.365547 15.8403 0.822682L17.7003 2.64544C18.0002 2.93931 18.4323 3.0547 18.839 2.95023L21.3619 2.30141C21.9943 2.13898 22.6409 2.51238 22.8164 3.14136L23.5156 5.65016C23.6284 6.0547 23.945 6.37125 24.3495 6.48408L26.8583 7.18321C27.4873 7.35866 27.8606 8.0053 27.6982 8.63779L27.0494 11.1607C26.9449 11.5674 27.0613 11.9994 27.3552 12.2994L29.178 14.1594C29.635 14.6259 29.6349 15.3727 29.178 15.8393L27.3552 17.6993C27.0614 17.9992 26.945 18.4313 27.0494 18.838L27.6982 21.3609C27.8608 21.9934 27.4874 22.64 26.8583 22.8154L24.3495 23.5156C23.945 23.6284 23.6284 23.944 23.5156 24.3485L22.8164 26.8573C22.641 27.4864 21.9944 27.8597 21.3619 27.6972L18.839 27.0484C18.4323 26.944 18.0002 27.0604 17.7003 27.3542L15.8403 29.177C15.3737 29.6339 14.6269 29.634 14.1604 29.177L12.3004 27.3542C12.0004 27.0603 11.5684 26.9439 11.1617 27.0484L8.6388 27.6972C8.00628 27.8596 7.35967 27.4863 7.18421 26.8573L6.48509 24.3485C6.37226 23.944 6.0557 23.6284 5.65117 23.5156L3.14237 22.8154C2.51335 22.6399 2.13995 21.9934 2.30241 21.3609L2.95124 18.838C3.05568 18.4313 2.9403 17.9992 2.64644 17.6993L0.823688 15.8393C0.366553 15.3727 0.366553 14.6259 0.823688 14.1594L2.64644 12.2994C2.94026 11.9994 3.05577 11.5674 2.95124 11.1607L2.30241 8.63779C2.14011 8.00534 2.51339 7.35869 3.14237 7.18321L5.65117 6.48408C6.0557 6.37125 6.37226 6.0547 6.48509 5.65016L7.18421 3.14136C7.35972 2.51241 8.00635 2.13908 8.6388 2.30141L11.1617 2.95023C11.5684 3.05476 12.0004 2.93929 12.3004 2.64544L14.1604 0.822682ZM22.6495 10.4746C21.8765 9.70188 20.6238 9.7018 19.8509 10.4746L13.3335 16.9921L10.7744 14.433L10.6245 14.2972C9.84715 13.6631 8.70052 13.7083 7.97589 14.433C7.25135 15.1576 7.20598 16.3043 7.84008 17.0816L7.97589 17.2315L11.9342 21.1898L12.0841 21.3256C12.8615 21.9598 14.0081 21.9144 14.7328 21.1898L22.6495 13.2731C23.4223 12.5002 23.4223 11.2475 22.6495 10.4746Z" fill="#017CFB"/>
</svg>
