<svg width="80" height="80" viewBox="0 0 80 80" fill="none" xmlns="http://www.w3.org/2000/svg">
<g filter="url(#filter0_dddd_0_242)">
<circle cx="40" cy="40" r="40" fill="#B9BBBB"/>
</g>
<path d="M40 0C46.3124 7.52748e-08 52.5352 1.49396 58.1596 4.35974C63.784 7.22551 68.6503 11.3817 72.3607 16.4886C76.071 21.5954 78.5201 27.5079 79.5075 33.7426C80.495 39.9773 79.9929 46.3572 78.0423 52.3607C76.0916 58.3641 72.7478 63.8207 68.2843 68.2843C63.8207 72.7478 58.3642 76.0916 52.3607 78.0423C46.3572 79.9929 39.9773 80.495 33.7426 79.5075C27.5079 78.5201 21.5955 76.071 16.4886 72.3607L40 40V0Z" fill="#3CABC6"/>
<circle cx="40" cy="40" r="34" fill="white"/>
<defs>
<filter id="filter0_dddd_0_242" x="-10" y="-1" width="100" height="116" filterUnits="userSpaceOnUse" color-interpolation-filters="sRGB">
<feFlood flood-opacity="0" result="BackgroundImageFix"/>
<feColorMatrix in="SourceAlpha" type="matrix" values="0 0 0 0 0 0 0 0 0 0 0 0 0 0 0 0 0 0 127 0" result="hardAlpha"/>
<feOffset dy="2"/>
<feGaussianBlur stdDeviation="1.5"/>
<feColorMatrix type="matrix" values="0 0 0 0 0 0 0 0 0 0 0 0 0 0 0 0 0 0 0.1 0"/>
<feBlend mode="normal" in2="BackgroundImageFix" result="effect1_dropShadow_0_242"/>
<feColorMatrix in="SourceAlpha" type="matrix" values="0 0 0 0 0 0 0 0 0 0 0 0 0 0 0 0 0 0 127 0" result="hardAlpha"/>
<feOffset dy="6"/>
<feGaussianBlur stdDeviation="3"/>
<feColorMatrix type="matrix" values="0 0 0 0 0 0 0 0 0 0 0 0 0 0 0 0 0 0 0.09 0"/>
<feBlend mode="normal" in2="effect1_dropShadow_0_242" result="effect2_dropShadow_0_242"/>
<feColorMatrix in="SourceAlpha" type="matrix" values="0 0 0 0 0 0 0 0 0 0 0 0 0 0 0 0 0 0 127 0" result="hardAlpha"/>
<feOffset dy="14"/>
<feGaussianBlur stdDeviation="4"/>
<feColorMatrix type="matrix" values="0 0 0 0 0 0 0 0 0 0 0 0 0 0 0 0 0 0 0.05 0"/>
<feBlend mode="normal" in2="effect2_dropShadow_0_242" result="effect3_dropShadow_0_242"/>
<feColorMatrix in="SourceAlpha" type="matrix" values="0 0 0 0 0 0 0 0 0 0 0 0 0 0 0 0 0 0 127 0" result="hardAlpha"/>
<feOffset dy="25"/>
<feGaussianBlur stdDeviation="5"/>
<feColorMatrix type="matrix" values="0 0 0 0 0 0 0 0 0 0 0 0 0 0 0 0 0 0 0.01 0"/>
<feBlend mode="normal" in2="effect3_dropShadow_0_242" result="effect4_dropShadow_0_242"/>
<feBlend mode="normal" in="SourceGraphic" in2="effect4_dropShadow_0_242" result="shape"/>
</filter>
</defs>
</svg>
