<svg width="63" height="44" viewBox="0 0 63 44" fill="none" xmlns="http://www.w3.org/2000/svg">
<g clip-path="url(#clip0_49_3480)">
<mask id="mask0_49_3480" style="mask-type:luminance" maskUnits="userSpaceOnUse" x="0" y="0" width="63" height="44">
<path d="M0.0137124 0.115576H62.6972V43.9865H0.0137124V0.115576Z" fill="white"/>
</mask>
<g mask="url(#mask0_49_3480)">
<path fill-rule="evenodd" clip-rule="evenodd" d="M26.0908 4.90189C28.1127 2.79542 30.928 1.48833 34.0414 1.48833C38.1799 1.48833 41.7911 3.79613 43.7135 7.22259C45.4336 6.454 47.2968 6.05785 49.1808 6.06017C56.6456 6.06017 62.6973 12.1646 62.6973 19.6953C62.6973 27.226 56.6456 33.3307 49.1808 33.3307C48.2693 33.3307 47.3791 33.239 46.518 33.0653C44.8251 36.0851 41.5976 38.1259 37.8943 38.1259C36.3963 38.128 34.9178 37.7877 33.5715 37.131C31.8552 41.1691 27.8552 44.0003 23.1946 44.0003C18.3401 44.0003 14.2027 40.929 12.6158 36.6217C11.9084 36.7709 11.1875 36.8459 10.4646 36.8456C4.68495 36.8456 0 32.1116 0 26.272C0 22.3581 2.10462 18.9411 5.23276 17.1131C4.57 15.587 4.22895 13.9406 4.2309 12.2768C4.2309 5.5605 9.68297 0.115576 16.4083 0.115576C20.3567 0.115576 23.8659 1.9926 26.0908 4.90189Z" fill="#00A1E0"/>
</g>
<path fill-rule="evenodd" clip-rule="evenodd" d="M9.08105 22.8733C9.04166 22.9761 9.0951 22.9975 9.10777 23.0157C9.22549 23.1009 9.34505 23.1627 9.46576 23.232C10.105 23.5704 10.7093 23.6697 11.3405 23.6697C12.6266 23.6697 13.4255 22.986 13.4255 21.8848V21.8632C13.4255 20.845 12.5236 20.475 11.6784 20.208L11.5681 20.1723C10.9307 19.9654 10.3805 19.7864 10.3805 19.3665V19.3451C10.3805 18.9855 10.7021 18.7212 11.2004 18.7212C11.7544 18.7212 12.411 18.9053 12.8344 19.1391C12.8344 19.1391 12.9593 19.2197 13.0046 19.0993C13.0293 19.0341 13.2433 18.4577 13.2661 18.3953C13.2905 18.3278 13.2477 18.2769 13.2037 18.2506C12.7201 17.956 12.0523 17.7555 11.361 17.7555L11.2327 17.756C10.0555 17.756 9.23355 18.4678 9.23355 19.4865V19.5084C9.23355 20.5819 10.1403 20.9309 10.9896 21.1735L11.126 21.2159C11.7445 21.4057 12.2788 21.5697 12.2788 22.0049V22.0265C12.2788 22.4251 11.9316 22.7211 11.3725 22.7211C11.1557 22.7211 10.4637 22.7174 9.71594 22.2444C9.62541 22.1917 9.5738 22.1537 9.504 22.1111C9.46714 22.0887 9.375 22.0484 9.33491 22.1691L9.08105 22.8733ZM27.9089 22.8733C27.8695 22.9761 27.9229 22.9975 27.936 23.0157C28.0533 23.1009 28.1731 23.1627 28.2936 23.232C28.9331 23.5704 29.5373 23.6697 30.1683 23.6697C31.4544 23.6697 32.2536 22.986 32.2536 21.8848V21.8632C32.2536 20.845 31.3519 20.475 30.5065 20.208L30.3961 20.1723C29.7587 19.9654 29.2083 19.7864 29.2083 19.3665V19.3451C29.2083 18.9855 29.5302 18.7212 30.0287 18.7212C30.5825 18.7212 31.2388 18.9053 31.6622 19.1391C31.6622 19.1391 31.7871 19.2197 31.8327 19.0993C31.8571 19.0341 32.0713 18.4577 32.0939 18.3953C32.1186 18.3278 32.0755 18.2769 32.0317 18.2506C31.5479 17.956 30.8803 17.7555 30.189 17.7555L30.0605 17.756C28.8835 17.756 28.0616 18.4678 28.0616 19.4865V19.5084C28.0616 20.5819 28.9681 20.9309 29.8177 21.1735L29.9538 21.2159C30.5726 21.4057 31.1068 21.5697 31.1068 22.0049V22.0265C31.1068 22.4251 30.7594 22.7211 30.2008 22.7211C29.9835 22.7211 29.2915 22.7174 28.544 22.2444C28.4534 22.1917 28.4005 22.1553 28.3318 22.1111C28.3085 22.0963 28.2 22.0539 28.1629 22.1691L27.9089 22.8733ZM40.7621 20.7162C40.7621 21.3382 40.646 21.8293 40.418 22.1756C40.1913 22.5188 39.8492 22.6858 39.3721 22.6858C38.895 22.6858 38.5548 22.519 38.3318 22.176C38.1067 21.8296 37.9924 21.3382 37.9924 20.7162C37.9924 20.0947 38.1067 19.6051 38.3318 19.2624C38.5548 18.9226 38.895 18.7576 39.3721 18.7576C39.8492 18.7576 40.1913 18.9228 40.418 19.2626C40.6465 19.6051 40.7621 20.0947 40.7621 20.7162ZM41.8361 19.5628C41.7303 19.2059 41.5661 18.8919 41.3475 18.63C41.1284 18.3674 40.8513 18.1561 40.5228 18.0032C40.1947 17.85 39.8077 17.7724 39.3721 17.7724C38.9365 17.7724 38.5492 17.85 38.221 18.0032C37.8929 18.1561 37.6156 18.3674 37.3965 18.6305C37.1781 18.8929 37.0134 19.2064 36.9081 19.5628C36.8033 19.9168 36.7501 20.305 36.7501 20.7162C36.7501 21.1276 36.8033 21.516 36.9081 21.8696C37.0134 22.2258 37.1776 22.5395 37.3967 22.8024C37.6158 23.0655 37.8938 23.2749 38.2214 23.4242C38.5499 23.5734 38.9369 23.6494 39.3721 23.6494C39.8075 23.6494 40.194 23.5734 40.5223 23.4242C40.8503 23.2749 41.1279 23.0655 41.3475 22.8024C41.5661 22.5405 41.7303 22.2262 41.8361 21.8696C41.9407 21.5153 41.9939 21.1272 41.9939 20.7162C41.9939 20.3055 41.9407 19.9171 41.8361 19.5628ZM50.6515 22.5193C50.6162 22.4149 50.5144 22.4543 50.5144 22.4543C50.3585 22.514 50.1926 22.5693 50.0152 22.5969C49.8365 22.625 49.6386 22.6391 49.4269 22.6391C48.9079 22.6391 48.4943 22.4845 48.1993 22.179C47.9028 21.8733 47.7362 21.3794 47.7381 20.7114C47.7397 20.1041 47.8866 19.6466 48.1502 19.2978C48.4114 18.9514 48.8104 18.7735 49.3409 18.7735C49.7839 18.7735 50.1219 18.8249 50.476 18.9359C50.476 18.9359 50.56 18.9726 50.6004 18.8618C50.6946 18.6008 50.7641 18.4151 50.8646 18.1283C50.8931 18.0465 50.8231 18.0119 50.7975 18.002C50.6584 17.9477 50.3297 17.8585 50.0816 17.821C49.8496 17.7855 49.5784 17.7671 49.276 17.7671C48.8252 17.7671 48.4232 17.8442 48.0795 17.9972C47.7364 18.1499 47.4455 18.3609 47.2149 18.6233C46.9843 18.8862 46.8088 19.2002 46.6927 19.5563C46.5763 19.9106 46.5176 20.2995 46.5176 20.7118C46.5176 21.6022 46.7579 22.3216 47.2317 22.8487C47.7072 23.3776 48.4204 23.6462 49.3513 23.6462C49.9012 23.6462 50.4654 23.535 50.8717 23.3751C50.8717 23.3751 50.9491 23.3378 50.9155 23.2475L50.6515 22.5193ZM52.5299 20.1198C52.5813 19.774 52.6759 19.4867 52.8236 19.2624C53.0464 18.9226 53.3855 18.7353 53.8626 18.7353C54.3399 18.7353 54.6543 18.9228 54.881 19.2626C55.0307 19.4872 55.0962 19.7864 55.1217 20.1202L52.5299 20.1198ZM56.1441 19.3603C56.0526 19.0161 55.8274 18.6685 55.6792 18.5095C55.4454 18.2575 55.2164 18.081 54.9891 17.9836C54.66 17.8437 54.306 17.7719 53.9485 17.7724C53.4949 17.7724 53.0828 17.8491 52.7485 18.0057C52.4138 18.1628 52.1325 18.3775 51.9121 18.6443C51.6911 18.9108 51.5255 19.228 51.4198 19.5879C51.3138 19.9456 51.2604 20.3356 51.2604 20.7475C51.2604 21.1663 51.3159 21.5568 51.4251 21.9079C51.5354 22.262 51.7126 22.5727 51.9517 22.8314C52.1906 23.091 52.4981 23.2947 52.8655 23.4366C53.2311 23.5783 53.6753 23.6518 54.1846 23.6501C55.2346 23.6467 55.7868 23.4126 56.0149 23.2866C56.0552 23.264 56.0932 23.2251 56.0457 23.1129L55.808 22.4476C55.7716 22.3483 55.6712 22.3843 55.6712 22.3843C55.4106 22.4815 55.0418 22.655 54.1793 22.6531C53.6158 22.6522 53.1984 22.4856 52.936 22.2256C52.6677 21.9595 52.5359 21.5688 52.5135 21.0168L56.1469 21.0196C56.1469 21.0196 56.2427 21.0187 56.2526 20.9251C56.2565 20.8864 56.3772 20.1788 56.1441 19.3603ZM23.4257 20.1198C23.4771 19.774 23.572 19.4867 23.7194 19.2624C23.9424 18.9226 24.2811 18.7353 24.7586 18.7353C25.2359 18.7353 25.5504 18.9228 25.777 19.2626C25.9266 19.4872 25.992 19.7864 26.0175 20.1202L23.4257 20.1198ZM27.0399 19.3603C26.9487 19.0161 26.7232 18.6685 26.5753 18.5095C26.3414 18.2575 26.1127 18.081 25.8851 17.9836C25.556 17.8438 25.2021 17.772 24.8445 17.7724C24.3909 17.7724 23.9788 17.8491 23.6446 18.0057C23.3098 18.1628 23.0286 18.3775 22.8076 18.6443C22.5872 18.9108 22.4215 19.228 22.3153 19.5879C22.2096 19.9456 22.1564 20.3356 22.1564 20.7475C22.1564 21.1663 22.2114 21.5568 22.3213 21.9079C22.4314 22.262 22.6088 22.5727 22.8475 22.8314C23.0866 23.091 23.3939 23.2947 23.7613 23.4366C24.1272 23.5783 24.5709 23.6518 25.0807 23.6501C26.1304 23.6467 26.6828 23.4126 26.9109 23.2866C26.951 23.264 26.9892 23.2251 26.9415 23.1129L26.704 22.4476C26.6674 22.3483 26.567 22.3843 26.567 22.3843C26.3067 22.4815 25.9378 22.655 25.0751 22.6531C24.5119 22.6522 24.0942 22.4856 23.8318 22.2256C23.5637 21.9595 23.4317 21.5688 23.4093 21.0168L27.0429 21.0196C27.0429 21.0196 27.1387 21.0187 27.1486 20.9251C27.1526 20.8864 27.2733 20.1788 27.0399 19.3603ZM15.5709 22.4995C15.4283 22.3857 15.4085 22.3578 15.3613 22.2838C15.2892 22.1726 15.2523 22.0141 15.2523 21.8111C15.2523 21.4921 15.3583 21.2622 15.5767 21.1078C15.5744 21.1083 15.89 20.8355 16.6306 20.8452C16.961 20.8511 17.2906 20.8792 17.6173 20.9293V22.581H17.6177C17.6177 22.581 17.1558 22.6803 16.6359 22.7116C15.8969 22.7561 15.5686 22.4988 15.5709 22.4995ZM17.0169 19.9456C16.8695 19.9348 16.6785 19.9295 16.4495 19.9295C16.1383 19.9295 15.8372 19.9682 15.5546 20.0442C15.2708 20.1207 15.0155 20.2391 14.796 20.396C14.5766 20.5527 14.3961 20.7578 14.2687 20.9954C14.1399 21.2352 14.0742 21.517 14.0742 21.8328C14.0742 22.1551 14.1302 22.4343 14.2408 22.6623C14.349 22.8885 14.5118 23.084 14.7146 23.2313C14.9167 23.3783 15.1659 23.4861 15.455 23.552C15.7405 23.6172 16.0639 23.6501 16.4173 23.6501C16.7905 23.6501 17.1616 23.6188 17.5212 23.5582C17.8275 23.5054 18.1327 23.4462 18.4364 23.3804C18.5576 23.3525 18.6912 23.3159 18.6912 23.3159C18.7811 23.2931 18.7742 23.197 18.7742 23.197L18.7721 19.8738C18.7721 19.1449 18.5777 18.6049 18.1946 18.2695C17.8133 17.9357 17.2519 17.7671 16.5256 17.7671C16.2528 17.7671 15.8146 17.8039 15.5516 17.8567C15.5516 17.8567 14.7582 18.0106 14.4315 18.2665C14.4315 18.2665 14.3597 18.3107 14.3988 18.4109L14.6561 19.102C14.6882 19.1916 14.7755 19.161 14.7755 19.161C14.7755 19.161 14.8029 19.1502 14.8351 19.1311C15.5341 18.7509 16.4184 18.7622 16.4184 18.7622C16.811 18.7622 17.1134 18.8417 17.3166 18.9972C17.515 19.1495 17.6156 19.3787 17.6156 19.8632V20.0168C17.304 19.9717 17.0169 19.9456 17.0169 19.9456ZM46.3275 18.0734C46.3328 18.0613 46.3355 18.0482 46.3356 18.035C46.3357 18.0218 46.3331 18.0086 46.328 17.9964C46.3229 17.9842 46.3154 17.9732 46.3059 17.9639C46.2965 17.9547 46.2852 17.9474 46.2729 17.9426C46.211 17.9191 45.902 17.8539 45.6638 17.8392C45.207 17.8106 44.9539 17.8875 44.7267 17.9898C44.5014 18.0914 44.2519 18.2557 44.1128 18.4429L44.1123 17.9997C44.1123 17.9389 44.0693 17.8898 44.008 17.8898H43.0764C43.016 17.8898 42.9722 17.9389 42.9722 17.9997V23.4207C42.9723 23.4499 42.984 23.478 43.0046 23.4987C43.0253 23.5193 43.0533 23.531 43.0826 23.531H44.0375C44.0667 23.531 44.0947 23.5193 44.1153 23.4986C44.136 23.478 44.1476 23.4499 44.1476 23.4207V20.7127C44.1476 20.349 44.1877 19.9866 44.2676 19.7588C44.3464 19.5333 44.4535 19.3536 44.5862 19.2243C44.7119 19.0996 44.8658 19.007 45.0349 18.9544C45.1934 18.9089 45.3575 18.8858 45.5224 18.8857C45.7124 18.8857 45.9216 18.9346 45.9216 18.9346C45.9917 18.9424 46.0306 18.8995 46.0543 18.8364C46.1167 18.6703 46.2937 18.1725 46.3275 18.0734Z" fill="#FFFFFE"/>
<path fill-rule="evenodd" clip-rule="evenodd" d="M37.3652 15.5608C37.2474 15.5252 37.1274 15.4967 37.0061 15.4756C36.8429 15.4483 36.6776 15.4355 36.5122 15.4373C35.855 15.4373 35.3369 15.623 34.9731 15.9898C34.6119 16.3537 34.3661 16.9082 34.2429 17.6378L34.1984 17.8841H33.3735C33.3735 17.8841 33.2728 17.8799 33.2516 17.9898L33.1161 18.7454C33.1067 18.8177 33.1378 18.8629 33.2345 18.8624H34.0376L33.2228 23.4105C33.159 23.7768 33.086 24.0781 33.0051 24.3064C32.9254 24.5317 32.8475 24.7006 32.7517 24.8231C32.6589 24.9418 32.5709 25.0291 32.419 25.08C32.2937 25.1221 32.1495 25.1415 31.9915 25.1415C31.9035 25.1415 31.7865 25.1268 31.7001 25.1095C31.6137 25.0924 31.5688 25.0731 31.504 25.0459C31.504 25.0459 31.4098 25.01 31.3727 25.1044C31.3426 25.1816 31.1285 25.7702 31.1032 25.843C31.0774 25.9148 31.1136 25.9715 31.1592 25.9879C31.2661 26.0261 31.3455 26.0505 31.4911 26.0848C31.6934 26.1325 31.8639 26.1355 32.0235 26.1355C32.358 26.1355 32.6628 26.0885 32.9155 25.9973C33.1698 25.9054 33.3912 25.7453 33.587 25.5285C33.7987 25.2947 33.9319 25.0498 34.0593 24.7158C34.1853 24.3847 34.2926 23.9738 34.3785 23.4948L35.1973 18.8624H36.3942C36.3942 18.8624 36.4951 18.8661 36.5161 18.7567L36.6516 18.0011C36.661 17.9287 36.6301 17.8836 36.5329 17.8841H35.3712C35.3769 17.8578 35.4297 17.4491 35.5631 17.0644C35.62 16.9002 35.7271 16.7677 35.8179 16.6767C35.9026 16.59 36.007 16.5251 36.1222 16.4873C36.2484 16.4483 36.38 16.4293 36.5122 16.4311C36.6216 16.4311 36.729 16.4443 36.8107 16.4613C36.9234 16.4853 36.9672 16.4979 36.9966 16.5067C37.1151 16.5429 37.131 16.5078 37.1542 16.4505L37.432 15.6875C37.4606 15.6055 37.391 15.5709 37.3652 15.5608ZM21.1304 23.4202C21.1304 23.481 21.0871 23.5305 21.0263 23.5305H20.0627C20.0016 23.5305 19.9583 23.481 19.9583 23.4202V15.6642C19.9583 15.6037 20.0016 15.5546 20.0627 15.5546H21.0263C21.0871 15.5546 21.1304 15.6037 21.1304 15.6642V23.4202Z" fill="#FFFFFE"/>
</g>
<defs>
<clipPath id="clip0_49_3480">
<rect width="62.7042" height="43.87" fill="white" transform="scale(1.00296)"/>
</clipPath>
</defs>
</svg>
