<svg width="30" height="30" viewBox="0 0 30 30" fill="none" xmlns="http://www.w3.org/2000/svg">
<path d="M21.6196 15.9949L12.2446 25.3699C11.9804 25.6341 11.6221 25.7825 11.2485 25.7825C10.8749 25.7825 10.5166 25.6341 10.2524 25.3699C9.98826 25.1057 9.83984 24.7474 9.83984 24.3738C9.83984 24.0002 9.98826 23.6419 10.2524 23.3777L18.6325 14.9999L10.2548 6.61987C10.124 6.48906 10.0202 6.33377 9.94942 6.16286C9.87862 5.99195 9.84219 5.80877 9.84219 5.62378C9.84219 5.43879 9.87862 5.2556 9.94942 5.08469C10.0202 4.91378 10.124 4.75849 10.2548 4.62768C10.3856 4.49687 10.5409 4.39311 10.7118 4.32232C10.8827 4.25152 11.0659 4.21509 11.2509 4.21509C11.4359 4.21509 11.619 4.25152 11.79 4.32232C11.9609 4.39311 12.1162 4.49687 12.247 4.62768L21.622 14.0027C21.7529 14.1335 21.8568 14.2888 21.9275 14.4599C21.9983 14.6309 22.0346 14.8142 22.0344 14.9993C22.0342 15.1843 21.9974 15.3676 21.9263 15.5384C21.8551 15.7093 21.7509 15.8644 21.6196 15.9949Z" fill="black"/>
</svg>
