<svg width="28" height="31" viewBox="0 0 28 31" fill="none" xmlns="http://www.w3.org/2000/svg">
<path d="M12.927 14.8059L0.0858972 28.4306C0.226176 28.946 0.483036 29.4222 0.836634 29.8224C1.19023 30.2227 1.63111 30.5363 2.1252 30.7391C2.6193 30.9418 3.15339 31.0283 3.68623 30.9918C4.21906 30.9553 4.73637 30.7968 5.19821 30.5286L19.667 22.185L12.927 14.8059Z" fill="#EA4335"/>
<path d="M25.9117 12.4913L19.666 8.87407L12.6486 15.1318L19.6901 22.1853L25.8996 18.5681C26.4516 18.2725 26.913 17.8326 27.2347 17.2954C27.5564 16.7582 27.7263 16.1438 27.7263 15.5176C27.7263 14.8915 27.5564 14.277 27.2347 13.7398C26.913 13.2026 26.4516 12.7628 25.8996 12.4671L25.9117 12.4913Z" fill="#FBBC04"/>
<path d="M0.0856383 2.57988C0.0218751 2.86467 -0.00647286 3.15626 0.00123724 3.448V27.5626C0.00334157 27.8639 0.0438599 28.1637 0.121811 28.4548L13.3849 15.1918L0.0856383 2.57988Z" fill="#4285F4"/>
<path d="M13.0231 15.5057L19.6667 8.8621L5.19785 0.494348C4.65427 0.171214 4.03368 0.00045053 3.40131 0C2.63851 0.00218605 1.89751 0.254611 1.29201 0.718537C0.686503 1.18246 0.249961 1.83226 0.0493662 2.5682L13.0231 15.5057Z" fill="#34A853"/>
</svg>
