<svg width="30" height="30" viewBox="0 0 30 30" fill="none" xmlns="http://www.w3.org/2000/svg">
<path d="M28.1827 1.81766C28.0521 1.68656 27.8968 1.58254 27.7259 1.51156C27.555 1.44059 27.3717 1.40405 27.1866 1.40405C27.0015 1.40405 26.8183 1.44059 26.6473 1.51156C26.4764 1.58254 26.3212 1.68656 26.1905 1.81766L20.3839 7.62782L20.0862 7.32899C19.2943 6.53931 18.2216 6.09587 17.1032 6.09587C15.9849 6.09587 14.9121 6.53931 14.1202 7.32899L11.719 9.72665L11.3077 9.31415C11.1769 9.18334 11.0216 9.07957 10.8507 9.00878C10.6798 8.93799 10.4966 8.90155 10.3116 8.90155C9.93801 8.90155 9.57971 9.04997 9.31553 9.31415C9.18472 9.44495 9.08095 9.60025 9.01016 9.77116C8.93937 9.94207 8.90293 10.1252 8.90293 10.3102C8.90293 10.6838 9.05135 11.0422 9.31553 11.3063L9.72685 11.7188L7.3292 14.12C6.53809 14.9112 6.09365 15.9842 6.09365 17.103C6.09365 18.2218 6.53809 19.2949 7.3292 20.086L7.62803 20.3837L1.81787 26.1927C1.55369 26.4568 1.40527 26.8151 1.40527 27.1888C1.40527 27.5624 1.55369 27.9207 1.81787 28.1848C2.08205 28.449 2.44036 28.5974 2.81396 28.5974C3.18757 28.5974 3.54588 28.449 3.81006 28.1848L9.61904 22.3747L9.9167 22.6735C10.7088 23.4629 11.7814 23.9062 12.8997 23.9062C14.018 23.9062 15.0906 23.4629 15.8827 22.6735L18.2815 20.2735L18.6929 20.686C18.9571 20.9502 19.3154 21.0986 19.689 21.0986C20.0626 21.0986 20.4209 20.9502 20.6851 20.686C20.9492 20.4218 21.0977 20.0635 21.0977 19.6899C21.0977 19.3163 20.9492 18.958 20.6851 18.6938L20.2737 18.2813L22.6749 15.8802C23.466 15.089 23.9104 14.016 23.9104 12.8972C23.9104 11.7783 23.466 10.7053 22.6749 9.91415L22.3761 9.61649L28.1862 3.80751C28.3167 3.67667 28.4202 3.5214 28.4907 3.35055C28.5611 3.17971 28.5972 2.99666 28.5969 2.81185C28.5966 2.62705 28.5598 2.44413 28.4888 2.27353C28.4177 2.10294 28.3137 1.94803 28.1827 1.81766ZM13.8917 20.6848C13.7611 20.8159 13.6058 20.92 13.4349 20.9909C13.2639 21.0619 13.0807 21.0985 12.8956 21.0985C12.7105 21.0985 12.5273 21.0619 12.3563 20.9909C12.1854 20.92 12.0302 20.8159 11.8995 20.6848L9.31787 18.0973C9.18677 17.9667 9.08275 17.8115 9.01177 17.6405C8.9408 17.4696 8.90426 17.2863 8.90426 17.1013C8.90426 16.9162 8.9408 16.7329 9.01177 16.562C9.08275 16.391 9.18677 16.2358 9.31787 16.1052L11.719 13.711L16.2894 18.2813L13.8917 20.6848ZM20.6886 13.8938L18.2815 16.2891L13.7112 11.7188L16.1124 9.31766C16.243 9.18656 16.3983 9.08254 16.5692 9.01156C16.7402 8.94059 16.9234 8.90405 17.1085 8.90405C17.2936 8.90405 17.4768 8.94059 17.6478 9.01156C17.8187 9.08254 17.9739 9.18656 18.1046 9.31766L20.6897 11.9028C20.8208 12.0335 20.9249 12.1887 20.9958 12.3596C21.0668 12.5306 21.1034 12.7138 21.1034 12.8989C21.1034 13.084 21.0668 13.2673 20.9958 13.4382C20.9249 13.6091 20.8208 13.7644 20.6897 13.895L20.6886 13.8938ZM9.99287 3.91063C9.83233 3.5779 9.80918 3.19536 9.92841 2.8457C10.0476 2.49603 10.2997 2.20733 10.63 2.04199C10.9604 1.87665 11.3426 1.84796 11.6939 1.96211C12.0453 2.07627 12.3376 2.3241 12.5077 2.65204L13.4452 4.52704C13.531 4.69249 13.5831 4.87335 13.5984 5.05911C13.6137 5.24486 13.5919 5.43181 13.5343 5.60907C13.4767 5.78633 13.3845 5.95038 13.2629 6.09167C13.1414 6.23296 12.9929 6.34868 12.8263 6.4321C12.6596 6.51551 12.478 6.56496 12.292 6.57757C12.1061 6.59018 11.9195 6.5657 11.7431 6.50555C11.5666 6.44539 11.404 6.35077 11.2644 6.22718C11.1249 6.10359 11.0114 5.9535 10.9304 5.78563L9.99287 3.91063ZM2.02412 10.6208C2.19105 10.2873 2.48359 10.0338 2.83741 9.91603C3.19123 9.79824 3.57734 9.8258 3.91084 9.99266L5.78584 10.9302C5.95371 11.0112 6.1038 11.1247 6.22739 11.2642C6.35098 11.4037 6.4456 11.5664 6.50575 11.7429C6.56591 11.9193 6.59039 12.1059 6.57778 12.2918C6.56517 12.4778 6.51572 12.6594 6.43231 12.8261C6.34889 12.9927 6.23317 13.1412 6.09188 13.2627C5.95059 13.3843 5.78654 13.4765 5.60928 13.5341C5.43201 13.5917 5.24507 13.6135 5.05931 13.5982C4.87356 13.5829 4.6927 13.5308 4.52724 13.445L2.65224 12.5075C2.31878 12.3406 2.06528 12.048 1.94749 11.6942C1.82969 11.3404 1.85726 10.9543 2.02412 10.6208ZM27.9765 19.3794C27.8095 19.7128 27.517 19.9663 27.1632 20.0841C26.8094 20.2019 26.4232 20.1744 26.0897 20.0075L24.2147 19.07C23.8868 18.8999 23.639 18.6076 23.5248 18.2562C23.4107 17.9049 23.4394 17.5227 23.6047 17.1923C23.77 16.862 24.0587 16.6099 24.4084 16.4907C24.7581 16.3715 25.1406 16.3946 25.4733 16.5552L27.3483 17.4927C27.6818 17.6596 27.9353 17.9521 28.0531 18.306C28.1709 18.6598 28.1433 19.0459 27.9765 19.3794ZM20.0077 26.0895C20.0935 26.255 20.1456 26.4359 20.1609 26.6216C20.1762 26.8074 20.1544 26.9943 20.0968 27.1716C20.0392 27.3488 19.947 27.5129 19.8254 27.6542C19.7039 27.7955 19.5554 27.9112 19.3888 27.9946C19.2221 28.078 19.0405 28.1275 18.8545 28.1401C18.6686 28.1527 18.482 28.1282 18.3056 28.068C18.1291 28.0079 17.9665 27.9133 17.8269 27.7897C17.6874 27.6661 17.5739 27.516 17.4929 27.3481L16.5554 25.4731C16.3948 25.1404 16.3717 24.7579 16.4909 24.4082C16.6101 24.0585 16.8622 23.7698 17.1925 23.6045C17.5229 23.4392 17.9051 23.4105 18.2564 23.5246C18.6078 23.6388 18.9001 23.8866 19.0702 24.2145L20.0077 26.0895Z" fill="black"/>
</svg>
