<svg width="40" height="40" viewBox="0 0 40 40" fill="none" xmlns="http://www.w3.org/2000/svg">
<path d="M30 10C33.45 13.4 34.75 18.15 33.9333 22.5833C34.6167 23.7833 35 25.1833 35 26.6667C35 28.8768 34.122 30.9964 32.5592 32.5592C30.9964 34.122 28.8768 35 26.6667 35C25.1833 35 23.7833 34.6167 22.5833 33.9333C18.15 34.75 13.4 33.45 10 30C6.55 26.6 5.25 21.85 6.06667 17.4167C5.38333 16.2167 5 14.8167 5 13.3333C5 11.1232 5.87797 9.00358 7.44078 7.44078C9.00358 5.87797 11.1232 5 13.3333 5C14.8167 5 16.2167 5.38333 17.4167 6.06667C21.85 5.25 26.6 6.55 30 10ZM20.0667 28.6C24.85 28.6 27.2333 26.3 27.2333 23.2C27.2333 21.2167 26.3 19.1 22.6833 18.2833L19.3667 17.55C18.1 17.2667 16.6667 16.8833 16.6667 15.7C16.6667 14.5 17.6667 13.6667 19.5 13.6667C23.2167 13.6667 22.8667 16.2167 24.7167 16.2167C25.6833 16.2167 26.5167 15.65 26.5167 14.6667C26.5167 12.3833 22.8667 10.6667 19.7667 10.6667C16.4167 10.6667 12.8333 12.1 12.8333 15.9C12.8333 17.7333 13.4833 19.6833 17.0833 20.5833L21.5667 21.7167C22.9167 22.05 23.25 22.8 23.25 23.5C23.25 24.6333 22.1167 25.75 20.0667 25.75C16.05 25.75 16.6 22.6667 14.45 22.6667C13.4833 22.6667 12.7833 23.3333 12.7833 24.2833C12.7833 26.1333 15 28.6 20.0667 28.6Z" fill="black"/>
</svg>
