<svg width="334" height="107" viewBox="0 0 334 107" fill="none" xmlns="http://www.w3.org/2000/svg">
<rect x="2.85449" y="1.65707" width="329.304" height="104.783" stroke="#F1F1F1" stroke-width="1.11963" stroke-dasharray="2.24 2.24"/>
<path d="M2.29468 36.3999H332.718" stroke="#F1F1F1" stroke-width="1.11963" stroke-dasharray="2.24 2.24"/>
<path d="M2.29468 71.7001H332.718" stroke="#F1F1F1" stroke-width="1.11963" stroke-dasharray="2.24 2.24"/>
<path d="M57.364 1.09725L57.3639 105.897" stroke="#F1F1F1" stroke-width="1.11963" stroke-dasharray="2.24 2.24"/>
<path d="M112.435 1.09725L112.435 105.897" stroke="#F1F1F1" stroke-width="1.11963" stroke-dasharray="2.24 2.24"/>
<path d="M167.509 1.09725L167.509 105.897" stroke="#F1F1F1" stroke-width="1.11963" stroke-dasharray="2.24 2.24"/>
<path d="M222.58 1.09725L222.58 105.897" stroke="#F1F1F1" stroke-width="1.11963" stroke-dasharray="2.24 2.24"/>
<path d="M277.652 1.09725L277.652 105.897" stroke="#F1F1F1" stroke-width="1.11963" stroke-dasharray="2.24 2.24"/>
<path d="M4.01471 106.054C19.6945 91.508 53.5782 65.2888 63.6744 76.7781C76.2948 91.1397 82.0313 100.53 91.2097 96.111C100.388 91.6921 104.977 3.8654 116.45 25.9602C127.923 48.0549 159.474 50.2645 167.505 48.6074C175.536 46.9503 226.591 11.5987 246.669 55.7882C262.731 91.1398 311.109 89.2986 333.291 83.959" stroke="#7987FF" stroke-width="1.11963"/>
<path d="M2.86834 17.1233C10.517 35.3515 35.2223 70.3717 72.8538 64.6271C119.893 57.4463 162.917 -4.97143 202.499 49.1607C234.165 92.4665 302.506 58.7351 332.718 36.4562" stroke="#E697FF" stroke-width="1.11963"/>
<path d="M3.44201 52.4746C14.7238 43.4526 46.2364 28.9437 82.0322 43.0843C126.777 60.7601 131.94 103.845 206.515 94.4549C281.089 85.0646 272.484 0.552158 332.718 2.20927" stroke="#FFA5CB" stroke-width="1.11963"/>
<path d="M2.86834 14.9215C4.16313 14.9215 5.17669 15.9272 5.1767 17.1233C5.1767 18.3194 4.16314 19.3251 2.86834 19.3252C1.57351 19.3252 0.559987 18.3195 0.559987 17.1233C0.560001 15.9272 1.57352 14.9215 2.86834 14.9215Z" stroke="#E697FF" stroke-width="1.11963"/>
<path d="M2.86834 51.3768C4.16313 51.3769 5.17669 52.3826 5.1767 53.5787C5.1767 54.7748 4.16314 55.7805 2.86834 55.7805C1.57351 55.7805 0.559987 54.7748 0.559987 53.5787C0.560001 52.3825 1.57352 51.3768 2.86834 51.3768Z" stroke="#FFA5CB" stroke-width="1.11963"/>
<path d="M57.9406 72.3675C59.2353 72.3676 60.2489 73.3733 60.2489 74.5694C60.2489 75.7655 59.2354 76.7712 57.9406 76.7712C56.6457 76.7712 55.6322 75.7655 55.6322 74.5694C55.6322 73.3733 56.6457 72.3675 57.9406 72.3675Z" stroke="#7987FF" stroke-width="1.11963"/>
<path d="M113.009 20.4451C114.304 20.4452 115.317 21.4509 115.317 22.647C115.317 23.8431 114.304 24.8488 113.009 24.8488C111.714 24.8488 110.701 23.8431 110.701 22.647C110.701 21.4508 111.714 20.4451 113.009 20.4451Z" stroke="#7987FF" stroke-width="1.11963"/>
<path d="M168.081 46.9585C169.376 46.9586 170.389 47.9642 170.389 49.1603C170.389 50.3565 169.376 51.3621 168.081 51.3622C166.786 51.3622 165.773 50.3565 165.773 49.1603C165.773 47.9642 166.786 46.9585 168.081 46.9585Z" stroke="#7987FF" stroke-width="1.11963"/>
<path d="M223.153 32.5982C224.448 32.5983 225.462 33.604 225.462 34.8001C225.462 35.9962 224.448 37.0018 223.153 37.0019C221.858 37.0019 220.845 35.9962 220.845 34.8001C220.845 33.6039 221.858 32.5982 223.153 32.5982Z" stroke="#7987FF" stroke-width="1.11963"/>
<path d="M278.224 81.2054C279.518 81.2055 280.532 82.2112 280.532 83.4073C280.532 84.6034 279.518 85.609 278.224 85.6091C276.929 85.6091 275.915 84.6034 275.915 83.4073C275.915 82.2111 276.929 81.2054 278.224 81.2054Z" stroke="#7987FF" stroke-width="1.11963"/>
<path d="M329.854 81.2054C331.149 81.2055 332.162 82.2112 332.162 83.4073C332.162 84.6034 331.149 85.609 329.854 85.6091C328.559 85.6091 327.545 84.6034 327.545 83.4073C327.545 82.2111 328.559 81.2054 329.854 81.2054Z" stroke="#7987FF" stroke-width="1.11963"/>
<path d="M57.9406 34.8079C59.2353 34.8079 60.2489 35.8136 60.2489 37.0097C60.2489 38.2058 59.2354 39.2115 57.9406 39.2115C56.6457 39.2115 55.6322 38.2058 55.6322 37.0097C55.6322 35.8136 56.6457 34.8079 57.9406 34.8079Z" stroke="#FFA5CB" stroke-width="1.11963"/>
<path d="M113.009 60.2157C114.304 60.2157 115.317 61.2214 115.317 62.4175C115.317 63.6136 114.304 64.6193 113.009 64.6194C111.714 64.6194 110.701 63.6137 110.701 62.4175C110.701 61.2214 111.714 60.2157 113.009 60.2157Z" stroke="#FFA5CB" stroke-width="1.11963"/>
<path d="M168.081 92.2527C169.376 92.2527 170.389 93.2584 170.389 94.4545C170.389 95.6507 169.376 96.6563 168.081 96.6564C166.786 96.6564 165.773 95.6507 165.773 94.4545C165.773 93.2584 166.786 92.2527 168.081 92.2527Z" stroke="#FFA5CB" stroke-width="1.11963"/>
<path d="M223.153 88.9387C224.448 88.9388 225.462 89.9444 225.462 91.1405C225.462 92.3367 224.448 93.3423 223.153 93.3424C221.858 93.3424 220.845 92.3367 220.845 91.1405C220.845 89.9444 221.858 88.9387 223.153 88.9387Z" stroke="#FFA5CB" stroke-width="1.11963"/>
<path d="M278.224 34.8079C279.518 34.8079 280.532 35.8136 280.532 37.0097C280.532 38.2058 279.518 39.2115 278.224 39.2115C276.929 39.2115 275.915 38.2058 275.915 37.0097C275.915 35.8136 276.929 34.8079 278.224 34.8079Z" stroke="#FFA5CB" stroke-width="1.11963"/>
<path d="M329.854 0.559987C331.149 0.560032 332.162 1.56572 332.162 2.76182C332.162 3.95794 331.149 4.96361 329.854 4.96365C328.559 4.96365 327.545 3.95796 327.545 2.76182C327.545 1.56569 328.559 0.559987 329.854 0.559987Z" stroke="#FFA5CB" stroke-width="1.11963"/>
<path d="M57.9406 62.4244C59.2353 62.4244 60.2489 63.4301 60.2489 64.6262C60.2489 65.8223 59.2354 66.828 57.9406 66.828C56.6457 66.828 55.6322 65.8223 55.6322 64.6262C55.6322 63.4301 56.6457 62.4244 57.9406 62.4244Z" stroke="#E697FF" stroke-width="1.11963"/>
<path d="M113.009 46.9585C114.304 46.9586 115.317 47.9642 115.317 49.1603C115.317 50.3565 114.304 51.3621 113.009 51.3622C111.714 51.3622 110.701 50.3565 110.701 49.1603C110.701 47.9642 111.714 46.9585 113.009 46.9585Z" stroke="#E697FF" stroke-width="1.11963"/>
<path d="M168.081 25.969C169.376 25.9691 170.389 26.9748 170.389 28.1709C170.389 29.367 169.376 30.3726 168.081 30.3727C166.786 30.3727 165.773 29.367 165.773 28.1709C165.773 26.9747 166.786 25.969 168.081 25.969Z" stroke="#E697FF" stroke-width="1.11963"/>
<path d="M223.153 64.634C224.448 64.6341 225.462 65.6397 225.462 66.8358C225.462 68.032 224.448 69.0376 223.153 69.0377C221.858 69.0377 220.845 68.032 220.845 66.8358C220.845 65.6397 221.858 64.634 223.153 64.634Z" stroke="#E697FF" stroke-width="1.11963"/>
<path d="M278.224 62.4244C279.518 62.4244 280.532 63.4301 280.532 64.6262C280.532 65.8223 279.518 66.828 278.224 66.828C276.929 66.828 275.915 65.8223 275.915 64.6262C275.915 63.4301 276.929 62.4244 278.224 62.4244Z" stroke="#E697FF" stroke-width="1.11963"/>
<path d="M329.854 34.8079C331.149 34.8079 332.162 35.8136 332.162 37.0097C332.162 38.2058 331.149 39.2115 329.854 39.2115C328.559 39.2115 327.545 38.2058 327.545 37.0097C327.545 35.8136 328.559 34.8079 329.854 34.8079Z" stroke="#E697FF" stroke-width="1.11963"/>
</svg>
