<svg width="30" height="30" viewBox="0 0 30 30" fill="none" xmlns="http://www.w3.org/2000/svg">
<path d="M24.8086 0H5.1914C2.32617 0 0 2.32617 0 5.1914V24.8086C0 27.6738 2.32617 30 5.1914 30H24.8086C27.6738 30 30 27.6738 30 24.8086V5.1914C30 2.32617 27.6738 0 24.8086 0ZM29.1445 24.8086C29.1445 27.1992 27.1992 29.1445 24.8086 29.1445H5.1914C2.80078 29.1445 0.855468 27.1992 0.855468 24.8086V5.1914C0.855468 2.80078 2.80078 0.855468 5.1914 0.855468H24.8086C27.1992 0.855468 29.1445 2.80078 29.1445 5.1914V24.8086Z" fill="black"/>
<path d="M3.04701 9.13467C3.28139 9.13467 3.47475 8.94131 3.47475 8.70694L3.46889 5.75967C3.46889 4.47647 4.48842 3.4335 5.74818 3.4335L8.75404 3.42764C8.98841 3.42764 9.18177 3.23428 9.18177 2.99991C9.18177 2.76554 8.98841 2.57218 8.75404 2.57218L5.74818 2.57804C4.01967 2.57804 2.61342 4.00772 2.61342 5.75381L2.61928 8.70108C2.61928 8.94131 2.81264 9.13467 3.04701 9.13467Z" fill="black"/>
<path d="M24.2514 2.572L21.2456 2.56614C21.0112 2.56614 20.8178 2.7595 20.8178 2.99387C20.8178 3.22825 21.0053 3.42161 21.2456 3.42161L24.2514 3.42747C25.5112 3.42747 26.5307 4.47629 26.5307 5.75364L26.5249 8.7009C26.5249 8.93528 26.7182 9.12863 26.9526 9.12863C27.187 9.12863 27.3803 8.93528 27.3803 8.7009L27.3862 5.75364C27.3862 4.00755 25.9799 2.57786 24.2514 2.572Z" fill="black"/>
<path d="M8.75406 26.5772L5.7482 26.5713C4.48844 26.5713 3.46891 25.5225 3.46891 24.2451L3.47476 21.2979C3.47476 21.0635 3.28141 20.8701 3.04703 20.8701C2.81266 20.8701 2.6193 21.0635 2.6193 21.2979L2.61344 24.2451C2.60758 25.9971 4.01383 27.4268 5.74234 27.4268L8.7482 27.4326C8.98257 27.4326 9.17593 27.2393 9.17593 27.0049C9.18179 26.7705 8.98843 26.5772 8.75406 26.5772Z" fill="black"/>
<path d="M26.9526 20.8651C26.7182 20.8651 26.5249 21.0585 26.5249 21.2928L26.5307 24.2401C26.5307 25.5233 25.5112 26.5663 24.2514 26.5663L21.2456 26.5721C21.0112 26.5721 20.8178 26.7655 20.8178 26.9999C20.8178 27.2342 21.0112 27.4276 21.2456 27.4276L24.2514 27.4217C25.9799 27.4159 27.3862 25.9921 27.3803 24.2401L27.3745 21.2928C27.3803 21.0585 27.187 20.8651 26.9526 20.8651Z" fill="black"/>
<path d="M17.9945 12.4393H22.4359C23.1273 12.4393 23.6957 11.8768 23.6957 11.1795V6.73809C23.6957 6.04668 23.1332 5.47832 22.4359 5.47832H17.9945C17.3031 5.47832 16.7347 6.04082 16.7347 6.73809V11.1795C16.7347 11.8709 17.2972 12.4393 17.9945 12.4393ZM17.5902 6.73809C17.5902 6.51543 17.7718 6.33379 17.9945 6.33379H22.4359C22.6586 6.33379 22.8402 6.51543 22.8402 6.73809V11.1795C22.8402 11.4021 22.6586 11.5838 22.4359 11.5838H17.9945C17.7718 11.5838 17.5902 11.4021 17.5902 11.1795V6.73809Z" fill="black"/>
<path d="M19.4292 10.4647H20.9995C21.3979 10.4647 21.7202 10.1424 21.7202 9.74399V8.17368C21.7202 7.77524 21.3979 7.45297 20.9995 7.45297H19.4292C19.0307 7.45297 18.7085 7.77524 18.7085 8.17368V9.74399C18.7026 10.1424 19.0307 10.4647 19.4292 10.4647ZM19.5581 8.30844H20.8647V9.61508H19.5581V8.30844Z" fill="black"/>
<path d="M23.6896 23.261V19.8625C23.6896 19.1711 23.1271 18.6028 22.4299 18.6028H17.9885C17.2971 18.6028 16.7287 19.1653 16.7287 19.8625V23.261C16.7287 23.9524 17.2912 24.5207 17.9885 24.5207H22.4299C23.1271 24.5207 23.6896 23.9524 23.6896 23.261ZM17.59 23.261V19.8625C17.59 19.6399 17.7717 19.4582 17.9943 19.4582H22.4357C22.6584 19.4582 22.84 19.6399 22.84 19.8625V23.261C22.84 23.4836 22.6584 23.6653 22.4357 23.6653H17.9943C17.7717 23.6653 17.59 23.4836 17.59 23.261Z" fill="black"/>
<path d="M20.8649 20.3903H19.5582C19.1891 20.3903 18.8844 20.6891 18.8844 21.0641V22.0661C18.8844 22.4352 19.1832 22.7399 19.5582 22.7399H20.8649C21.234 22.7399 21.5387 22.4411 21.5387 22.0661V21.0641C21.5387 20.695 21.2399 20.3903 20.8649 20.3903ZM20.6832 21.8844H19.7399V21.2458H20.6832V21.8844Z" fill="black"/>
<path d="M12.0054 5.47832H7.56396C6.87255 5.47832 6.30419 6.04082 6.30419 6.73809V10.0486C6.30419 10.74 6.86669 11.3084 7.56396 11.3084H12.0054C12.6968 11.3084 13.2651 10.7459 13.2651 10.0486V6.73809C13.2651 6.04668 12.7026 5.47832 12.0054 5.47832ZM12.4097 10.0486C12.4097 10.2713 12.228 10.4529 12.0054 10.4529H7.56396C7.3413 10.4529 7.15966 10.2713 7.15966 10.0486V6.73809C7.15966 6.51543 7.3413 6.33379 7.56396 6.33379H12.0054C12.228 6.33379 12.4097 6.51543 12.4097 6.73809V10.0486Z" fill="black"/>
<path d="M10.5239 7.14214H9.04736C8.66064 7.14214 8.34423 7.45854 8.34423 7.84526V8.94682C8.34423 9.33354 8.66064 9.64995 9.04736 9.64995H10.5239C10.9106 9.64995 11.227 9.33354 11.227 8.94682V7.84526C11.227 7.45854 10.9165 7.14214 10.5239 7.14214ZM10.3774 8.79448H9.1997V7.99175H10.3774V8.79448Z" fill="black"/>
<path d="M8.34423 18.8079V21.5677C8.34423 21.9544 8.66064 22.2708 9.04736 22.2708H10.5239C10.9106 22.2708 11.227 21.9544 11.227 21.5677V18.8079C11.227 18.4212 10.9106 18.1048 10.5239 18.1048H9.04736C8.66064 18.1048 8.34423 18.4212 8.34423 18.8079ZM9.1997 18.9603H10.3774V21.4212H9.1997V18.9603Z" fill="black"/>
<path d="M12.8374 18.4328C12.603 18.4328 12.4097 18.6262 12.4097 18.8606V23.261C12.4097 23.4836 12.228 23.6653 12.0054 23.6653H7.56396C7.3413 23.6653 7.15966 23.4836 7.15966 23.261V17.1203C7.15966 16.8977 7.3413 16.716 7.56396 16.716H10.1421C10.3765 16.716 10.5698 16.5227 10.5698 16.2883C10.5698 16.0539 10.3765 15.8606 10.1421 15.8606H7.56396C6.87255 15.8606 6.30419 16.4231 6.30419 17.1203V23.261C6.30419 23.9524 6.86669 24.5207 7.56396 24.5207H12.0054C12.6968 24.5207 13.2651 23.9582 13.2651 23.261V18.8606C13.2651 18.6203 13.0718 18.4328 12.8374 18.4328Z" fill="black"/>
<path d="M14.9997 14.6948H23.2673C23.5017 14.6948 23.695 14.5015 23.695 14.2671C23.695 14.0327 23.5017 13.8394 23.2673 13.8394H15.4274V7.43508C15.4274 7.2007 15.2341 7.00734 14.9997 7.00734C14.7653 7.00734 14.572 7.2007 14.572 7.43508V14.2671C14.572 14.5015 14.7653 14.6948 14.9997 14.6948Z" fill="black"/>
<path d="M14.9997 17.0385C14.7653 17.0385 14.572 17.2319 14.572 17.4663V24.0932C14.572 24.3276 14.7653 24.5209 14.9997 24.5209C15.2341 24.5209 15.4274 24.3276 15.4274 24.0932V17.4663C15.4274 17.226 15.2341 17.0385 14.9997 17.0385Z" fill="black"/>
<path d="M12.8374 12.9082H6.73193C6.49755 12.9082 6.30419 13.1015 6.30419 13.3359C6.30419 13.5703 6.49755 13.7636 6.73193 13.7636H12.4097V16.7695C12.4097 17.0039 12.603 17.1972 12.8374 17.1972C13.0718 17.1972 13.2651 17.0039 13.2651 16.7695V13.3418C13.2651 13.1015 13.0718 12.9082 12.8374 12.9082Z" fill="black"/>
<path d="M23.2674 16.2247H19.3182C19.0838 16.2247 18.8905 16.4181 18.8905 16.6525C18.8905 16.8868 19.0838 17.0802 19.3182 17.0802H23.2674C23.5018 17.0802 23.6951 16.8868 23.6951 16.6525C23.6893 16.4122 23.5018 16.2247 23.2674 16.2247Z" fill="black"/>
</svg>
