<svg width="293" height="80" viewBox="0 0 293 80" fill="none" xmlns="http://www.w3.org/2000/svg">
<path d="M33.0488 68.3447C33.9521 68.2566 35.6925 68.1903 36.9043 68.2344C38.116 68.2784 39.9007 68.4775 40.8701 68.6758C41.8396 68.8741 43.0299 69.1597 43.5146 69.3359C43.9995 69.5123 45.057 69.9751 45.8721 70.3496C46.7092 70.7462 47.3701 71.1433 47.3701 71.2314C47.3681 71.3212 46.487 72.1577 45.4307 73.082C44.3731 74.0074 42.7646 75.3288 41.8613 76.0117C40.936 76.6947 39.2838 77.8847 38.1602 78.6338C37.0387 79.3814 36.071 79.9976 36.0234 80C35.9573 80 35.3398 79.6252 34.6348 79.1846C33.9517 78.7218 32.674 77.8623 31.8369 77.2676C30.9776 76.6507 29.5458 75.5493 28.6426 74.8223C27.7172 74.0952 26.4612 72.9933 25.8223 72.3984C25.1853 71.7835 24.6575 71.2345 24.6543 71.1875C24.6543 71.1214 25.4476 70.7019 26.417 70.2393C27.3864 69.7766 28.9068 69.2257 29.7881 68.9834C30.6694 68.7411 32.1235 68.4549 33.0488 68.3447ZM36.0234 22.2744C36.8607 22.2524 38.425 22.4068 39.4824 22.583C40.54 22.7593 42.038 23.1126 42.7871 23.377C43.5582 23.6193 44.9905 24.2355 46.0039 24.7422C47.1496 25.315 48.8685 26.5051 50.543 27.8711C52.0192 29.0829 54.4205 31.1323 55.8525 32.4102C57.3067 33.6881 59.4222 35.7371 60.5898 36.9268C61.7355 38.1165 63.4321 40.0556 64.3574 41.2012C65.2828 42.3469 66.6046 44.1316 67.3096 45.167C67.9925 46.2024 68.9616 47.8324 69.4463 48.8018C69.931 49.7712 70.5925 51.2039 70.8789 51.9971C71.1873 52.7903 71.562 54.1559 71.7383 55.0371C71.8925 55.8964 72.0459 57.3511 72.0459 58.2324C72.0238 59.0916 71.8696 60.4569 71.6934 61.25C71.4951 62.0432 71.0328 63.2778 70.6582 64.0049C70.2615 64.732 69.4021 65.8772 68.7412 66.5381C68.0582 67.1991 66.9126 68.0585 66.1855 68.4551C65.4805 68.8296 64.1809 69.3587 63.3438 69.623C62.2201 69.9756 61.0296 70.1517 58.9365 70.2178C56.7337 70.3059 55.6321 70.2615 54.2002 69.9531C53.1648 69.7549 51.6667 69.3362 50.8955 69.0498C50.1024 68.7414 48.5158 67.9705 47.3701 67.3096C46.2025 66.6707 44.5503 65.8769 43.6689 65.5684C42.7877 65.2599 41.1569 64.8413 40.0332 64.665C38.9096 64.4888 37.125 64.335 36.0674 64.335C35.0098 64.335 33.379 64.445 32.4316 64.5771C31.5063 64.7094 29.8325 65.1065 28.7529 65.459C27.6514 65.8335 25.8225 66.6482 24.6768 67.2871C23.509 67.9261 21.9225 68.7199 21.1514 69.0283C20.3583 69.3367 18.8602 69.7554 17.8467 69.9316C16.8112 70.1299 14.96 70.2842 13.7041 70.2842C12.4483 70.2842 10.73 70.1299 9.84863 69.9316C8.96737 69.7334 7.40315 69.182 6.38965 68.6973C4.97957 68.0363 4.1858 67.4852 3.19434 66.4717C2.46741 65.7226 1.58636 64.5554 1.25586 63.8945C0.947404 63.2336 0.506338 62.0874 0.330078 61.3604C0.153848 60.6332 0 59.1571 0 58.0557C2.63703e-06 56.866 0.176624 55.3681 0.418945 54.3105C0.661277 53.3412 1.16735 51.7546 1.58594 50.7852C1.98252 49.8157 2.86399 48.1407 3.50293 47.0391C4.16392 45.9374 5.35378 44.1748 6.16895 43.0732C6.98405 41.9718 8.48211 40.1437 9.51758 38.998C10.5531 37.8524 12.3162 36.0015 13.4619 34.9219C14.6075 33.8203 16.8544 31.7271 18.5068 30.251C20.1372 28.7748 22.1651 27.0783 23.0244 26.4834C23.8616 25.8886 25.2492 25.0515 26.1084 24.6328C26.9456 24.1922 28.4879 23.5751 29.5234 23.2666C30.5369 22.9582 32.0792 22.6053 32.9385 22.4951C33.7757 22.385 35.1642 22.2964 36.0234 22.2744ZM57.9229 40.54C57.8571 40.5455 57.8574 41.9975 57.9014 43.8008C57.9674 45.6953 57.8788 47.7218 57.7246 48.6914C57.5924 49.5947 57.2619 51.0937 57.0195 51.9971C56.7771 52.9004 56.1823 54.5304 55.7197 55.6318C55.235 56.7335 54.4637 58.2537 54.001 59.0469C53.5383 59.84 52.547 61.2941 51.7979 62.3076L50.4541 64.1143C52.4146 64.9954 53.5825 65.3921 54.3096 65.5684C55.0366 65.7226 56.4694 65.8993 57.5049 65.9434C58.5404 65.9874 60.0165 65.8993 60.8096 65.7451C61.6026 65.6129 62.7479 65.2819 63.3428 65.0176C63.9596 64.7532 64.7972 64.269 65.2158 63.9385C65.6344 63.608 66.2515 62.9024 66.582 62.3516C66.9344 61.8008 67.3092 60.9641 67.4414 60.4795C67.5736 59.9948 67.6836 58.8929 67.6836 58.0557C67.6616 57.2184 67.5069 55.8742 67.3086 55.0811C67.1102 54.2877 66.4275 52.5473 65.7666 51.2256C65.1276 49.9036 63.8715 47.8104 62.9902 46.5986C62.1309 45.3868 60.6548 43.5365 59.7295 42.457C58.8041 41.3995 58.011 40.54 57.9229 40.54ZM14.0781 40.6279C13.9883 40.5861 13.1299 41.4665 12.1836 42.5889C11.2142 43.6905 9.86995 45.3652 9.20898 46.2686C8.54801 47.1719 7.55649 48.67 7.0498 49.5732C6.52104 50.4766 5.83828 51.8651 5.50781 52.6582C5.17736 53.4514 4.78115 54.6409 4.62695 55.3018C4.47273 55.9627 4.34039 57.2627 4.31836 58.166C4.31838 59.1354 4.47208 60.281 4.69238 60.9199C4.89065 61.5367 5.44166 62.4619 5.9043 63.0127C6.38901 63.5635 7.24887 64.2691 7.84375 64.5996C8.43875 64.9301 9.5625 65.3481 10.3555 65.5684C11.1487 65.7666 12.6911 65.9434 13.7705 65.9434C14.9822 65.9653 16.4362 65.8107 17.5156 65.5684C18.485 65.348 19.8074 64.93 20.4463 64.6436L21.5918 64.1143C19.2126 60.964 17.9784 59.0035 17.3174 57.7256C16.6564 56.4477 15.8193 54.5746 15.4668 53.5391C15.0923 52.5037 14.6515 50.8295 14.4531 49.7939C14.2549 48.7586 14.0568 46.9738 14.0127 45.8281C13.9907 44.6824 14.012 43.0515 14.0781 42.2363C14.1442 41.3991 14.1442 40.672 14.0781 40.6279ZM200.033 24.9629C200.033 28.9948 200.077 32.366 200.144 32.4541C200.21 32.5415 200.782 32.1889 201.421 31.6826C202.06 31.154 203.117 30.4712 203.778 30.1406C204.461 29.8322 205.739 29.3689 206.643 29.1045C207.744 28.796 208.956 28.6426 210.234 28.6426C211.292 28.6426 212.923 28.7968 213.87 28.9951C214.796 29.1715 216.381 29.7224 217.395 30.207C218.65 30.8239 219.686 31.5289 220.788 32.5645C221.647 33.3796 222.749 34.6568 223.256 35.3838C223.741 36.0888 224.401 37.3455 224.731 38.1387C225.062 38.9098 225.48 40.276 225.679 41.1572C225.899 42.1046 226.031 43.7346 226.031 45.1885C226.031 46.6205 225.899 48.2508 225.679 49.1982C225.48 50.0795 225.062 51.4461 224.731 52.2393C224.401 53.0104 223.741 54.2661 223.256 54.9932C222.771 55.6982 221.625 56.9762 220.722 57.8135C219.62 58.8269 218.541 59.5981 217.329 60.1709C216.36 60.6335 214.796 61.162 213.87 61.3604C212.923 61.5366 211.248 61.7129 210.124 61.7129C208.78 61.7129 207.48 61.5584 206.312 61.25C205.343 61.0076 204.109 60.5896 203.58 60.3252C203.029 60.0607 202.082 59.3559 201.487 58.7832C200.871 58.2109 200.299 57.8143 200.21 57.9014C200.1 57.9895 200.033 58.5849 200.033 60.3916L193.975 60.2812L193.931 38.9531L193.864 17.6484H200.033V24.9629ZM129.771 29.083C131.138 28.7085 131.887 28.6423 134.068 28.7305C136.183 28.8186 137.042 28.9505 138.364 29.4131C139.268 29.7215 140.546 30.3167 141.229 30.7354C141.889 31.1319 143.036 32.1009 143.763 32.8721C144.512 33.6211 145.459 34.8992 145.899 35.6924C146.34 36.4856 146.957 37.9625 147.266 38.998C147.596 40.0335 147.926 41.6192 148.015 42.5225C148.103 43.4256 148.146 44.6813 148.146 45.2764C148.124 45.8933 148.103 46.8413 148.059 48.4717H124.925L125.057 48.9785C125.123 49.2431 125.453 49.9483 125.762 50.543C126.092 51.1379 126.819 52.1074 127.392 52.7021C128.009 53.3191 129.067 54.0462 129.926 54.4648C130.917 54.9275 132.019 55.2354 133.187 55.3896C134.442 55.5439 135.368 55.522 136.426 55.3457C137.241 55.1914 138.386 54.8606 138.959 54.5742C139.532 54.2879 140.281 53.8917 140.611 53.6934C141.206 53.3409 141.229 53.3406 141.537 53.8252C141.691 54.0896 142.396 55.2357 143.079 56.3594C143.74 57.461 144.247 58.5405 144.203 58.7168C144.137 58.8931 143.277 59.444 142.264 59.9287C141.272 60.4133 139.598 61.0301 138.585 61.2725C136.999 61.669 136.293 61.7351 133.958 61.625C132.438 61.5589 130.609 61.3604 129.882 61.1621C129.155 60.9638 127.7 60.3915 126.687 59.8848C125.188 59.1578 124.44 58.606 122.92 57.0859C121.334 55.4997 120.848 54.839 119.989 53.0986C119.416 51.9531 118.755 50.2127 118.513 49.2432C118.16 47.9212 118.05 46.7968 118.05 44.8359C118.05 42.8752 118.182 41.7516 118.513 40.4297C118.777 39.4603 119.328 37.9843 119.747 37.125C120.166 36.2658 120.98 34.9879 121.575 34.2607C122.148 33.5337 123.272 32.4543 124.043 31.8594C124.836 31.2645 126.07 30.4926 126.797 30.1621C127.524 29.8096 128.846 29.3254 129.771 29.083ZM240.815 29.083C242.181 28.7085 242.93 28.6424 245.111 28.7305C247.226 28.8186 248.086 28.9504 249.408 29.4131C250.312 29.7215 251.589 30.3167 252.272 30.7354C252.933 31.1319 254.079 32.101 254.806 32.8721C255.555 33.6211 256.503 34.8992 256.943 35.6924C257.384 36.4856 258.001 37.9625 258.31 38.998C258.64 40.0335 258.97 41.6192 259.059 42.5225C259.147 43.4256 259.19 44.6813 259.19 45.2764C259.168 45.8933 259.147 46.8413 259.103 48.4717H235.969L236.101 48.9785C236.167 49.2431 236.497 49.9483 236.806 50.543C237.136 51.1379 237.863 52.1074 238.436 52.7021C239.052 53.3191 240.11 54.0462 240.97 54.4648C241.961 54.9275 243.063 55.2354 244.23 55.3896C245.486 55.5439 246.412 55.522 247.47 55.3457C248.285 55.1914 249.43 54.8606 250.003 54.5742C250.576 54.2878 251.325 53.8917 251.655 53.6934C252.25 53.3409 252.273 53.3406 252.581 53.8252C252.735 54.0896 253.44 55.2357 254.123 56.3594C254.784 57.461 255.291 58.5405 255.247 58.7168C255.181 58.8931 254.321 59.444 253.308 59.9287C252.316 60.4133 250.642 61.0301 249.629 61.2725C248.043 61.669 247.337 61.7351 245.002 61.625C243.482 61.5589 241.653 61.3604 240.926 61.1621C240.199 60.9638 238.744 60.3915 237.73 59.8848C236.232 59.1577 235.483 58.6061 233.963 57.0859C232.377 55.5 231.892 54.8388 231.033 53.0986C230.46 51.9531 229.799 50.2127 229.557 49.2432C229.204 47.9212 229.094 46.7968 229.094 44.8359C229.094 42.8752 229.226 41.7516 229.557 40.4297C229.821 39.4603 230.372 37.9843 230.791 37.125C231.21 36.2658 232.024 34.9879 232.619 34.2607C233.192 33.5337 234.316 32.4543 235.087 31.8594C235.88 31.2645 237.114 30.4926 237.841 30.1621C238.568 29.8096 239.89 29.3254 240.815 29.083ZM274.305 29.083C275.671 28.7085 276.42 28.6423 278.602 28.7305C280.716 28.8186 281.576 28.9505 282.897 29.4131C283.801 29.7215 285.079 30.3167 285.762 30.7354C286.423 31.1319 287.569 32.1009 288.296 32.8721C289.045 33.6211 289.992 34.8992 290.433 35.6924C290.873 36.4856 291.49 37.9625 291.799 38.998C292.129 40.0335 292.46 41.6192 292.548 42.5225C292.636 43.4256 292.68 44.6813 292.68 45.2764C292.658 45.8933 292.636 46.8413 292.592 48.4717H269.458L269.59 48.9785C269.656 49.243 269.987 49.9482 270.295 50.543C270.625 51.1379 271.353 52.1074 271.926 52.7021C272.543 53.319 273.6 54.0463 274.459 54.4648C275.45 54.9275 276.552 55.2354 277.72 55.3896C278.976 55.5439 279.901 55.522 280.959 55.3457C281.774 55.1915 282.919 54.8606 283.492 54.5742C284.065 54.2879 284.814 53.8917 285.145 53.6934C285.739 53.3409 285.762 53.3406 286.07 53.8252C286.225 54.0896 286.929 55.2357 287.612 56.3594C288.273 57.461 288.78 58.5405 288.736 58.7168C288.67 58.8931 287.81 59.4441 286.797 59.9287C285.805 60.4133 284.132 61.0301 283.118 61.2725C281.532 61.669 280.827 61.7352 278.491 61.625C276.971 61.5589 275.142 61.3604 274.415 61.1621C273.688 60.9638 272.234 60.3914 271.221 59.8848C269.723 59.1577 268.973 58.6062 267.453 57.0859C265.867 55.4997 265.382 54.839 264.522 53.0986C263.95 51.9531 263.288 50.2127 263.046 49.2432C262.693 47.9212 262.584 46.7968 262.584 44.8359C262.584 42.8752 262.715 41.7515 263.046 40.4297C263.31 39.4603 263.862 37.9843 264.28 37.125C264.699 36.2659 265.514 34.9879 266.108 34.2607C266.681 33.5338 267.805 32.4543 268.576 31.8594C269.369 31.2646 270.603 30.4926 271.33 30.1621C272.057 29.8096 273.379 29.3254 274.305 29.083ZM155.77 30.2949C155.77 30.6036 156.012 31.6173 156.299 32.5645C156.607 33.4898 157.224 34.856 157.709 35.583C158.172 36.3099 158.986 37.301 159.537 37.7637C160.066 38.2484 161.102 38.9092 161.829 39.2617C162.556 39.5922 163.746 39.9226 164.473 40.0107C165.2 40.0768 166.478 40.0335 167.337 39.9014C168.174 39.7692 169.386 39.4159 170.025 39.1074C170.664 38.7989 171.656 38.1165 172.229 37.5879C172.801 37.0591 173.595 36.0449 173.991 35.3398C174.366 34.6128 174.828 33.4014 175.026 32.6084C175.203 31.8153 175.357 30.8457 175.379 29.7441H181.548V30.8018C181.526 31.3748 181.327 32.7189 181.085 33.8203C180.843 34.966 180.248 36.6406 179.697 37.7861C179.036 39.1299 178.265 40.2532 177.296 41.3105C176.525 42.1697 175.379 43.1833 174.74 43.5801C174.123 43.9546 173.616 44.3294 173.616 44.3955C173.616 44.4616 174.278 44.9686 175.093 45.5635C175.908 46.1364 177.097 47.2382 177.736 48.0312C178.375 48.8244 179.257 50.212 179.697 51.1152C180.138 52.0184 180.688 53.5165 180.931 54.4199C181.151 55.3233 181.416 57.0422 181.658 60.3691H175.489L175.312 58.6729C175.224 57.7255 175.004 56.4032 174.828 55.7422C174.652 55.0813 174.233 54.0018 173.881 53.3408C173.55 52.7019 172.823 51.7544 172.294 51.2256C171.743 50.7189 170.774 50.036 170.135 49.7275C169.43 49.3751 168.263 49.0224 167.161 48.8682C165.773 48.6699 164.958 48.6699 163.746 48.8682C162.865 49.0224 161.63 49.397 160.991 49.7275C160.352 50.0361 159.339 50.7632 158.744 51.3359C158.127 51.9088 157.378 52.8784 157.048 53.4512C156.717 54.0461 156.276 55.1698 156.078 55.9629C155.88 56.7561 155.704 58.078 155.66 60.4131L152.686 60.2588C151.033 60.1707 149.645 60.0602 149.601 59.9941C149.535 59.9474 149.513 59.1337 149.535 58.21C149.579 57.2846 149.799 55.7204 150.02 54.751C150.24 53.7815 150.68 52.4373 150.967 51.7764C151.253 51.1154 151.893 49.9702 152.399 49.2432C152.884 48.5161 153.809 47.4138 154.47 46.7969C155.131 46.18 156.079 45.3867 156.607 45.0342C157.113 44.6824 157.531 44.3746 157.532 44.3516C157.532 44.3075 157.047 43.999 156.475 43.6465C155.902 43.2939 154.756 42.3025 153.941 41.4434C152.862 40.2977 152.201 39.3498 151.474 37.8516C150.945 36.7279 150.283 34.9651 150.041 33.9297C149.799 32.8945 149.601 31.5292 149.601 30.9121V29.7441H155.77V30.2949ZM114.987 60.3916H108.818V17.6484H114.987V60.3916ZM190.802 60.3916H184.633V29.7656H190.802V60.3916ZM89.6729 35.9131L103.002 36.0234L104.17 36.6846C104.831 37.0371 105.602 37.6757 105.889 38.0723C106.175 38.4469 106.572 39.1959 106.748 39.7246C106.946 40.2313 107.078 40.9806 107.078 42.082H89.6729V60.3691L83.6133 60.2588L83.5469 38.9531L83.5029 17.626H89.6729V35.9131ZM209.97 34.833C209.419 34.855 208.472 34.9436 207.877 35.0537C207.26 35.1639 206.224 35.5162 205.563 35.8467C204.903 36.1772 203.823 36.9704 203.184 37.6094C202.501 38.3144 201.729 39.4163 201.267 40.3857C200.76 41.4431 200.43 42.5226 200.298 43.624C200.166 44.6375 200.143 45.8277 200.275 46.709C200.386 47.5021 200.694 48.6915 200.937 49.3525C201.201 50.0135 201.73 51.0272 202.148 51.6221C202.567 52.1949 203.382 53.0325 203.955 53.4951C204.55 53.9578 205.564 54.5306 206.225 54.7949C206.886 55.0593 208.141 55.324 208.979 55.4121C209.838 55.5002 211.159 55.4554 211.952 55.3232C212.745 55.191 213.936 54.8168 214.597 54.4863C215.258 54.1558 216.315 53.3848 216.932 52.79C217.549 52.1731 218.298 51.1814 218.606 50.5645C218.915 49.9695 219.334 48.9119 219.532 48.251C219.73 47.5679 219.885 46.2677 219.885 45.2764C219.885 44.3071 219.73 42.9637 219.554 42.3027C219.378 41.6419 218.959 40.5624 218.629 39.9014C218.276 39.2624 217.505 38.2263 216.91 37.6094C216.293 37.0145 215.411 36.2874 214.927 36.001C214.442 35.7146 213.34 35.3399 212.503 35.1416C211.666 34.9654 210.52 34.833 209.97 34.833ZM134.178 34.7012C133.186 34.6351 132.085 34.7232 131.424 34.8994C130.807 35.0536 129.838 35.4284 129.221 35.7148C128.626 36.0013 127.678 36.6845 127.127 37.2354C126.576 37.7862 125.805 38.8652 125.431 39.6582C125.034 40.4514 124.66 41.3555 124.594 41.708L124.483 42.3027H141.779C141.559 40.5181 141.295 39.5702 141.03 39.0635C140.788 38.5347 140.193 37.6972 139.708 37.1904C139.201 36.6177 138.254 35.9572 137.351 35.5166C136.183 34.9658 135.434 34.7893 134.178 34.7012ZM245.222 34.7012C244.23 34.6351 243.129 34.7232 242.468 34.8994C241.851 35.0536 240.882 35.4284 240.265 35.7148C239.67 36.0013 238.722 36.6845 238.171 37.2354C237.62 37.7862 236.849 38.8652 236.475 39.6582C236.078 40.4514 235.704 41.3555 235.638 41.708L235.527 42.3027H252.823C252.603 40.5181 252.339 39.5702 252.074 39.0635C251.832 38.5347 251.237 37.6972 250.752 37.1904C250.245 36.6177 249.298 35.9572 248.395 35.5166C247.227 34.9658 246.478 34.7893 245.222 34.7012ZM278.711 34.7012C277.72 34.6351 276.618 34.7232 275.957 34.8994C275.34 35.0536 274.371 35.4284 273.754 35.7148C273.159 36.0013 272.212 36.6845 271.661 37.2354C271.11 37.7861 270.338 38.865 269.964 39.6582C269.567 40.4514 269.193 41.3555 269.127 41.708L269.017 42.3027H286.312C286.092 40.5181 285.828 39.5702 285.563 39.0635C285.321 38.5347 284.726 37.6972 284.241 37.1904C283.734 36.6177 282.787 35.9572 281.884 35.5166C280.716 34.9658 279.967 34.7893 278.711 34.7012ZM187.717 22.2744C188.312 22.2524 188.973 22.4072 189.369 22.6494C189.722 22.8697 190.207 23.4207 190.405 23.8613C190.625 24.3018 190.802 24.9404 190.802 25.293C190.78 25.6235 190.582 26.3072 190.361 26.8359C190.075 27.4087 189.656 27.8929 189.193 28.1133C188.731 28.3556 188.092 28.4444 187.343 28.4004C186.439 28.3343 186.064 28.1792 185.514 27.6504C185.139 27.2978 184.743 26.6153 184.61 26.1748C184.478 25.6461 184.478 25.0292 184.61 24.5225C184.743 24.0599 185.095 23.4209 185.447 23.1123C185.778 22.7818 186.197 22.4733 186.396 22.4072C186.572 22.3412 187.166 22.2744 187.717 22.2744ZM52.7021 0C53.1648 7.96444e-05 53.8478 0.153866 54.2002 0.330078C54.5527 0.506338 55.0151 0.881546 55.1914 1.16797C55.3676 1.43244 55.5215 2.04955 55.5215 2.53418C55.5214 3.08488 55.3455 3.70194 55.0371 4.18652C54.7506 4.60509 54.0897 5.17749 53.5391 5.46387C52.6137 5.94858 52.3712 5.97051 50.168 5.86035C48.3614 5.7502 47.6781 5.79476 47.1934 6.03711C46.8628 6.2135 46.2904 6.67624 45.916 7.09473C45.5415 7.4913 45.0788 8.13012 44.4619 9.14355L45.3428 10.0244C45.8495 10.5091 46.5984 11.5014 47.0391 12.2285C47.4797 12.9556 48.0307 14.1893 48.251 14.9824C48.4933 15.7756 48.7362 16.9651 48.7803 17.626C48.8464 18.2869 48.8021 19.5206 48.6699 20.3799C48.5598 21.2387 48.4274 21.9435 48.4053 21.9883C48.3832 22.0103 47.4141 21.8123 46.2686 21.5039C45.1229 21.1955 43.294 20.7989 42.1924 20.6006C41.0908 20.4023 38.6234 20.2042 36.6846 20.1602C34.2831 20.0941 32.41 20.182 30.8457 20.4023C29.5679 20.5786 27.5409 20.9748 26.3291 21.2832C25.1247 21.5679 24.1159 21.7875 24.082 21.7686C24.038 21.7245 23.9489 20.7107 23.8828 19.499C23.7726 17.8246 23.8171 16.9649 24.1035 15.8633C24.3018 15.0701 24.7647 13.8364 25.1172 13.1094C25.4697 12.3824 26.3067 11.1265 28.2012 8.81348L27.4746 7.77734C27.078 7.18249 26.3952 6.49931 25.9766 6.21289C25.2715 5.72819 25.1171 5.70669 22.9141 5.83887C21.4159 5.94903 20.3358 5.92669 19.8291 5.77246C19.4105 5.6182 18.7933 5.24353 18.4629 4.91309C18.1325 4.56059 17.7144 3.9439 17.5381 3.52539C17.2738 2.93066 17.2516 2.57802 17.4277 1.9834C17.5379 1.56478 17.8023 1.03533 17.9785 0.792969C18.1768 0.572664 18.5296 0.308388 18.7939 0.198242C19.0584 0.110142 19.6089 0.0224762 19.9834 0.0224609C20.38 0.000428418 21.129 0.154675 21.6357 0.375C22.1645 0.573293 23.2667 1.16794 24.126 1.71875C24.9852 2.26962 26.3509 3.37101 27.166 4.16406C28.0032 4.95719 29.0169 6.08069 30.1846 7.71094L31 7.29297C31.4627 7.07264 32.4322 6.71976 33.1592 6.52148C33.8863 6.32323 35.3624 6.16895 36.4639 6.16895C38.072 6.16895 38.7772 6.30101 40.209 6.80762C41.1784 7.1381 42.1265 7.49097 42.3027 7.5791C42.545 7.68903 42.8318 7.44692 43.3164 6.78613C43.713 6.25732 44.5496 5.28744 45.1885 4.60449C45.8494 3.94353 47.0174 2.90835 47.8105 2.31348C48.6037 1.74064 49.8374 0.969172 50.5645 0.638672C51.2915 0.286152 52.2615 0 52.7021 0Z" fill="black"/>
<path d="M28.5757 28.6423C29.5892 28.2898 31.1756 27.8271 32.123 27.6509H32.101C33.2687 27.4305 34.7669 27.3645 36.6837 27.4085C38.7327 27.4746 40.0547 27.6288 41.3105 27.9814C42.28 28.2458 43.8663 28.8186 44.8358 29.2813C45.8052 29.744 47.2153 30.5812 47.9644 31.154C48.7355 31.7049 49.771 32.6963 50.2558 33.3132C50.7625 33.9522 51.4455 35.0318 51.776 35.6927C52.1065 36.3537 52.5031 37.3011 52.6353 37.7858C52.7895 38.2705 52.8776 38.6892 52.8336 38.7332C52.7895 38.7553 51.7319 38.2926 50.454 37.6977C49.1762 37.0808 47.1932 36.2876 46.0475 35.9131C44.9018 35.5385 42.7647 35.0318 41.3105 34.7674C39.1073 34.3928 38.0938 34.3488 35.2516 34.4369C33.3788 34.503 31.0875 34.7233 30.1841 34.9216C29.2808 35.1199 27.4962 35.6266 26.2183 36.0453C24.9404 36.4859 22.8253 37.3672 21.4813 38.0282C20.1373 38.6892 19.0357 39.1959 18.9916 39.1739C18.9696 39.1298 19.2119 38.3587 19.5204 37.4553C19.8509 36.552 20.4898 35.208 20.9305 34.481C21.3931 33.7539 22.2965 32.6743 22.9575 32.0574C23.5964 31.4625 24.7201 30.5812 25.4471 30.1405C26.1742 29.6999 27.5843 29.0169 28.5757 28.6423Z" fill="#F9AF18"/>
<path d="M31.9688 39.0197C32.8721 38.8875 33.9737 38.7332 34.3923 38.6892C34.811 38.6451 36.1549 38.6451 37.3667 38.7112C38.5785 38.7773 40.3631 38.9536 41.3326 39.1519C42.302 39.3281 43.9765 39.7688 45.0781 40.1433C46.1797 40.4958 48.0966 41.3331 49.3744 41.994C50.6523 42.655 52.1726 43.5804 53.8691 44.8362L53.7149 46.3785C53.6488 47.2378 53.4284 48.6038 53.2522 49.4631C53.0759 50.3003 52.8336 51.2697 52.459 52.2171L51.071 51.5341C50.3218 51.1375 48.8236 50.4986 47.722 50.08C46.6204 49.6614 44.7476 49.0665 43.5358 48.7801C42.324 48.4936 40.2089 48.1632 38.8429 48.031C37.2345 47.8988 35.5601 47.8767 33.9957 48.0089C32.6958 48.1411 30.8451 48.3835 29.8757 48.5818C28.9062 48.8021 27.364 49.1987 26.4606 49.5071C25.5573 49.8156 23.6625 50.5867 22.2744 51.2477C20.8864 51.9087 19.7187 52.4375 19.6746 52.4375C19.6526 52.4375 19.4323 51.7765 19.1899 50.9613C18.9475 50.124 18.6611 48.8241 18.5289 48.031C18.4188 47.2378 18.3086 46.2684 18.3086 45.8938C18.3086 45.2328 18.4849 45.0345 20.0051 43.9549C20.9525 43.294 22.7151 42.2805 23.9269 41.6636C25.1387 41.0687 27.0775 40.2755 28.2232 39.923C29.3689 39.5484 31.0654 39.1519 31.9688 39.0197Z" fill="#F9AF18"/>
<path d="M29.6553 53.1205C30.6248 52.8781 32.101 52.5697 32.9602 52.4595C33.8195 52.3493 35.6923 52.2832 37.1464 52.3273C38.6005 52.3714 40.5394 52.5697 41.4427 52.7679C42.3461 52.9442 43.8884 53.3628 44.8578 53.6933C45.8272 54.0018 47.5457 54.6848 50.6964 56.183L50.2117 57.0202C49.9473 57.4609 49.3083 58.4303 48.8016 59.1574C48.2728 59.8845 47.5898 60.8098 46.6204 61.9775L44.4171 61.4047C43.2053 61.0962 41.3326 60.7217 40.231 60.5675C39.0853 60.4132 36.904 60.3692 35.0533 60.4132C32.9382 60.5014 31.1976 60.6776 29.8757 60.9861C28.774 61.2505 27.386 61.603 25.6895 62.1318L24.8523 61.2064C24.4116 60.6776 23.5523 59.554 22.9575 58.7167C22.3626 57.8795 21.8118 56.9982 21.7457 56.7999C21.6355 56.4914 21.966 56.2271 23.31 55.544C24.2574 55.0814 25.6675 54.4424 26.4606 54.134C27.2538 53.8255 28.6859 53.3628 29.6553 53.1205Z" fill="#F9AF18"/>
<path d="M30.8671 70.9448C31.5281 70.7906 32.828 70.5923 33.7314 70.5041C34.6347 70.416 36.221 70.394 37.2566 70.438C38.2921 70.4821 39.9666 70.6804 41.0021 70.8566C42.0376 71.0329 42.9189 71.2312 42.985 71.2973C43.0511 71.3634 42.7427 71.7159 42.324 72.0684C41.9054 72.421 40.5394 73.4785 39.3276 74.4259C38.0938 75.3513 36.86 76.2546 36.5736 76.4309C36.0888 76.7173 35.9346 76.6512 34.5025 75.6818C33.6432 75.1089 32.0789 73.9412 31.0214 73.0599C29.7875 72.0684 29.1927 71.4515 29.3689 71.3634C29.5231 71.2753 30.2062 71.099 30.8671 70.9448Z" fill="#F9AF18"/>
</svg>
