<svg width="167" height="60" viewBox="0 0 167 60" fill="none" xmlns="http://www.w3.org/2000/svg">
<g clip-path="url(#clip0_49_3135)">
<mask id="mask0_49_3135" style="mask-type:luminance" maskUnits="userSpaceOnUse" x="0" y="6" width="167" height="48">
<path d="M0 6.46143H166.154V53.5383H0V6.46143Z" fill="white"/>
</mask>
<g mask="url(#mask0_49_3135)">
<path fill-rule="evenodd" clip-rule="evenodd" d="M129.419 6.83714C130.217 6.83714 130.866 7.48052 130.866 8.27437C130.866 9.06544 130.217 9.71068 129.419 9.71068C129.037 9.71117 128.67 9.56033 128.399 9.29115C128.128 9.02197 127.975 8.65638 127.973 8.27437C127.973 7.48052 128.623 6.83714 129.419 6.83714ZM129.419 10.0901C129.902 10.0908 130.365 9.90009 130.708 9.55974C131.05 9.21939 131.244 8.75716 131.246 8.27437C131.245 8.03529 131.197 7.79872 131.105 7.57818C131.012 7.35765 130.877 7.15747 130.708 6.9891C130.538 6.82073 130.337 6.68747 130.115 6.59693C129.894 6.50639 129.657 6.46035 129.418 6.46144C128.413 6.46144 127.594 7.27191 127.594 8.27437C127.594 9.27406 128.413 10.0901 129.419 10.0901ZM129.055 7.34575C129.153 7.32507 129.252 7.31639 129.352 7.31991C129.665 7.32175 129.882 7.43529 129.882 7.69375C129.882 7.92268 129.679 8.07683 129.36 8.07683H129.055V7.34575ZM129.055 8.26883H129.339C129.606 8.27621 129.732 8.38144 129.8 8.65744C129.865 8.90852 129.919 9.07744 129.953 9.1356H130.262C130.217 9.05806 130.16 8.86606 130.086 8.58729C130.026 8.3796 129.923 8.23468 129.746 8.17929V8.17375C129.988 8.10175 130.182 7.92544 130.182 7.66606C130.184 7.59267 130.168 7.51997 130.136 7.45377C130.105 7.38758 130.058 7.32972 130 7.28483C129.858 7.17314 129.649 7.12052 129.33 7.12052C129.127 7.12052 128.907 7.13806 128.757 7.16206V9.1356H129.055V8.26883ZM165.796 13.0762C162.691 12.8824 160.408 14.1701 159.367 14.9168V13.0134H152.661V37.9707H159.497V22.1362C160.472 19.5294 165.709 19.6707 165.761 19.6744L166.154 19.6873V13.1011L165.796 13.0762ZM133.805 25.5285C133.295 22.1233 135.907 20.1331 136.025 20.0491C137.544 18.9359 138.947 18.4873 140.202 18.7144C141.225 18.8971 141.901 19.4962 142.229 19.8571L133.805 25.5285ZM139.405 12.755C139.205 12.7476 133.931 12.6756 130.237 16.9734C129.988 17.1867 126.306 20.555 127.668 28.0338C127.708 28.2239 128.634 32.6214 131.411 35.0565C131.522 35.1719 134.734 38.423 140.452 38.4876C140.682 38.4968 146.481 38.7045 150.118 34.5027L150.277 34.3171L150.168 34.0965L147.774 29.1525L147.522 28.6208L147.146 29.0731C147.121 29.1054 144.481 32.2301 141.011 32.471H140.993L140.969 32.4747C140.853 32.4959 138.172 32.9214 136.225 30.611L151.272 20.2485L151.516 20.0787L151.409 19.8027C151.381 19.7251 148.364 12.3654 139.405 12.755ZM118.959 7.03283L119.021 37.6624L119.022 38.039H126.182V6.65437H118.96V7.03283H118.959ZM107.705 26.5199C106.613 27.5104 105.17 27.4614 105.153 27.4614C101.248 27.2907 101.187 23.6861 101.187 23.5347C101.242 19.6301 104.925 19.4879 105.239 19.4805C108.578 19.8876 108.933 23.039 108.962 23.3436C108.899 24.7421 108.477 25.8119 107.705 26.5208V26.5199ZM101.495 13.3005C96.7477 15.0018 95.0243 19.6162 94.9551 19.8128C92.8781 24.6756 95.7535 28.9494 96.5658 30.0128L94.2443 32.7331L93.9997 33.0239L94.2969 33.2658L99.2104 37.2461L99.5289 37.5091L99.7615 37.1658C102.054 33.815 105.463 34.1658 105.611 34.1824C107.596 34.3024 108.88 35.4267 108.894 35.4396C112.71 38.3288 111.124 42.6138 111.054 42.7984C109.134 47.2051 105.153 46.811 104.988 46.7916H104.944C101.644 46.7916 99.8437 44.219 99.8261 44.1931L99.5621 43.8147C99.5621 43.8119 99.2446 44.1451 99.2446 44.1451L95.0409 48.4476L94.7917 48.6968L95.0252 48.9553C99.7569 54.3673 105.724 53.519 106.142 53.4525C112.262 53.1784 115.654 48.4199 115.793 48.2159C119.542 43.4454 117.671 36.9331 117.593 36.6562C116.868 33.2039 113.858 30.4974 113.73 30.3839L113.697 30.3498L113.654 30.3341C113.6 30.3045 113.562 30.2787 113.521 30.251C115.192 28.6393 115.65 25.019 115.666 24.863C116.063 22.5045 115.168 19.9264 115.125 19.8156L115.122 19.7898L115.106 19.7639C114.975 19.5307 114.868 19.2848 114.786 19.0301H116.675L116.752 18.7522L118.175 13.5507L118.305 13.0771H107.826C104.03 12.2427 101.599 13.2544 101.495 13.3005ZM85.0569 13.2082C82.4418 13.1602 80.3455 14.2328 79.3597 14.8559V13.0134H72.4541L72.456 13.3919L72.588 37.5359L72.5898 37.9107H79.2914V24.8214C79.4095 21.4799 80.7655 20.9427 80.7794 20.9408L80.8098 20.9261L80.8458 20.9104C83.1074 19.6494 84.552 20.4304 84.7532 20.5541L84.7772 20.5781L84.8354 20.6021C86.7554 21.4421 86.4249 24.8759 86.4231 24.9073V37.9107H93.3231V24.947C93.3231 20.3067 93.0452 19.0974 92.9077 18.7827C91.2849 13.271 85.1169 13.2082 85.0569 13.2082ZM64.7843 29.387C64.8009 30.071 64.5978 30.6378 64.1834 31.0614C63.2483 32.0021 61.5628 32.0214 61.5406 32.0214C60.1782 31.9568 59.196 31.5941 58.644 30.9414C58.3021 30.5424 58.1313 30.0247 58.1686 29.5005C58.3412 28.5193 58.7732 27.8205 59.4517 27.4171C60.8871 26.5744 63.0129 27.2879 63.036 27.2925C64.8545 27.8399 64.7898 29.2928 64.7843 29.387ZM57.0415 13.2202L55.4889 18.5491L55.3523 19.0291H65.0446V21.7494C59.0705 19.2848 55.2572 22.3402 55.0957 22.4731C51.4994 24.9848 51.5898 29.147 51.5963 29.3261L51.5981 29.2808C51.2594 33.2279 54.4468 35.7978 54.5815 35.9011C56.5717 37.6153 58.872 37.9559 58.9689 37.9707C61.7705 38.4691 64.2092 37.2904 65.3058 36.6294V37.8479H71.2994V12.9488H57.1237L57.0415 13.2202ZM54.2529 19.4796V12.7476L53.8661 12.7559C50.7914 12.8279 48.6545 13.9541 47.6575 14.6039V13.0448H40.7908L40.7889 13.4205L40.6948 37.5027V37.8765H47.7526V22.7934C48.1126 19.5258 53.82 19.4796 53.8726 19.4796H54.2511H54.2529ZM42.3258 6.97837H34.8277L34.7308 7.20914L28.9348 21.2104L21.5502 7.46575L21.1994 6.81037L20.8708 7.47868L14.0585 21.6525L7.89138 7.10944L7.79631 6.87868H0L0.209538 7.39652L13.2065 39.2824L13.5369 40.0974L13.9034 39.2934L21.3249 22.8904L29.2154 39.395L29.5966 40.1944L29.9123 39.3691L42.1311 7.48791L42.3249 6.97744L42.3258 6.97837Z" fill="#231F20"/>
</g>
</g>
<defs>
<clipPath id="clip0_49_3135">
<rect width="166.154" height="60" fill="white"/>
</clipPath>
</defs>
</svg>
