<svg width="155" height="44" viewBox="0 0 155 44" fill="none" xmlns="http://www.w3.org/2000/svg">
<g clip-path="url(#clip0_49_3459)">
<path d="M33.4337 8.32918C33.4037 8.11074 33.2128 7.98955 33.0545 7.97636C32.8973 7.96317 29.8179 7.91638 29.8179 7.91638C29.8179 7.91638 27.2425 5.41544 26.9881 5.16102C26.7338 4.90661 26.2369 4.98341 26.0437 5.04102C26.0413 5.04222 25.5601 5.19103 24.7501 5.44184C24.6145 5.00262 24.4152 4.46259 24.1308 3.92016C23.214 2.17047 21.8711 1.24522 20.2486 1.24283C20.2462 1.24283 20.245 1.24283 20.2426 1.24283C20.1298 1.24283 20.0182 1.25363 19.9054 1.26323C19.8574 1.20562 19.8094 1.14923 19.759 1.09402C19.0521 0.337982 18.1461 -0.0304363 17.0601 0.00196534C14.9648 0.0619684 12.8779 1.57524 11.1858 4.26338C9.99532 6.15467 9.08926 8.53083 8.83246 10.3705C6.42633 11.1157 4.74384 11.6365 4.70664 11.6486C3.49217 12.0301 3.45378 12.0673 3.29537 13.2123C3.17776 14.0774 0 38.6499 0 38.6499L26.6305 43.2557L38.1727 40.3864C38.1727 40.3864 33.4637 8.54762 33.4337 8.32918ZM23.4168 5.85466C22.8036 6.04427 22.1063 6.26028 21.3502 6.4943C21.3347 5.43344 21.2087 3.95737 20.7142 2.6817C22.3043 2.98292 23.0867 4.78181 23.4168 5.85466ZM19.957 6.92631C18.5613 7.35831 17.0384 7.82994 15.5108 8.3028C15.9404 6.6575 16.7553 5.01942 17.7561 3.94536C18.1281 3.54575 18.6489 3.10052 19.2657 2.84611C19.8454 4.05577 19.9714 5.76825 19.957 6.92631ZM17.102 1.39643C17.5941 1.38563 18.0081 1.49364 18.3621 1.72645C17.7957 2.02047 17.2484 2.44289 16.7349 2.99372C15.4039 4.42179 14.3839 6.6383 13.9771 8.77681C12.7086 9.16921 11.4677 9.55447 10.3253 9.9073C11.0466 6.5411 13.8679 1.49004 17.102 1.39643Z" fill="#95BF47"/>
<path d="M33.0559 7.9782C32.8987 7.965 29.8194 7.91822 29.8194 7.91822C29.8194 7.91822 27.2441 5.41727 26.9896 5.16286C26.8948 5.06805 26.7664 5.01885 26.632 4.99845L26.6332 43.2552L38.1742 40.3871C38.1742 40.3871 33.4652 8.54946 33.4352 8.33102C33.4051 8.11258 33.2131 7.99139 33.0559 7.9782Z" fill="#5E8E3E"/>
<path d="M20.2338 13.9117L18.8934 18.9267C18.8934 18.9267 17.3981 18.2463 15.6256 18.3579C13.0262 18.5224 12.9986 20.1616 13.0251 20.5733C13.1667 22.8162 19.0673 23.3058 19.3986 28.5597C19.659 32.6927 17.206 35.52 13.6719 35.7432C9.42967 36.0108 7.09436 33.5087 7.09436 33.5087L7.99322 29.6853C7.99322 29.6853 10.3441 31.459 12.2258 31.3402C13.4547 31.2622 13.8939 30.2626 13.8495 29.5557C13.6647 26.6299 8.85963 26.8027 8.55605 21.9953C8.30041 17.95 10.9574 13.8505 16.8196 13.4809C19.0782 13.3357 20.2338 13.9117 20.2338 13.9117Z" fill="white"/>
<path d="M53.3715 24.4137C52.0444 23.6935 51.3623 23.0865 51.3623 22.2521C51.3623 21.1904 52.3097 20.5083 53.7893 20.5083C55.5116 20.5083 57.0494 21.2285 57.0494 21.2285L58.2623 17.5124C58.2623 17.5124 57.147 16.64 53.8643 16.64C49.296 16.64 46.1299 19.2562 46.1299 22.9341C46.1299 25.0195 47.6082 26.6121 49.5805 27.7488C51.1731 28.6581 51.742 29.3033 51.742 30.2508C51.742 31.2363 50.9457 32.0326 49.4674 32.0326C47.2642 32.0326 45.1836 30.8947 45.1836 30.8947L43.8946 34.6107C43.8946 34.6107 45.8168 35.8998 49.0508 35.8998C53.7524 35.8998 57.1269 33.5871 57.1269 29.4163C57.1256 27.181 55.42 25.5884 53.3715 24.4137Z" fill="black"/>
<path d="M72.1025 16.6025C69.7896 16.6025 67.9697 17.7023 66.5676 19.3699L66.4914 19.3318L68.5006 8.83001H63.2681L58.188 35.5588H63.4205L65.1642 26.4223C65.8462 22.9717 67.6281 20.8494 69.2969 20.8494C70.4716 20.8494 70.9276 21.6457 70.9276 22.7836C70.9276 23.5037 70.8514 24.3762 70.7002 25.0963L68.7291 35.56H73.9618L76.0085 24.7547C76.2363 23.6168 76.3885 22.2528 76.3885 21.3422C76.3863 18.3843 74.832 16.6025 72.1025 16.6025Z" fill="black"/>
<path d="M88.2156 16.6028C81.9212 16.6028 77.7521 22.29 77.7521 28.621C77.7521 32.6775 80.2537 35.9377 84.9556 35.9377C91.1354 35.9377 95.306 30.4029 95.306 23.9194C95.306 20.1665 93.1064 16.6028 88.2156 16.6028ZM85.6376 31.9204C83.8555 31.9204 83.097 30.404 83.097 28.5079C83.097 25.5132 84.6521 20.6224 87.4954 20.6224C89.3533 20.6224 89.9588 22.2149 89.9588 23.7695C89.9588 26.9915 88.406 31.9204 85.6376 31.9204Z" fill="black"/>
<path d="M108.688 16.6028C105.157 16.6028 103.152 19.7118 103.152 19.7118H103.077L103.381 16.9063H98.7555C98.5284 18.8024 98.1103 21.6829 97.6943 23.8444L94.0543 42.99H99.2868L100.727 35.2556H100.841C100.841 35.2556 101.915 35.9377 103.912 35.9377C110.054 35.9377 114.072 29.6447 114.072 23.2743C114.072 19.7499 112.517 16.6028 108.688 16.6028ZM103.684 31.9954C102.326 31.9954 101.522 31.2372 101.522 31.2372L102.394 26.3464C103.001 23.0862 104.707 20.9247 106.527 20.9247C108.12 20.9247 108.612 22.403 108.612 23.8064C108.612 27.1807 106.603 31.9954 103.684 31.9954Z" fill="black"/>
<path d="M121.541 9.09628C119.874 9.09628 118.546 10.4234 118.546 12.1291C118.546 13.6836 119.532 14.7453 121.01 14.7453H121.086C122.717 14.7453 124.119 13.6455 124.157 11.7125C124.157 10.1961 123.134 9.09628 121.541 9.09628Z" fill="black"/>
<path d="M114.224 35.5593H119.455L123.02 17.0208H117.75L114.224 35.5593Z" fill="black"/>
<path d="M136.329 16.9818H132.689L132.878 16.1094C133.181 14.3275 134.243 12.7349 135.987 12.7349C136.918 12.7349 137.655 13.0004 137.655 13.0004L138.678 8.90585C138.678 8.90585 137.769 8.45116 135.834 8.45116C133.977 8.45116 132.12 8.98198 130.717 10.1949C128.934 11.7113 128.1 13.9098 127.684 16.1094L127.533 16.9818H125.106L124.347 20.9253H126.775L124.007 35.5597H129.239L132.007 20.9253H135.609L136.329 16.9818Z" fill="black"/>
<path d="M148.915 17.021C148.915 17.021 145.644 25.2612 144.176 29.7593H144.099C144 28.3108 142.81 17.021 142.81 17.021H137.312L140.461 34.0431C140.537 34.4217 140.499 34.6502 140.347 34.9156C139.739 36.0904 138.716 37.2283 137.503 38.0627C136.517 38.7828 135.418 39.2375 134.546 39.541L135.987 43.9771C137.048 43.7498 139.247 42.8774 141.104 41.1336C143.494 38.897 145.692 35.4465 147.966 30.7448L154.374 17.0198H148.915V17.021Z" fill="black"/>
</g>
<defs>
<clipPath id="clip0_49_3459">
<rect width="154.624" height="43.87" fill="white" transform="scale(1.00243)"/>
</clipPath>
</defs>
</svg>
