<svg width="12" height="12" viewBox="0 0 12 12" fill="none" xmlns="http://www.w3.org/2000/svg">
<g clip-path="url(#clip0_0_513)">
<path d="M11.2254 6.48635C11.0305 6.48635 10.8724 6.6444 10.8724 6.83929V9.97037C10.8724 10.5056 10.4447 10.941 9.91906 10.941H2.08111C1.55544 10.941 1.12775 10.5056 1.12775 9.97037V2.02922C1.12775 1.49402 1.55544 1.05863 2.08111 1.05863H5.55757C5.75246 1.05863 5.91051 0.900586 5.91051 0.705693C5.91051 0.510799 5.75246 0.352753 5.55757 0.352753H2.08111C1.16622 0.352753 0.42187 1.1048 0.42187 2.02922V9.97037C0.42187 10.8948 1.16622 11.6468 2.08111 11.6468H9.91906C10.834 11.6468 11.5783 10.8948 11.5783 9.97037V6.83929C11.5783 6.6444 11.4203 6.48635 11.2254 6.48635Z" fill="#379769"/>
<path d="M11.5788 0.72934V0.705693C11.5788 0.510799 11.4207 0.352753 11.2258 0.352753H7.63235C7.43746 0.352753 7.27941 0.510799 7.27941 0.705693C7.27941 0.900586 7.43746 1.05863 7.63235 1.05863H10.3974L4.41015 7.04598C4.2723 7.18383 4.2723 7.40732 4.41015 7.5451C4.47912 7.614 4.5694 7.64844 4.65975 7.64844C4.75011 7.64844 4.84039 7.614 4.90935 7.5451L10.8729 1.58148V4.34662C10.8729 4.54151 11.031 4.69956 11.2258 4.69956C11.4207 4.69956 11.5788 4.54151 11.5788 4.34662V0.72934Z" fill="#379769"/>
</g>
<defs>
<clipPath id="clip0_0_513">
<rect width="11.4445" height="11.4445" fill="white" transform="scale(1.04853)"/>
</clipPath>
</defs>
</svg>
