<svg width="25" height="25" viewBox="0 0 25 25" fill="none" xmlns="http://www.w3.org/2000/svg">
<path d="M21.1417 10.2041L13.3292 18.0166C13.2203 18.1258 13.0909 18.2125 12.9485 18.2716C12.8061 18.3308 12.6533 18.3612 12.4991 18.3612C12.3449 18.3612 12.1922 18.3308 12.0497 18.2716C11.9073 18.2125 11.7779 18.1258 11.669 18.0166L3.85653 10.2041C3.63637 9.98391 3.5127 9.68532 3.5127 9.37398C3.5127 9.06264 3.63637 8.76405 3.85653 8.5439C4.07668 8.32375 4.37526 8.20007 4.6866 8.20007C4.99794 8.20007 5.29653 8.32375 5.51668 8.5439L12.5001 15.5273L19.4835 8.54293C19.7036 8.32278 20.0022 8.1991 20.3136 8.1991C20.6249 8.1991 20.9235 8.32278 21.1436 8.54293C21.3638 8.76308 21.4875 9.06167 21.4875 9.373C21.4875 9.68434 21.3638 9.98293 21.1436 10.2031L21.1417 10.2041Z" fill="black"/>
</svg>
