<svg width="192" height="60" viewBox="0 0 192 60" fill="none" xmlns="http://www.w3.org/2000/svg">
<g clip-path="url(#clip0_49_3172)">
<path d="M23.9533 21.4091V27.8182H39.4203C39.0096 31.3636 37.7777 34.0909 35.8615 35.8636C33.6715 38.0455 30.1127 40.5 23.9533 40.5C14.5088 40.5 7.11755 32.8636 7.11755 23.4545C7.11755 14.0455 14.372 6.40909 23.9533 6.40909C29.0177 6.40909 32.8502 8.45455 35.5877 11.0455L40.1046 6.54545C36.2721 2.86364 31.0708 0 23.9533 0C10.9501 0 0 10.5 0 23.4545C0 36.4091 10.9501 46.9091 23.9533 46.9091C30.934 46.9091 36.2721 44.5909 40.3784 40.3636C44.6215 36.1364 45.9903 30.1364 45.9903 25.3636C45.9903 23.8636 45.8534 22.5 45.7165 21.4091H23.9533Z" fill="#4285F4"/>
<path d="M65.1524 16.0908C56.8029 16.0908 49.8223 22.4999 49.8223 31.2272C49.8223 39.9545 56.6661 46.3635 65.1524 46.3635C73.6387 46.3635 80.4825 40.0908 80.4825 31.3635C80.4825 22.4999 73.6387 16.0908 65.1524 16.0908ZM65.1524 40.4999C60.4986 40.4999 56.5292 36.6817 56.5292 31.3635C56.5292 25.909 60.4986 22.2272 65.1524 22.2272C69.8061 22.2272 73.7755 25.909 73.7755 31.3635C73.7755 36.6817 69.8061 40.4999 65.1524 40.4999Z" fill="#EA4335"/>
<path d="M140.024 19.4999H139.75C138.245 17.7272 135.37 16.0908 131.675 16.0908C124.009 16.0908 117.439 22.6363 117.439 31.2272C117.439 39.6817 124.009 46.3635 131.675 46.3635C135.37 46.3635 138.245 44.7272 139.75 42.9545H140.024V45.1363C140.024 50.8635 136.876 53.9999 131.948 53.9999C127.842 53.9999 125.378 51.1363 124.283 48.5454L118.534 50.9999C120.177 54.9545 124.694 59.9999 132.085 59.9999C139.887 59.9999 146.594 55.3636 146.594 44.1817V16.909H140.298V19.4999H140.024ZM132.359 40.4999C127.705 40.4999 124.283 36.5454 124.283 31.3635C124.283 26.0454 127.842 22.2272 132.359 22.2272C136.876 22.2272 140.435 26.1817 140.435 31.4999C140.571 36.6817 137.013 40.4999 132.359 40.4999Z" fill="#4285F4"/>
<path d="M99.2354 16.0908C90.8859 16.0908 83.9053 22.4999 83.9053 31.2272C83.9053 39.9545 90.7491 46.3635 99.2354 46.3635C107.722 46.3635 114.565 40.0908 114.565 31.3635C114.565 22.4999 107.722 16.0908 99.2354 16.0908ZM99.2354 40.4999C94.5816 40.4999 90.6122 36.6817 90.6122 31.3635C90.6122 25.909 94.5816 22.2272 99.2354 22.2272C103.889 22.2272 107.859 25.909 107.859 31.3635C107.859 36.6817 103.889 40.4999 99.2354 40.4999Z" fill="#FBBC05"/>
<path d="M151.658 0.681885H158.228V46.5001H151.658V0.681885Z" fill="#34A853"/>
<path d="M178.486 40.4999C175.064 40.4999 172.737 38.9999 171.095 35.8635L191.489 27.5454L190.805 25.7726C189.573 22.3635 185.604 16.0908 177.802 16.0908C170 16.0908 163.43 22.2272 163.43 31.2272C163.43 39.6817 169.863 46.3635 178.486 46.3635C185.467 46.3635 189.436 42.1363 191.215 39.6817L186.014 36.2726C184.235 38.8635 181.908 40.4999 178.486 40.4999ZM178.075 21.8181C180.813 21.8181 183.14 23.1817 183.824 25.0908L170.137 30.8181C170 24.5454 174.654 21.8181 178.075 21.8181Z" fill="#EA4335"/>
</g>
<defs>
<clipPath id="clip0_49_3172">
<rect width="191.489" height="60" fill="white"/>
</clipPath>
</defs>
</svg>
