<svg width="44" height="44" viewBox="0 0 44 44" fill="none" xmlns="http://www.w3.org/2000/svg">
<g clip-path="url(#clip0_49_3445)">
<path fill-rule="evenodd" clip-rule="evenodd" d="M37.3812 6.38916C33.2684 2.2711 27.7984 0.00208933 21.9703 0C9.96087 0 0.186995 9.77284 0.182816 21.7854C0.180726 25.6256 1.18465 29.3738 3.09116 32.6771L0 43.9678L11.5498 40.9382C14.7318 42.6745 18.315 43.5886 21.9609 43.5897H21.9703C33.9776 43.5897 43.7527 33.8157 43.7568 21.8032C43.7589 15.9813 41.495 10.5083 37.3812 6.3902V6.38916ZM21.9703 39.9103H21.963C18.714 39.9094 15.5269 39.0359 12.746 37.3864L12.0847 36.9937L5.23064 38.7915L7.05984 32.1087L6.62943 31.4235C4.81694 28.5402 3.85898 25.2077 3.86107 21.7865C3.86526 11.8026 11.9886 3.6793 21.9777 3.6793C26.8144 3.68139 31.3609 5.56702 34.78 8.99038C38.1992 12.4127 40.0806 16.9633 40.0785 21.8011C40.0743 31.786 31.9511 39.9094 21.9703 39.9094V39.9103ZM31.903 26.3485C31.3587 26.0759 28.6823 24.7595 28.1829 24.5778C27.6836 24.396 27.3211 24.3052 26.9586 24.8505C26.5961 25.3958 25.5525 26.6222 25.2349 26.9847C24.9173 27.3482 24.5997 27.3932 24.0554 27.1205C23.5113 26.8478 21.7572 26.2733 19.6773 24.419C18.0592 22.9752 16.9663 21.1931 16.6489 20.6477C16.3312 20.1025 16.6154 19.8078 16.887 19.5373C17.1314 19.2929 17.4312 18.9011 17.7039 18.5835C17.9766 18.2659 18.0664 18.0383 18.2482 17.6757C18.43 17.3121 18.3391 16.9947 18.2033 16.7219C18.0674 16.4493 16.979 13.7697 16.5245 12.6801C16.0826 11.6188 15.6334 11.7629 15.3002 11.7452C14.9826 11.7295 14.6201 11.7264 14.2566 11.7264C13.893 11.7264 13.3038 11.8622 12.8045 12.4075C12.3051 12.9527 10.899 14.2701 10.899 16.9486C10.899 19.6271 12.8494 22.2169 13.1221 22.5804C13.3947 22.944 16.9611 28.442 22.4216 30.8009C23.7202 31.3618 24.7345 31.6972 25.5253 31.9479C26.8291 32.3626 28.0158 32.3042 28.9539 32.1642C29.9997 32.0075 32.1746 30.8468 32.628 29.5755C33.0813 28.3041 33.0813 27.2134 32.9456 26.9868C32.8098 26.7601 32.4463 26.6232 31.902 26.3506L31.903 26.3485Z" fill="#25D366"/>
</g>
<defs>
<clipPath id="clip0_49_3445">
<rect width="43.6276" height="43.87" fill="white" transform="scale(1.00296)"/>
</clipPath>
</defs>
</svg>
