<svg width="80" height="80" viewBox="0 0 80 80" fill="none" xmlns="http://www.w3.org/2000/svg">
<g filter="url(#filter0_dddd_0_234)">
<circle cx="40" cy="40" r="40" fill="#B9BBBB"/>
</g>
<path d="M40 0C48.4472 1.00731e-07 56.6775 2.6742 63.5114 7.63932C70.3453 12.6044 75.4319 19.6056 78.0423 27.6393C80.6526 35.6731 80.6526 44.3269 78.0423 52.3607C75.4319 60.3944 70.3453 67.3956 63.5114 72.3607C56.6775 77.3258 48.4472 80 40 80C31.5528 80 23.3225 77.3258 16.4886 72.3607C9.65468 67.3956 4.56806 60.3944 1.95774 52.3607C-0.65258 44.3269 -0.652579 35.673 1.95774 27.6393L40 40V0Z" fill="#CDA152"/>
<circle cx="40" cy="40" r="34" fill="white"/>
<defs>
<filter id="filter0_dddd_0_234" x="-10" y="-1" width="100" height="116" filterUnits="userSpaceOnUse" color-interpolation-filters="sRGB">
<feFlood flood-opacity="0" result="BackgroundImageFix"/>
<feColorMatrix in="SourceAlpha" type="matrix" values="0 0 0 0 0 0 0 0 0 0 0 0 0 0 0 0 0 0 127 0" result="hardAlpha"/>
<feOffset dy="2"/>
<feGaussianBlur stdDeviation="1.5"/>
<feColorMatrix type="matrix" values="0 0 0 0 0 0 0 0 0 0 0 0 0 0 0 0 0 0 0.1 0"/>
<feBlend mode="normal" in2="BackgroundImageFix" result="effect1_dropShadow_0_234"/>
<feColorMatrix in="SourceAlpha" type="matrix" values="0 0 0 0 0 0 0 0 0 0 0 0 0 0 0 0 0 0 127 0" result="hardAlpha"/>
<feOffset dy="6"/>
<feGaussianBlur stdDeviation="3"/>
<feColorMatrix type="matrix" values="0 0 0 0 0 0 0 0 0 0 0 0 0 0 0 0 0 0 0.09 0"/>
<feBlend mode="normal" in2="effect1_dropShadow_0_234" result="effect2_dropShadow_0_234"/>
<feColorMatrix in="SourceAlpha" type="matrix" values="0 0 0 0 0 0 0 0 0 0 0 0 0 0 0 0 0 0 127 0" result="hardAlpha"/>
<feOffset dy="14"/>
<feGaussianBlur stdDeviation="4"/>
<feColorMatrix type="matrix" values="0 0 0 0 0 0 0 0 0 0 0 0 0 0 0 0 0 0 0.05 0"/>
<feBlend mode="normal" in2="effect2_dropShadow_0_234" result="effect3_dropShadow_0_234"/>
<feColorMatrix in="SourceAlpha" type="matrix" values="0 0 0 0 0 0 0 0 0 0 0 0 0 0 0 0 0 0 127 0" result="hardAlpha"/>
<feOffset dy="25"/>
<feGaussianBlur stdDeviation="5"/>
<feColorMatrix type="matrix" values="0 0 0 0 0 0 0 0 0 0 0 0 0 0 0 0 0 0 0.01 0"/>
<feBlend mode="normal" in2="effect3_dropShadow_0_234" result="effect4_dropShadow_0_234"/>
<feBlend mode="normal" in="SourceGraphic" in2="effect4_dropShadow_0_234" result="shape"/>
</filter>
</defs>
</svg>
