<svg width="161" height="54" viewBox="0 0 161 54" fill="none" xmlns="http://www.w3.org/2000/svg">
<path d="M155.037 0H5.96296C2.66971 0 0 3.00529 0 6.7125V46.9875C0 50.6947 2.66971 53.7 5.96296 53.7H155.037C158.33 53.7 161 50.6947 161 46.9875V6.7125C161 3.00529 158.33 0 155.037 0Z" fill="black"/>
<path d="M155.037 1.0764C156.365 1.0764 157.64 1.67178 158.579 2.73157C159.518 3.79136 160.046 5.22873 160.046 6.7275V47.0925C160.046 48.5913 159.518 50.0286 158.579 51.0884C157.64 52.1482 156.365 52.7436 155.037 52.7436H5.96296C4.63452 52.7436 3.36049 52.1482 2.42114 51.0884C1.48179 50.0286 0.954074 48.5913 0.954074 47.0925V6.7275C0.954074 5.22873 1.48179 3.79136 2.42114 2.73157C3.36049 1.67178 4.63452 1.0764 5.96296 1.0764H155.037ZM155.037 0H5.96296C4.38149 0 2.86478 0.708788 1.74651 1.97044C0.628239 3.23209 0 4.94326 0 6.7275V47.0925C0 48.8767 0.628239 50.5879 1.74651 51.8496C2.86478 53.1112 4.38149 53.82 5.96296 53.82H155.037C156.619 53.82 158.135 53.1112 159.253 51.8496C160.372 50.5879 161 48.8767 161 47.0925V6.7275C161 4.94326 160.372 3.23209 159.253 1.97044C158.135 0.708788 156.619 0 155.037 0Z" fill="#A6A6A6"/>
</svg>
