<svg width="30" height="30" viewBox="0 0 30 30" fill="none" xmlns="http://www.w3.org/2000/svg">
<g clip-path="url(#clip0_0_323)">
<path d="M6.22556 4.23354H15.3318" stroke="black" stroke-width="0.853125" stroke-miterlimit="10" stroke-linecap="round" stroke-linejoin="round"/>
<path d="M6.22556 7.07971H15.3318" stroke="black" stroke-width="0.853125" stroke-miterlimit="10" stroke-linecap="round" stroke-linejoin="round"/>
<path d="M20.3613 23.8268H9.63718C8.95762 23.8268 8.40672 24.3777 8.40672 25.0572V28.3304C8.40672 29.0099 8.95762 29.5608 9.63718 29.5608H20.3613C21.0409 29.5608 21.5918 29.0099 21.5918 28.3304V25.0572C21.5918 24.3777 21.0409 23.8268 20.3613 23.8268Z" stroke="black" stroke-width="0.853125" stroke-miterlimit="10" stroke-linecap="round" stroke-linejoin="round"/>
<path d="M14.9993 18.9835C14.9993 19.4513 14.6201 19.8306 14.1523 19.8306C13.6845 19.8306 13.3053 19.4513 13.3053 18.9835" stroke="black" stroke-width="0.853125" stroke-miterlimit="10" stroke-linecap="round"/>
<path d="M16.6935 18.9835C16.6935 19.4513 16.3143 19.8306 15.8465 19.8306C15.3787 19.8306 14.9995 19.4513 14.9995 18.9835" stroke="black" stroke-width="0.853125" stroke-miterlimit="10" stroke-linecap="round"/>
<path d="M12.201 18.291C12.201 17.8456 11.8398 17.4845 11.3944 17.4845C10.949 17.4845 10.5879 17.8456 10.5879 18.291" stroke="black" stroke-width="0.853125" stroke-miterlimit="10" stroke-linecap="round" stroke-linejoin="round"/>
<path d="M17.7974 18.291C17.7974 17.8456 18.1585 17.4845 18.6039 17.4845C19.0493 17.4845 19.4105 17.8456 19.4105 18.291" stroke="black" stroke-width="0.853125" stroke-miterlimit="10" stroke-linecap="round" stroke-linejoin="round"/>
<path d="M2.62081 21.4585V27.2722C2.62081 28.0648 3.26335 28.7072 4.05588 28.7072H8.46633" stroke="black" stroke-width="0.853125" stroke-miterlimit="10" stroke-linecap="round" stroke-linejoin="round"/>
<path d="M21.5328 28.7063H25.9433C26.7359 28.7063 27.3783 28.0638 27.3783 27.2712V15.7232C27.3783 14.9306 26.7358 14.2881 25.9433 14.2881H17.4307C16.6381 14.2881 15.9956 13.6456 15.9956 12.8531V12.4032C15.9956 11.6107 15.3531 10.9682 14.5605 10.9682H4.05588C3.26329 10.9682 2.62081 11.6107 2.62081 12.4032V19.4068" stroke="black" stroke-width="0.853125" stroke-miterlimit="10" stroke-linecap="round" stroke-linejoin="round"/>
<path d="M18.7418 14.2887V1.67012C18.7418 0.990549 18.1909 0.439653 17.5113 0.439653H4.60985C3.93029 0.439653 3.37939 0.990549 3.37939 1.67012V11.138" stroke="black" stroke-width="0.853125" stroke-miterlimit="10" stroke-linecap="round" stroke-linejoin="round"/>
<path d="M22.5386 14.2887V1.67012C22.5386 0.990549 21.9877 0.439653 21.3081 0.439653H17.5117" stroke="black" stroke-width="0.853125" stroke-miterlimit="10" stroke-linecap="round" stroke-linejoin="round"/>
<path d="M26.3345 6.0542V1.67012C26.3345 0.990549 25.7836 0.439653 25.104 0.439653H21.3076" stroke="black" stroke-width="0.853125" stroke-miterlimit="10" stroke-linecap="round" stroke-linejoin="round"/>
<path d="M26.3349 14.3432V8.1049" stroke="black" stroke-width="0.853125" stroke-miterlimit="10" stroke-linecap="round" stroke-linejoin="round"/>
</g>
<defs>
<clipPath id="clip0_0_323">
<rect width="29.12" height="29.12" fill="white" transform="scale(1.03022)"/>
</clipPath>
</defs>
</svg>
