<svg width="31" height="31" viewBox="0 0 31 31" fill="none" xmlns="http://www.w3.org/2000/svg">
<g filter="url(#filter0_d_49_3110)">
<path d="M4.08677 26.9132L5.66055 21.2066C4.63406 19.4513 4.09104 17.4554 4.08677 15.422C4.08677 9.20267 9.20267 4.08677 15.4599 4.08677C21.7193 4.08677 26.9132 9.20267 26.9132 15.422C26.9132 21.6391 21.7182 26.9132 15.4599 26.9132C13.4927 26.9132 11.6035 26.2835 9.91154 25.3384L4.08677 26.9132Z" fill="#EDEDED"/>
<path d="M10.2262 23.2918L10.5806 23.4891C12.0374 24.3941 13.7293 24.9447 15.5003 24.9447C20.6564 24.9447 24.9452 20.6559 24.9452 15.4207C24.9452 10.1867 20.6564 6.05383 15.4602 6.05383C10.2663 6.05383 6.05433 10.2257 6.05433 15.4207C6.05433 17.2308 6.56703 19.0018 7.51108 20.4976L7.74737 20.852L6.84233 24.1579L10.2262 23.2918Z" fill="#25D366"/>
<path d="M12.4298 10.1479L11.682 10.1077C11.4493 10.1015 11.2234 10.1863 11.0522 10.344C10.6978 10.6595 10.1071 11.2491 9.9499 12.0371C9.6746 13.2174 10.1071 14.634 11.1314 16.0507C12.1545 17.4673 14.1218 19.751 17.5847 20.7341C18.687 21.0495 19.5531 20.8522 20.2619 20.4198C20.8125 20.0654 21.167 19.5148 21.2851 18.924L21.4022 18.3734C21.4209 18.2897 21.4119 18.2021 21.3765 18.1239C21.3412 18.0456 21.2813 17.9811 21.206 17.9399L18.7261 16.7985C18.6462 16.7592 18.555 16.7494 18.4686 16.7711C18.3823 16.7927 18.3064 16.8443 18.2546 16.9167L17.2704 18.1761C17.2304 18.2174 17.1797 18.2466 17.1239 18.2604C17.0681 18.2742 17.0096 18.272 16.955 18.2542C16.2863 18.019 14.0426 17.0738 12.8233 14.7132C12.7832 14.595 12.7832 14.4769 12.8623 14.3977L13.8074 13.3356C13.8855 13.2174 13.9245 13.0603 13.8855 12.9421L12.7441 10.3842C12.7223 10.3173 12.6804 10.2588 12.6242 10.2166C12.568 10.1743 12.5001 10.1503 12.4298 10.1479Z" fill="#FEFEFE"/>
</g>
<defs>
<filter id="filter0_d_49_3110" x="-0.847087" y="-0.847087" width="32.6942" height="32.6942" filterUnits="userSpaceOnUse" color-interpolation-filters="sRGB">
<feFlood flood-opacity="0" result="BackgroundImageFix"/>
<feColorMatrix in="SourceAlpha" type="matrix" values="0 0 0 0 0 0 0 0 0 0 0 0 0 0 0 0 0 0 127 0" result="hardAlpha"/>
<feOffset/>
<feGaussianBlur stdDeviation="2"/>
<feComposite in2="hardAlpha" operator="out"/>
<feColorMatrix type="matrix" values="0 0 0 0 0 0 0 0 0 0 0 0 0 0 0 0 0 0 0.25 0"/>
<feBlend mode="normal" in2="BackgroundImageFix" result="effect1_dropShadow_49_3110"/>
<feBlend mode="normal" in="SourceGraphic" in2="effect1_dropShadow_49_3110" result="shape"/>
</filter>
</defs>
</svg>
