<svg width="11" height="11" viewBox="0 0 11 11" fill="none" xmlns="http://www.w3.org/2000/svg">
<path d="M8.83649 6.4299L5.74283 9.52356C5.71091 9.55552 5.673 9.58088 5.63127 9.59818C5.58954 9.61547 5.54481 9.62438 5.49963 9.62438C5.45446 9.62438 5.40973 9.61547 5.368 9.59818C5.32627 9.58088 5.28836 9.55552 5.25644 9.52356L2.16278 6.4299C2.09828 6.3654 2.06204 6.27792 2.06204 6.18671C2.06204 6.09549 2.09828 6.00801 2.16278 5.94351C2.22728 5.87901 2.31476 5.84278 2.40598 5.84278C2.49719 5.84278 2.58467 5.87901 2.64917 5.94351L5.15589 8.45067V1.71809C5.15589 1.62692 5.19211 1.53949 5.25657 1.47503C5.32104 1.41056 5.40847 1.37435 5.49963 1.37435C5.5908 1.37435 5.67823 1.41056 5.7427 1.47503C5.80716 1.53949 5.84337 1.62692 5.84337 1.71809V8.45067L8.3501 5.94351C8.4146 5.87901 8.50208 5.84278 8.59329 5.84278C8.68451 5.84278 8.77199 5.87901 8.83649 5.94351C8.90099 6.00801 8.93723 6.09549 8.93723 6.18671C8.93723 6.27792 8.90099 6.3654 8.83649 6.4299Z" fill="black"/>
</svg>
