<svg width="223" height="60" viewBox="0 0 223 60" fill="none" xmlns="http://www.w3.org/2000/svg">
<g clip-path="url(#clip0_49_3181)">
<path d="M89.9718 0H29.8262V59.8588H89.9718V0Z" fill="white"/>
<path d="M119.659 30.0706L89.7617 0V60.0706L119.659 30.0706Z" fill="#DB0011"/>
<path d="M59.8637 30.0706L89.7607 0H29.9668L59.8637 30.0706Z" fill="#DB0011"/>
<path d="M0 30.0706L29.9673 60.0706V0L0 30.0706Z" fill="#DB0011"/>
<path d="M59.8637 30.0706L29.9668 60.0706H89.7607L59.8637 30.0706Z" fill="#DB0011"/>
<path d="M145.897 31.8353H135.064V42.5647H129.647V17.4353H135.064V27.7412H145.897V17.4353H151.314V42.5647H145.897V31.8353Z" fill="black"/>
<path d="M164.398 43.0588C158.982 43.0588 154.55 40.8705 154.479 34.8705H159.896C159.966 37.5529 161.514 39.1764 164.469 39.1764C166.649 39.1764 169.182 38.047 169.182 35.5764C169.182 33.6 167.493 33.0352 164.68 32.1882L162.851 31.6941C158.911 30.5647 154.972 29.0117 154.972 24.4941C154.972 18.9176 160.177 17.0117 164.891 17.0117C169.745 17.0117 173.965 18.7058 174.036 24.2823H168.619C168.408 22.0235 167.071 20.6823 164.539 20.6823C162.499 20.6823 160.529 21.7411 160.529 24C160.529 25.8352 162.218 26.4 165.735 27.5294L167.845 28.1647C172.136 29.5058 174.88 30.9882 174.88 35.2235C174.809 40.8705 169.322 43.0588 164.398 43.0588Z" fill="black"/>
<path d="M177.905 17.5059H186.628C188.246 17.4353 189.934 17.5059 191.552 17.7883C194.577 18.4942 196.899 20.4706 196.899 23.8589C196.899 27.1059 194.859 28.7295 191.904 29.5059C195.281 30.1412 197.813 31.8353 197.813 35.5765C197.813 41.2942 192.185 42.5648 187.824 42.5648H177.976L177.905 17.5059ZM186.628 27.953C189.02 27.953 191.482 27.4589 191.482 24.5648C191.482 21.953 189.231 21.2471 186.98 21.2471H183.181V27.953H186.628ZM187.121 38.8236C189.653 38.8236 192.115 38.2589 192.115 35.153C192.115 32.0471 190.005 31.4824 187.402 31.4824H183.111V38.8236H187.121Z" fill="black"/>
<path d="M211.882 43.0588C203.792 43.0588 200.204 37.9059 200.204 30.2118C200.204 22.5176 204.214 16.9412 212.163 16.9412C217.157 16.9412 222.011 19.2 222.152 24.847H216.524C216.243 22.3059 214.555 21.0353 212.163 21.0353C207.239 21.0353 205.761 26.3294 205.761 30.3529C205.761 34.3765 207.239 39.0353 211.952 39.0353C214.414 39.0353 216.243 37.6941 216.595 35.1529H222.222C221.66 40.9412 217.087 43.0588 211.882 43.0588Z" fill="black"/>
</g>
<defs>
<clipPath id="clip0_49_3181">
<rect width="222.222" height="60" fill="white"/>
</clipPath>
</defs>
</svg>
