<svg width="44" height="44" viewBox="0 0 44 44" fill="none" xmlns="http://www.w3.org/2000/svg">
<g clip-path="url(#clip0_184_979)">
<path fill-rule="evenodd" clip-rule="evenodd" d="M37.2708 6.3703C33.1702 2.26439 27.7164 0.00208316 21.9054 0C9.93146 0 0.186443 9.74399 0.182276 21.7211C0.180193 25.5499 1.18115 29.2871 3.08204 32.5806L0 43.838L11.5157 40.8174C14.6883 42.5486 18.2609 43.4599 21.8961 43.461H21.9054C33.8773 43.461 43.6235 33.7159 43.6276 21.7388C43.6297 15.9341 41.3726 10.4773 37.2708 6.37134V6.3703ZM21.9054 39.7925H21.8982C18.6588 39.7915 15.481 38.9207 12.7084 37.276L12.049 36.8845L5.2152 38.677L7.039 32.014L6.60986 31.3307C4.80272 28.456 3.84759 25.1333 3.84968 21.7222C3.85385 11.7678 11.9532 3.66844 21.9128 3.66844C26.7353 3.67053 31.2683 5.55058 34.6773 8.96384C38.0864 12.3761 39.9623 16.9132 39.9602 21.7367C39.956 31.6922 31.8568 39.7915 21.9054 39.7915V39.7925ZM31.8088 26.2707C31.2661 25.9989 28.5977 24.6864 28.0997 24.5053C27.6019 24.324 27.2405 24.2334 26.879 24.7771C26.5176 25.3209 25.4771 26.5437 25.1604 26.905C24.8438 27.2675 24.5271 27.3123 23.9844 27.0404C23.4418 26.7686 21.693 26.1957 19.6192 24.3469C18.0058 22.9074 16.9162 21.1306 16.5997 20.5868C16.283 20.0431 16.5664 19.7494 16.8371 19.4796C17.0808 19.2359 17.3798 18.8453 17.6516 18.5287C17.9236 18.212 18.0131 17.985 18.1943 17.6235C18.3756 17.261 18.2849 16.9445 18.1496 16.6725C18.0141 16.4007 16.9289 13.729 16.4757 12.6427C16.0351 11.5845 15.5873 11.7282 15.255 11.7105C14.9383 11.6949 14.577 11.6917 14.2145 11.6917C13.852 11.6917 13.2645 11.8271 12.7667 12.3709C12.2688 12.9145 10.8668 14.2279 10.8668 16.8986C10.8668 19.5692 12.8115 22.1513 13.0833 22.5138C13.3551 22.8763 16.911 28.3581 22.3554 30.71C23.6502 31.2693 24.6615 31.6036 25.4499 31.8536C26.7499 32.2671 27.9331 32.2088 28.8684 32.0692C29.9111 31.913 32.0796 30.7558 32.5317 29.4882C32.9837 28.2205 32.9837 27.1331 32.8483 26.9071C32.713 26.6811 32.3505 26.5446 31.8078 26.2728L31.8088 26.2707Z" fill="#25D366"/>
</g>
<defs>
<clipPath id="clip0_184_979">
<rect width="43.6276" height="43.87" fill="white"/>
</clipPath>
</defs>
</svg>
